<svg width="121" height="27" viewBox="0 0 121 27" fill="none" xmlns="http://www.w3.org/2000/svg">
<path d="M38.4515 13.4673C38.4515 9.49322 40.778 6.91235 44.9395 6.91235C46.8052 6.91235 47.9185 7.27017 48.7094 7.64322L48.1566 9.10495C47.1507 8.78519 46.4136 8.54918 44.9779 8.54918C42.4288 8.53396 40.4248 9.91955 40.4248 13.2846C40.4248 16.7181 42.4979 18.2179 45.3157 18.2179C46.5211 18.2179 47.4348 18.0428 48.2794 17.7763L48.7247 19.2685C47.7727 19.6263 46.7668 19.8928 45.0086 19.8928C40.6858 19.9004 38.4515 17.3348 38.4515 13.4673Z" fill="#D7D7D7"/>
<path d="M49.9762 14.2524C49.9762 12.2578 50.3524 9.12125 51.4811 8.07065C52.4716 7.14186 55.1051 6.5252 58.1764 5.95422L58.4835 7.62909C55.7501 8.09349 53.3315 8.51982 52.7403 9.0908C52.2182 9.58565 51.9878 10.7276 51.8804 11.5803C52.7096 11.1387 53.8383 10.7048 55.2203 10.7048C57.5698 10.7048 59.067 11.862 59.067 14.8158C59.067 18.2874 57.04 19.8404 54.3297 19.8404C51.627 19.848 49.9762 18.1732 49.9762 14.2524ZM57.1782 14.8919C57.1782 13.3465 56.5102 12.1512 54.7366 12.1512C53.6079 12.1512 52.7096 12.5395 51.8266 12.9887C51.8113 13.3084 51.7882 13.7728 51.7882 14.0926C51.7882 16.9931 52.6712 18.3483 54.4602 18.3483C56.587 18.3483 57.1782 16.5668 57.1782 14.8919Z" fill="#D7D7D7"/>
<path d="M60.6027 14.9978C60.6027 11.1532 62.5759 9.70679 65.0405 9.70679C67.7892 9.70679 68.9409 11.4349 68.9409 14.6019V15.2642H62.4914C62.5068 17.8298 63.981 18.3475 65.7085 18.3475C66.6452 18.3475 67.436 18.2028 68.4035 17.9212L68.7259 19.36C67.866 19.6797 66.699 19.8929 65.4244 19.8929C62.4914 19.9005 60.6027 18.7586 60.6027 14.9978ZM66.9984 13.97C66.9984 12.2419 66.3688 11.1228 64.933 11.1228C63.6431 11.1228 62.668 12.0668 62.5452 13.97H66.9984Z" fill="#D7D7D7"/>
<path d="M70.8298 9.96545H72.6956V10.7344C73.5402 10.1482 74.308 9.73706 75.5134 9.73706C77.8322 9.73706 79.4138 11.3434 79.4138 14.5789C79.4138 18.5529 77.0413 19.8852 74.4001 19.8852C73.7859 19.8852 73.1255 19.7938 72.6956 19.7405V23.6003H70.8298V9.96545ZM77.5097 14.6627C77.5097 12.8965 76.8801 11.313 74.999 11.313C73.9778 11.313 73.2023 11.7773 72.7033 12.0438V18.2027C72.9336 18.2408 73.7091 18.3778 74.3771 18.3778C76.6114 18.3854 77.5097 16.8324 77.5097 14.6627Z" fill="#D7D7D7"/>
<path d="M81.0338 14.2524C81.0338 12.2578 81.41 9.12125 82.5387 8.07065C83.5292 7.14186 86.1627 6.5252 89.234 5.95422L89.5411 7.62909C86.8077 8.09349 84.3891 8.51982 83.7979 9.0908C83.2758 9.58565 83.0455 10.7276 82.938 11.5803C83.7672 11.1387 84.8959 10.7048 86.2779 10.7048C88.6274 10.7048 90.1246 11.862 90.1246 14.8158C90.1246 18.2874 88.0976 19.8404 85.3873 19.8404C82.6846 19.848 81.0338 18.1732 81.0338 14.2524ZM88.2358 14.8919C88.2358 13.3465 87.5678 12.1512 85.7942 12.1512C84.6655 12.1512 83.7672 12.5395 82.8842 12.9887C82.8689 13.3084 82.8458 13.7728 82.8458 14.0926C82.8458 16.9931 83.7288 18.3483 85.5178 18.3483C87.6446 18.3483 88.2358 16.5668 88.2358 14.8919Z" fill="#D7D7D7"/>
<path d="M91.3301 17.0684C91.3301 14.6094 93.5183 14.1146 95.2305 14.0918L97.365 14.0537V13.0031C97.365 11.6709 96.6816 11.3131 95.2459 11.3131C94.2016 11.3131 93.3417 11.4882 92.4971 11.7775L92.1056 10.3691C93.0192 9.99607 94.1172 9.70679 95.553 9.70679C97.9024 9.70679 99.2 10.529 99.2 12.5007V17.586C99.2 18.1951 99.7221 18.3169 100.221 18.3321L100.075 19.7557C99.9525 19.7709 99.8296 19.7938 99.7068 19.7938C98.7009 19.7938 97.7105 19.4892 97.5339 18.6214C96.9197 19.0858 95.9138 19.847 94.3552 19.847C92.5355 19.847 91.3301 18.865 91.3301 17.0684ZM97.365 17.4947V15.2489L95.2842 15.3403C93.9406 15.3783 93.1651 15.9417 93.1651 16.939C93.1651 17.921 93.8792 18.3625 94.8389 18.3625C95.7142 18.3625 96.6586 17.9362 97.365 17.4947Z" fill="#D7D7D7"/>
<path d="M101.818 9.96533H103.707V14.0764H108.322V9.96533H110.21V19.6873H108.322V15.5533H103.707V19.6873H101.818V9.96533Z" fill="#D7D7D7"/>
<path d="M112.521 9.96533H114.41V19.6872H112.521V9.96533ZM117.266 18.0123L114.479 14.7006L118.38 9.96533H120.499L116.506 14.556L118.449 16.6953C119.309 17.6773 120.1 18.2407 120.891 18.4615L120.568 19.847C119.654 19.7938 118.556 19.573 117.266 18.0123Z" fill="#D7D7D7"/>
<path d="M28.3088 12.9345C28.3088 20.6846 21.9745 26.9653 14.1583 26.9653C6.33436 26.9653 0 20.6846 0 12.9345C0 12.6148 0.015356 12.3103 0.0307121 11.9981L8.59938 16.8857L26.7502 6.53197C27.7483 8.45807 28.3088 10.6278 28.3088 12.9345ZM8.59938 13.3532L0.621919 8.80827C0.468359 9.31073 0.337833 9.82841 0.238018 10.3537L8.59938 15.1195L25.9747 5.21492C25.6906 4.78859 25.3758 4.36988 25.0457 3.974L8.59938 13.3532ZM23.9708 2.82443C23.5792 2.45139 23.1646 2.09358 22.7269 1.76622L8.59938 9.82841L1.85808 5.97622C1.6047 6.41778 1.37436 6.87456 1.16706 7.34657L8.59938 11.587L23.9708 2.82443ZM8.59938 8.06219L21.2988 0.822207C20.769 0.517686 20.2162 0.236004 19.648 0L8.59938 6.29597L3.68545 3.49438C3.33226 3.87503 3.00978 4.27852 2.70266 4.69724L8.59938 8.06219Z" fill="#D7D7D7"/>
</svg>
