<svg width="120" height="60" viewBox="0 0 120 60" fill="none" xmlns="http://www.w3.org/2000/svg">
<path d="M98.298 35.9282C97.8264 35.9282 97.4423 35.5646 97.4423 35.1156L97.4472 35.0849V21.3722V21.3108L97.4523 21.2534C97.4959 20.8503 97.8539 20.5301 98.2942 20.5301C98.7332 20.5301 99.0975 20.8503 99.1399 21.2534L99.145 21.3108V21.3722V35.0849L99.1487 35.1156C99.1487 35.5646 98.7658 35.9282 98.298 35.9282ZM99.8858 17.9979H96.7039C94.0134 17.9979 93.8538 20.2214 93.8538 21.654V34.8005C93.8538 36.2357 94.0134 38.458 96.7039 38.458H99.8858C102.577 38.458 102.742 36.2369 102.742 34.8005V21.654C102.741 20.2202 102.577 17.9979 99.8858 17.9979Z" fill="#D7D7D7"/>
<path d="M40.0003 17.9979H47.3296V20.539H43.842V38.4566H40.0003V17.9979Z" fill="#D7D7D7"/>
<path d="M47.8975 38.4566H51.6545L52.015 33.0182H53.8273L54.1829 38.4566H57.9435L55.9378 17.9965H49.9045L47.8975 38.4566ZM52.1497 30.7704L52.8121 20.5352H53.0266L53.6851 30.7704H52.1497Z" fill="#D7D7D7"/>
<path d="M63.4427 31.2933V35.1447C63.4427 35.6704 63.8219 35.8208 64.0452 35.8208C64.4007 35.8208 64.6476 35.4956 64.6476 35.1447V30.3875C64.6476 29.7458 64.5404 29.0468 63.1072 29.0468H61.5505V26.795H63.1633C64.2597 26.795 64.6476 26.5272 64.6476 25.2783V21.2086C64.6476 20.8591 64.3995 20.5402 64.0452 20.5402C63.8219 20.5402 63.4427 20.6857 63.4427 21.2086V24.546H59.5985V21.6552C59.5985 20.2226 59.7656 17.9989 62.4524 17.9989H65.638C68.3285 17.9989 68.4919 20.2226 68.4919 21.6552V24.93C68.4919 27.1471 67.0351 27.7595 65.88 27.7021V27.9075C68.4583 27.845 68.4919 29.9525 68.4919 30.6848V34.8016C68.4919 36.2367 68.3285 38.459 65.638 38.459H62.4524C59.7656 38.459 59.5985 36.2381 59.5985 34.8016V31.2946H63.4427V31.2933Z" fill="#D7D7D7"/>
<path d="M71.0186 17.9979H79.9096V38.4566H76.3248V20.539H74.601V38.4566H71.0186V17.9979Z" fill="#D7D7D7"/>
<path d="M82.6926 38.4566H86.5331V31.5012H88.7284C91.4188 31.5012 91.8467 29.2802 91.8467 27.8424V21.6514C91.8467 20.2186 91.4188 17.9951 88.7284 17.9951H82.6926V38.4566ZM86.5331 29.247V20.5389H87.5422C87.9588 20.5389 88.2606 20.9177 88.2606 21.5582V28.2276C88.2606 28.8706 87.9588 29.247 87.5422 29.247H86.5331Z" fill="#D7D7D7"/>
<path d="M115.002 17.9979H119.999V38.4566H116.155V25.628H116.018L114.038 38.4566H110.97L108.991 25.628H108.858V38.4566H105.012V17.9979H110.004L112.498 32.3766L115.002 17.9979Z" fill="#D7D7D7"/>
<path d="M31.8053 20.0771C31.7617 22.1528 31.5185 24.3406 31.2103 25.6482C31.3213 23.3954 31.0545 20.2149 30.5467 17.7311C30.0403 15.2472 28.6034 11.1049 27.4571 9.18241C26.4006 11.0093 25.0971 14.5953 24.4149 17.7106C23.7289 20.8234 23.7089 24.5919 23.7089 25.7235C23.5255 24.7629 23.0703 21.3732 23.2013 17.9607C23.3085 15.1439 23.9522 12.2518 24.3039 10.9187C25.6498 6.4753 27.1727 3.63553 27.4583 3.18137C27.7441 3.63426 29.6661 7.13232 30.659 10.8064C31.6481 14.483 31.8465 18.0041 31.8053 20.0771ZM27.4821 35.9536C26.8858 34.8067 25.9566 32.6176 25.8693 29.2407C25.8455 25.9684 27.1253 23.1669 27.5021 22.5814C27.8389 23.1669 28.9351 25.6075 29.0674 28.9447C29.1573 32.2106 28.1007 34.7812 27.4821 35.9536ZM32.1558 10.8523C30.9434 5.41645 27.8974 0.993499 27.4821 0.273987C26.8185 1.28692 24.3911 5.18938 23.1589 9.52048C21.813 14.3504 21.6146 18.633 22.0774 22.8544C22.5414 27.0706 24.2851 31.4006 24.2851 31.4006C25.2107 33.6764 26.6002 36.1092 27.5021 37.3058C28.8242 35.5466 31.8726 30.297 32.8194 23.4399C33.3457 19.628 33.3657 16.287 32.1558 10.8523Z" fill="#D7D7D7"/>
<path d="M20.0332 38.4528V44.8838C20.0408 44.8748 20.0483 44.8672 20.0595 44.8582C22.2572 42.618 25.8208 42.618 28.0199 44.8582C30.2215 47.0945 30.2215 50.7304 28.0199 52.968L27.9937 52.9949V52.9975C27.98 53.0075 27.97 53.0178 27.9625 53.0268C25.766 55.2427 22.8996 56.3539 20.0345 56.3539C17.1595 56.3539 14.2781 55.2299 12.0828 53.0013C8.21487 49.0555 7.75212 42.9562 10.7045 38.5C11.1012 37.8979 11.5589 37.3263 12.0828 36.7969C14.2781 34.558 17.1595 33.443 20.0345 33.443V18.1075C8.97575 18.1075 0 27.2442 0 38.5038C0 49.7749 8.97449 58.9105 20.0345 58.9105C25.8059 58.9105 30.9997 56.4228 34.6519 52.4501V38.4528H20.0332Z" fill="#D7D7D7"/>
<path d="M116.409 54.0766C116.409 56.0234 115.543 56.3678 113.339 56.3678H111.312V47.4862H113.339V50.9141H113.678C115.672 50.9141 116.409 51.3886 116.409 53.1657V54.0766ZM99.4876 49.1639H97.951V56.373H96.0226V49.1639H94.3774V47.4773H99.489V49.1639H99.4876ZM83.8848 53.199C83.8848 55.0028 82.988 55.4876 80.9911 55.4876V56.3666H79.0191V55.4876C77.0146 55.4876 76.1091 55.0028 76.1091 53.199V50.4243C76.1091 48.6127 76.9784 48.1522 79.0191 48.1522V47.4862H80.9911V48.1522C83.018 48.1522 83.8848 48.6127 83.8848 50.4243V53.199ZM65.5031 49.1639H62.7291V50.9115H65.2099V52.593H62.7291V54.6877H65.5031V56.373H60.636V47.476H65.5031V49.1639ZM48.6854 56.3666H46.656V52.4782H45.6146V56.3666H43.5863V47.485H45.6146V50.9129H46.656V47.485H48.6854V56.3666ZM119.999 45.269H40.0003V58.9091H120V45.269H119.999ZM78.0823 50.3669V53.2105C78.0823 53.7322 78.2458 53.8534 78.6923 53.8534H79.0191V49.7137H78.6923C78.2458 49.7149 78.0823 49.8464 78.0823 50.3669ZM113.791 52.4794H113.339V54.7975H113.791C114.246 54.7975 114.382 54.6788 114.382 54.1724V53.1045C114.381 52.593 114.246 52.4794 113.791 52.4794ZM81.303 49.7149H80.9911V53.8546H81.303C81.7544 53.8546 81.9166 53.722 81.9166 53.199V50.3438C81.9166 49.8221 81.7544 49.7149 81.303 49.7149Z" fill="#D7D7D7"/>
</svg>
