<svg width="200" height="48" viewBox="0 0 200 48" fill="none" xmlns="http://www.w3.org/2000/svg">
<path fill-rule="evenodd" clip-rule="evenodd" d="M71.6054 42.9391V40.4852H75.5555C76.5441 40.4852 77.5315 40.4852 77.5315 41.7103C77.5315 42.7833 76.5441 42.9378 75.5555 42.9378L71.6054 42.9391ZM69.7943 47.8468H71.6054V44.3199H75.062C76.7087 44.3199 79.3426 44.3199 79.3426 41.7114C79.3426 38.9511 76.7087 38.9511 75.062 38.9511H69.7943V47.8468ZM85.4319 44.3199L87.4076 40.332L89.3833 44.3199H85.4319ZM81.6474 47.8468H83.6232L84.6104 45.8516H90.0428L91.03 47.8468H93.0057L88.3974 38.9511H86.257L81.6474 47.8468ZM99.5887 42.9391V40.3307H103.21C104.691 40.3307 105.515 40.6374 105.515 41.5582C105.515 42.6312 104.691 42.9378 103.21 42.9378L99.5887 42.9391ZM97.7787 47.8468H99.5887V44.3199H102.552L105.35 47.8468H107.654L104.691 44.1654C106.171 44.1654 107.325 43.2456 107.325 41.5595C107.325 39.4122 105.679 38.9511 103.539 38.9511H97.7787V47.8468ZM113.252 38.9511H115.062V47.8468H113.252V38.9511ZM128.396 41.7114C128.067 40.7919 127.244 40.1799 124.939 40.1799C123.624 40.1799 122.471 40.4863 122.471 41.2518C122.471 41.7127 122.634 42.0194 124.61 42.3247L126.915 42.6336C129.054 42.9402 130.207 43.7068 130.207 45.0875C130.207 47.2324 128.068 48 125.597 48C121.483 48 120.495 46.1618 120.166 45.5461L121.978 44.933C122.307 45.5461 123.129 46.4671 125.597 46.4671C127.078 46.4671 128.397 46.006 128.397 45.2396C128.397 44.7785 127.739 44.3199 126.258 44.1666L123.953 43.86C121.814 43.7079 120.497 42.787 120.497 41.4061C120.497 38.7978 124.282 38.7978 124.941 38.7978C129.055 38.7978 129.879 40.4863 130.045 41.0996L128.396 41.7114ZM172.51 28.6759C173.005 33.2769 175.473 32.5093 175.639 32.9705H166.091C165.925 32.8159 168.725 32.8159 168.23 28.9826L165.762 11.5015C165.596 11.0416 165.596 10.5806 165.267 10.5806C165.104 10.7339 156.871 29.4425 156.871 29.4425C156.708 29.7489 156.542 29.9034 156.213 29.4425C156.05 29.1358 148.477 13.6476 148.477 13.6476C148.148 12.8811 147.488 11.6536 147.326 11.3482C147.16 11.0416 146.831 11.0416 146.831 12.268L144.855 29.9046C144.363 32.9716 147.489 32.8172 147.489 32.9716H140.577C140.577 32.8172 142.882 33.1261 143.374 29.9046L145.679 10.4285C145.516 6.59505 142.716 6.74834 142.716 6.44057H149.959V6.74714L157.532 22.2366L157.861 22.5432C158.024 23.0031 158.024 23.3095 158.356 22.8497L165.763 6.44057H172.677C172.677 6.74714 169.878 6.59385 169.878 9.81412L172.51 28.6759ZM14.815 32.0518H11.0293C9.71296 32.0518 8.06628 32.2039 8.06628 30.8243V10.274C8.06628 7.05371 11.852 7.05371 12.0165 6.74714H0.330363C0.165825 7.05371 3.95152 7.05371 3.95152 10.4273V30.2101C3.95152 32.8159 0 32.8159 0 32.9705H20.5765L21.7281 27.2963C21.2359 27.2963 21.565 31.8975 14.815 32.0518ZM185.678 19.9361V29.9034C185.678 31.8962 185.515 32.0507 186.996 32.0507H194.569C200.657 31.7441 199.506 27.7562 200 27.6017L199.837 32.9692H178.601C178.435 32.8148 181.73 33.2758 181.73 28.9813V10.5806C181.73 6.28726 178.764 6.90042 178.764 6.59385H199.837L200 11.8081C199.67 11.8081 200.824 7.66687 194.404 7.3615H187.489C186.337 7.66807 185.678 6.90162 185.678 9.50754V16.408C185.678 17.3277 185.844 17.481 187.159 17.481H194.074C197.367 17.481 197.037 14.5673 197.204 14.5673V21.4678C197.037 21.4678 197.367 18.2475 194.237 18.4007H187.326C185.844 18.4007 185.678 18.8607 185.678 19.7804V19.9361ZM58.7663 30.2101C59.0954 33.4303 61.7293 32.6638 61.7293 32.9705H54.3211C54.3211 32.6638 57.2841 32.9705 57.2841 30.0556V10.1219C57.2841 6.74834 54.1565 6.74834 53.992 6.44057H61.5646L77.0378 24.3814L76.8733 9.81412C76.8733 6.28726 73.9102 6.59385 73.9102 6.44057H81.6474C81.6474 6.59385 78.6844 6.59385 78.52 9.81412V32.3574C78.52 32.3574 78.6844 34.0434 77.5315 32.6638C77.0378 32.0507 58.9307 10.7339 58.9307 10.7339C58.7663 10.4273 58.7663 10.7339 58.7663 11.1937V30.2101ZM48.7254 29.5981L38.3556 6.59505C37.5317 5.8274 37.2039 6.74834 37.2039 6.74834C36.2154 8.8944 26.6694 30.2112 26.6694 30.2112C25.3531 33.1261 23.7065 32.8172 23.7065 32.9716H30.4552C30.4552 32.6651 26.8341 33.1261 28.1504 30.2112L31.607 22.0833C32.1006 21.4702 32.1006 21.3168 32.9233 21.3168H39.672C40.4946 21.3168 40.4946 21.3168 40.9883 22.0833L44.2804 29.9046C45.2676 32.9716 42.3046 32.8172 42.3046 32.9716H51.8517C52.0176 32.6638 50.3709 33.5836 48.7254 29.5981ZM33.5815 20.0893C32.9233 20.0893 32.9233 19.6294 33.2524 19.0163C33.2524 19.0163 35.7217 13.0356 36.0507 12.4224C36.5444 11.5027 36.8748 11.656 37.2026 12.4224L39.672 19.1695C40.0011 19.7828 40.3302 20.0906 39.5074 20.0906L33.5815 20.0893ZM136.791 5.21304L125.267 0L113.91 5.21304L125.267 1.99278L136.791 5.21304ZM125.433 5.98069C116.379 5.98069 110.618 12.5757 110.618 19.6294C110.618 26.6843 116.378 32.9716 125.267 32.9716C134.157 32.9716 140.082 26.6843 140.082 19.6294C140.083 12.5745 134.321 5.98069 125.433 5.98069ZM125.267 32.0518C119.671 32.0518 116.05 27.1442 116.05 19.7828C116.05 11.1949 119.836 7.05491 125.267 7.05491C130.701 7.05491 134.486 11.1961 134.486 19.7828C134.486 27.1442 130.701 31.8975 125.267 32.0518ZM98.1078 31.8975C104.692 31.8975 107.49 27.603 108.15 27.4508C108.314 27.4508 104.856 32.9705 98.1078 32.9705C82.7993 32.9705 82.9637 19.9361 82.9637 19.9361C83.4574 10.8884 91.3591 5.36753 98.9306 6.13398C101.071 6.44057 101.894 6.74714 103.376 7.05371C104.034 7.3603 106.01 8.28004 106.668 7.97466C107.161 7.82136 107.655 6.74834 107.819 6.74834V13.8032C107.326 13.8032 105.516 7.05491 98.2724 7.05491C92.3463 7.05491 87.738 13.3422 87.9026 19.6294C88.0657 30.0567 95.803 31.8975 98.1078 31.8975Z" fill="#D7D7D7"/>
</svg>
