<svg width="146" height="17" viewBox="0 0 146 17" fill="none" xmlns="http://www.w3.org/2000/svg">
<path d="M10.3117 0.178955V4.56334H8.58319C6.39968 4.56334 4.64038 6.29329 4.64038 8.44096C4.64038 10.5878 6.39968 12.3178 8.58238 12.3178H10.3117V16.7021C14.2537 15.9566 17.1964 12.5566 17.1964 8.44015C17.1964 4.35448 14.2545 0.954479 10.3117 0.178955Z" fill="#D7D7D7"/>
<path d="M8.58318 13.689C5.64128 13.689 3.24444 11.3333 3.24444 8.4409C3.24444 5.54848 5.64047 3.19195 8.58156 3.19195H8.91573V0H8.58237C3.85197 0 0 3.78776 0 8.44009C0 13.1232 3.85197 16.911 8.58318 16.911H8.91654V13.6907H8.58318V13.689ZM29.3273 11.3932C28.6324 11.9543 27.7652 12.2596 26.8713 12.2578C24.7178 12.2578 22.9893 10.5578 22.9893 8.44009C22.9893 6.32319 24.717 4.62319 26.8713 4.62319C27.8086 4.61918 28.7148 4.95849 29.4182 5.57681L30.7833 4.23543C29.7099 3.27099 28.3156 2.73924 26.8713 2.74348C23.6561 2.74348 21.0783 5.30886 21.0783 8.44009C21.0783 11.5721 23.6561 14.1667 26.8713 14.1667C28.3573 14.1667 29.6915 13.63 30.6924 12.7354L29.3273 11.3932ZM91.0464 3.19114L86.7702 8.26119L82.4632 3.19114L82.4332 3.25105V3.19114H80.7039V13.6899H82.4332V5.99452L86.7702 11.0646L91.0464 6.11433V13.6899H92.7449V3.19114H91.0464ZM43.6426 8.44009C43.6426 11.6021 41.0341 14.1367 37.8497 14.1367C34.6353 14.1367 32.0575 11.5721 32.0575 8.44009C32.0575 5.30886 34.6653 2.74348 37.8497 2.74348C41.0341 2.74348 43.6426 5.30886 43.6426 8.44009ZM41.7017 8.44009C41.7017 6.32319 39.9732 4.62319 37.8197 4.62319C35.6662 4.62319 33.9377 6.32319 33.9377 8.44009C33.9377 10.5578 35.6662 12.2578 37.8197 12.2578C39.9732 12.2578 41.7017 10.5578 41.7017 8.44009ZM78.9454 8.44009C78.9454 11.6021 76.3369 14.1367 73.1525 14.1367C69.9372 14.1367 67.3595 11.5721 67.3595 8.44009C67.3595 5.30886 69.9681 2.74348 73.1525 2.74348C76.3669 2.74348 78.9454 5.30886 78.9454 8.44009ZM77.0345 8.44009C77.0345 6.32319 75.306 4.62319 73.1525 4.62319C70.999 4.62319 69.2705 6.32319 69.2705 8.44009C69.2705 10.5578 70.999 12.2578 73.1525 12.2578C75.2752 12.2578 77.0345 10.5578 77.0345 8.44009ZM67.3295 3.19114H64.9935L60.5965 7.60548H58.8072V3.19114H57.1087V13.6899H58.8072V9.30548H60.5657L64.9635 13.6899H67.2687L62.0524 8.47005L67.3295 3.19114Z" fill="#D7D7D7"/>
<path d="M139.268 3.19116H136.964L132.536 7.6055H130.746V3.19116H129.048V13.6899H130.746V9.3055H132.536L136.903 13.6899H139.208L134.022 8.47007L139.268 3.19116ZM114.156 13.6891H116.038L111.336 3.19116H109.395L104.694 13.6899H106.574L107.605 11.4232H113.126L114.156 13.6899V13.6891ZM108.364 9.75235L110.365 5.33883L112.367 9.75235H108.364Z" fill="#D7D7D7"/>
<path d="M54.9252 10.6477C54.9252 10.2327 54.839 9.82222 54.6718 9.44223C54.5047 9.06223 54.2604 8.721 53.9543 8.44012C54.5302 7.87345 54.9252 7.09793 54.9252 6.23336C54.9226 5.42464 54.5985 4.65002 54.0241 4.07961C53.4497 3.5092 52.6719 3.18966 51.8616 3.19117H45.6145V13.719H51.8616C53.5601 13.6899 54.9252 12.3177 54.9252 10.6477ZM47.3429 4.89198H51.8316C52.59 4.89198 53.1959 5.48779 53.1959 6.23336C53.1959 6.97893 52.59 7.57555 51.8316 7.57555H47.3429V4.89117V4.89198ZM51.8316 12.019H47.3429V9.3055H51.8616C52.62 9.3055 53.2267 9.93126 53.2267 10.6477C53.1959 11.3925 52.59 12.019 51.8316 12.019Z" fill="#D7D7D7"/>
<path d="M125.196 3.22111V7.6055H118.979V3.22111H117.25V13.6599H118.979V9.30469H125.196V13.6599H126.925V3.22111H125.196ZM104.087 10.6477C104.087 8.97683 102.692 7.6055 100.994 7.6055H96.5052V4.89116H103.057V3.19116H94.7767V13.719H100.994C102.692 13.6899 104.087 12.3177 104.087 10.6477ZM100.994 12.019H96.5052V9.3055H100.994C101.752 9.3055 102.359 9.93126 102.359 10.6477C102.359 11.3924 101.752 12.019 100.994 12.019Z" fill="#D7D7D7"/>
</svg>
