<svg width="83" height="17" viewBox="0 0 83 17" fill="none" xmlns="http://www.w3.org/2000/svg">
<path fill-rule="evenodd" clip-rule="evenodd" d="M80.9479 0.152579C81.274 0.152579 81.5935 0.236942 81.9049 0.406572C82.2121 0.572878 82.4648 0.826294 82.632 1.1358C82.8053 1.45127 82.8925 1.78111 82.8925 2.12441C82.8925 2.46367 82.807 2.79036 82.6356 3.10314C82.4697 3.41111 82.2201 3.66448 81.9165 3.83327C81.6212 4.00333 81.2875 4.093 80.9479 4.09355C80.6083 4.09292 80.2746 4.00325 79.9794 3.83327C79.6752 3.66455 79.4251 3.41121 79.2585 3.10314C79.0903 2.80503 79.0014 2.46777 79.0006 2.12441C79.0006 1.78111 79.0879 1.45127 79.262 1.1358C79.43 0.826088 79.6834 0.572676 79.9913 0.406572C80.2841 0.242068 80.6131 0.154731 80.9479 0.152579ZM80.9479 0.478822C80.6745 0.478822 80.4087 0.550174 80.1499 0.691981C79.8912 0.833787 79.6887 1.03707 79.5425 1.30005C79.3963 1.56391 79.3236 1.83855 79.3236 2.12441C79.3236 2.40757 79.3954 2.67952 79.539 2.9398C79.6816 3.20008 79.8823 3.40336 80.1402 3.54876C80.3862 3.69076 80.6643 3.76589 80.9475 3.76685C81.2306 3.76579 81.5087 3.69066 81.7547 3.54876C82.0079 3.40785 82.2161 3.19656 82.3546 2.9398C82.4973 2.67952 82.5682 2.40757 82.5682 2.12441C82.5682 1.8381 82.4964 1.56346 82.3511 1.30005C82.2058 1.03707 82.0033 0.833787 81.7437 0.691981C81.484 0.550174 81.2191 0.478822 80.9479 0.478822ZM80.0946 3.21309V1.09317H80.8128C81.0596 1.09317 81.2377 1.11202 81.3476 1.15106C81.4574 1.1901 81.5447 1.25876 81.6107 1.35614C81.6754 1.45442 81.7087 1.55763 81.7087 1.66713C81.7087 1.8224 81.6542 1.95702 81.5452 2.07146C81.4353 2.18679 81.2908 2.25051 81.1101 2.26532C81.1845 2.29628 81.2443 2.33353 81.2882 2.37751C81.3719 2.46142 81.4752 2.60143 81.5979 2.79844L81.8531 3.21309H81.4402L81.2541 2.87877C81.1079 2.61669 80.9909 2.452 80.9009 2.38603C80.8394 2.33712 80.7485 2.31288 80.6302 2.31288H80.4322V3.21309H80.0946ZM80.4322 2.0203H80.8425C81.0379 2.0203 81.1712 1.98978 81.243 1.93099C81.2777 1.90293 81.3054 1.86706 81.324 1.82625C81.3426 1.78543 81.3516 1.74078 81.3502 1.69585C81.3505 1.63568 81.3324 1.57691 81.2984 1.52756C81.2626 1.47734 81.213 1.43894 81.1557 1.41717C81.0941 1.39204 80.9816 1.38037 80.8154 1.38037H80.4322V2.0203ZM43.4343 0.0228876H43.499V4.55352H38.9797V0.0228876H43.4343ZM23.7657 9.60381L34.2181 10.2603C34.6527 10.2603 35.0081 10.6207 35.0081 11.0605C35.0081 11.5003 34.6527 11.8606 34.2181 11.8606H19.3217V5.96306C19.7794 7.78411 21.3549 9.27353 23.7657 9.60381ZM19.3217 16.4168H34.5508C36.7706 16.4168 38.6346 14.7946 39.0453 12.663C39.4077 14.7874 41.2425 16.4168 43.4347 16.4168H53.1649C55.3386 16.4168 57.1619 14.8139 57.5447 12.7146V16.4168H73.1455C75.6639 16.4168 77.7242 14.3301 77.7242 11.7785V11.122C77.7242 8.57123 75.6639 6.48452 73.1455 6.48452L72.2895 6.44637C67.4357 6.23007 62.5965 5.98236 57.7489 5.72881C58.1264 7.65532 59.7316 9.25917 62.2452 9.60381L72.8123 10.2603C73.0217 10.2609 73.2224 10.3454 73.3706 10.4953C73.5188 10.6452 73.6024 10.8484 73.6032 11.0605C73.6024 11.2726 73.5188 11.4758 73.3706 11.6257C73.2224 11.7756 73.0217 11.86 72.8123 11.8606H57.6191V5.72208L53.1003 5.48603V10.7365C53.0993 11.0905 52.9601 11.4297 52.7129 11.6801C52.4657 11.9304 52.1308 12.0715 51.7812 12.0724H44.8185C44.4689 12.0716 44.1339 11.9306 43.8867 11.6802C43.6395 11.4299 43.5003 11.0905 43.4994 10.7365V4.98433L38.9797 4.74828V9.95294C38.4631 7.98425 36.6687 6.56484 34.5508 6.56484L14.6469 5.24685V16.4173H19.3217V16.4168ZM38.2615 4.55576V0H23.7657C21.6257 0 19.8171 1.50647 19.3217 3.52453V0.0224391H10.6691L7.72044 4.55352H19.1883L38.2615 4.55576ZM12.7382 5.13466L5.59106 16.4168H0L7.54012 4.83085L12.7382 5.13466ZM77.7237 4.55576V0H62.2447C59.7542 0 57.7121 2.04139 57.667 4.55352L77.7237 4.55576ZM53.0998 4.55352V0.0228876H57.6187V4.55352H53.0998Z" fill="#D7D7D7"/>
</svg>
