<svg width="95" height="18" viewBox="0 0 95 18" fill="none" xmlns="http://www.w3.org/2000/svg">
<path fill-rule="evenodd" clip-rule="evenodd" d="M12.6334 14.0962V16.1249H0V2.1728H2.27437V14.0962H12.6334ZM10.8649 7.24648L13.391 2.42607H10.991L9.09597 7.24648H10.8649ZM31.5194 4.463C30.7002 3.16854 29.5038 2.08037 28.0949 1.33893C26.6859 0.596971 25.0644 0.20174 23.4434 0.20174C21.8224 0.20174 20.2004 0.596971 18.7919 1.33893C17.383 2.08037 16.186 3.16854 15.3669 4.463C14.5478 5.75695 14.1054 7.25771 14.1054 8.75847C14.1054 10.2587 14.5478 11.7595 15.3669 13.0534C16.186 14.3479 17.3825 15.4361 18.7919 16.1775C20.2009 16.9195 21.8224 17.3147 23.4434 17.3147C25.0644 17.3147 26.6859 16.92 28.0949 16.1775C29.5038 15.4361 30.7002 14.3479 31.5194 13.0534C32.339 11.7595 32.7809 10.2582 32.7809 8.75847C32.7809 7.25822 32.339 5.75746 31.5194 4.463ZM29.5536 12.1751C28.9425 13.1903 28.0481 14.0466 26.9925 14.6313C25.9369 15.2155 24.7207 15.527 23.5039 15.527C22.2871 15.527 21.0709 15.2155 20.0153 14.6313C18.9602 14.0466 18.0658 13.1908 17.4542 12.1751C16.8425 11.1595 16.514 9.98502 16.514 8.81056C16.514 7.63558 16.8425 6.46112 17.4542 5.44597C18.0658 4.43083 18.9597 3.57449 20.0153 2.99032C21.0709 2.40565 22.2876 2.09416 23.5039 2.09416C24.7202 2.09416 25.9369 2.40565 26.9925 2.99032C28.0481 3.57449 28.942 4.43032 29.5536 5.44597C30.1655 6.46097 30.4906 7.62408 30.4943 8.81056C30.4905 9.99701 30.1653 11.1601 29.5536 12.1751ZM48.64 8.18962C48.2286 9.09856 47.4507 9.624 46.842 9.94162C46.2334 10.2597 45.7946 10.37 45.3527 10.3542L49.7744 16.1254H47.2478L42.9716 10.5447H37.3937V16.1254H35.1198V2.1728H44.2153C45.1346 2.1728 46.0671 2.35458 46.8898 2.81926C47.7125 3.28394 48.4244 3.99015 48.759 4.98947C49.093 5.98827 49.0503 7.28069 48.64 8.18962ZM46.0961 8.09414C46.5751 7.68767 46.8588 7.01925 46.8339 6.35644C46.8095 5.69312 46.4765 5.03644 46.001 4.63559C45.5251 4.23526 44.917 4.20206 44.3419 4.20206H37.3937V8.5149H44.3419C44.9561 8.5149 45.6171 8.50111 46.0961 8.09414ZM61.7757 8.13447V10.0366H54.0694V14.0962H64.4284V16.1249H51.795V2.1728H64.4284V4.20206H54.0694V8.13447H61.7757ZM61.9018 0.0158691H58.4905L57.1014 1.79186L61.9018 0.0158691ZM68.8826 12.5734L67.0811 16.1249H64.8077L71.8815 2.17229H74.1559L81.2307 16.1249H78.9563L77.1558 12.5734H68.8826ZM73.0184 4.415L69.7821 10.798H76.2548L73.0184 4.415ZM95 14.0962V16.1249H82.3676V2.1728H84.641V14.0962H95Z" fill="#D7D7D7"/>
</svg>
