<svg width="240" height="44" viewBox="0 0 240 44" fill="none" xmlns="http://www.w3.org/2000/svg">
<path d="M23.7584 0.126953V22.1042C23.7584 23.109 23.012 23.8624 22.017 23.8624H19.405C19.2806 23.8624 19.1562 23.988 19.1562 24.1136V42.5746C19.7781 42.5746 20.4 42.7002 21.1464 42.7002C32.8384 42.7002 42.2914 33.1558 42.2914 21.3508C42.2914 10.4249 34.2066 1.3828 23.7584 0.126953ZM23.2608 33.0302C21.7682 33.0302 20.6488 31.7744 20.6488 30.3928C20.6488 28.8858 21.8926 27.7556 23.2608 27.7556C24.7534 27.7556 25.8728 29.0114 25.8728 30.3928C25.9972 31.7744 24.7534 33.0302 23.2608 33.0302ZM29.48 33.0302C27.9874 33.0302 26.868 31.7744 26.868 30.3928C26.868 28.8858 28.1118 27.7556 29.48 27.7556C30.9726 27.7556 32.092 29.0114 32.092 30.3928C32.092 31.7744 30.9726 33.0302 29.48 33.0302ZM35.6992 33.0302C34.2066 33.0302 33.087 31.7744 33.087 30.3928C33.087 28.8858 34.331 27.7556 35.6992 27.7556C37.1918 27.7556 38.3112 29.0114 38.3112 30.3928C38.3112 31.7744 37.1918 33.0302 35.6992 33.0302Z" fill="#D7D7D7"/>
<path d="M21.1452 0C9.45316 0 0 9.5444 0 21.3494C0 31.6472 7.08986 40.187 16.6674 42.1962V22.982C16.6674 22.1028 17.4137 21.3494 18.2844 21.2238H20.8964C21.0208 21.2238 21.1452 21.0982 21.1452 20.9726V0ZM17.0406 17.5818C15.548 17.5818 14.4285 16.3259 14.4285 14.9445C14.4285 13.4375 15.6723 12.3073 17.0406 12.3073C18.5332 12.3073 19.6526 13.5631 19.6526 14.9445C19.6526 16.3259 18.5332 17.5818 17.0406 17.5818ZM232.846 11.6793V19.7167H222.15V11.6793H216.8V33.0286H222.15V24.3634H232.846V33.0286H238.07V11.6793H232.846ZM144.783 14.0654C143.912 12.1817 142.171 11.177 140.429 11.177C138.688 11.177 136.946 12.1817 136.076 14.0654L127.493 33.0286H133.091L134.956 28.5076H145.902L147.768 33.0286H153.365L144.783 14.0654ZM136.698 24.2378L139.932 16.4515C140.056 16.2004 140.18 16.2004 140.305 16.2004C140.429 16.2004 140.678 16.2004 140.678 16.4515L143.912 24.2378H136.698ZM81.8444 7.78622C79.3568 7.78622 77.7398 9.16764 76.6204 11.8049L69.7792 27.8796L62.9382 11.8049C61.8186 9.16764 60.2016 7.78622 57.714 7.78622C55.3508 7.78622 52.9874 9.41882 52.9874 13.0608V32.903H58.2116V13.6887L65.177 29.6378C66.0478 31.8984 67.6648 33.2798 69.7792 33.2798C72.0182 33.2798 73.5108 31.8984 74.3814 29.6378L81.347 13.6887V33.0286H86.571V13.1863C86.571 9.5444 84.2078 7.78622 81.8444 7.78622ZM95.8998 28.5076C95.651 28.5076 95.4022 28.2564 95.4022 28.0052V24.2378H108.587V19.8423H95.4022V16.5771C95.4022 16.3259 95.651 16.0748 95.8998 16.0748H108.96V11.5537H93.2878C91.422 11.5537 90.1782 13.0608 90.1782 14.6934V29.6378C90.1782 31.2704 91.5464 32.7774 93.2878 32.7774H108.96V28.2564H95.8998V28.5076ZM117.791 33.0286V16.7027C117.791 16.4515 118.04 16.2004 118.289 16.2004H131.349V11.6793H115.677C113.811 11.6793 112.567 13.1863 112.567 14.8189V32.903H117.791V33.0286ZM213.318 22.354C213.318 14.9445 210.084 11.4282 202.124 11.4282H200.258C192.297 11.4282 189.063 14.9445 189.063 22.354C189.063 29.6378 192.297 33.2798 200.258 33.2798H202C210.084 33.1542 213.318 29.6378 213.318 22.354ZM202 28.7588H200.258C195.904 28.7588 194.163 26.7494 194.163 22.354C194.163 18.0841 195.655 15.9492 200.258 15.9492H202C206.476 15.9492 208.094 18.0841 208.094 22.354C208.094 26.7494 206.476 28.7588 202 28.7588ZM174.386 8.28856H163.938C156.101 8.28856 152.992 12.3073 152.992 19.2144C152.992 20.3446 153.116 21.3494 153.241 22.2284C154.111 27.1262 156.972 30.1402 164.311 30.1402H166.674V32.903H171.898V30.1402H174.137C181.476 30.1402 184.337 27.1262 185.207 22.2284C185.332 21.3494 185.456 20.3446 185.456 19.2144C185.332 12.3073 182.098 8.28856 174.386 8.28856ZM166.425 25.7448H164.062C160.455 25.7448 159.211 24.3634 158.465 22.2284C158.216 21.4748 158.216 20.3446 158.216 19.2144C158.216 14.6933 160.331 12.8096 163.316 12.8096H166.55V25.7448H166.425ZM179.859 22.354C179.112 24.489 177.744 25.8704 174.262 25.8704H171.898V12.8096H175.132C178.117 12.8096 180.232 14.6933 180.232 19.2144C180.108 20.4702 180.108 21.4748 179.859 22.354Z" fill="#D7D7D7"/>
</svg>
