<svg width="94" height="18" viewBox="0 0 94 18" fill="none" xmlns="http://www.w3.org/2000/svg">
<path d="M9.95417 8.2463L9.69629 8.14402L9.9026 7.93946C10.5215 7.42806 11.3983 6.35413 11.3983 4.25741C11.3983 1.64929 9.43841 0.0639648 6.18912 0.0639648H0V17.5026H6.34385C10.2121 17.5026 12.3782 15.5593 12.3782 12.1329C12.4298 10.4964 11.4499 8.96225 9.95417 8.2463ZM7.94271 4.87109C7.94271 5.7916 7.68483 6.40527 7.16907 6.66097C6.91119 6.81439 6.60173 6.86553 6.29227 6.86553H3.45559V2.67208H6.34385C7.42695 2.67208 7.94271 3.54146 7.94271 4.87109ZM3.45559 14.8433V9.62707H6.39543C8.14901 9.62707 8.97423 10.5987 8.97423 12.2863C8.97423 13.9739 8.30374 14.741 6.80803 14.8433H3.45559Z" fill="#D7D7D7"/>
<path d="M45.7994 0.370605V3.081H48.3266V11.6724C48.3266 13.6157 47.9656 14.6385 46.0573 14.6385C45.3868 14.6385 44.3037 14.5363 44.3037 14.5363V17.4512C44.871 17.6046 45.49 17.6558 46.0573 17.7069C50.3897 17.7069 51.7822 15.559 51.7822 11.4679C51.7822 11.4679 51.7822 2.92758 51.7822 0.421745L45.7994 0.370605Z" fill="#D7D7D7"/>
<path d="M77.9827 8.80855C77.4154 7.83691 73.0314 0.370605 72.722 0.370605H69.8337V17.5022H73.1861V6.66071C73.9082 7.88805 77.9827 14.485 77.9827 14.485C77.9827 14.485 81.8509 7.93919 82.5729 6.71185V17.5022H85.9254V0.370605H82.8824C82.934 0.370605 78.3437 8.14375 77.9827 8.80855Z" fill="#D7D7D7"/>
<path d="M93.0946 0.370605H89.639V17.5022H93.0946V0.370605Z" fill="#D7D7D7"/>
<path d="M41.4154 7.4278C41.6733 6.30274 41.6733 5.17768 41.467 4.05262C40.8481 1.49567 38.5272 0.370605 36.2579 0.370605H30.0172V17.4511H33.4212V11.1098H35.7937L35.8968 11.3655L38.5788 17.5022H42.5501C42.5501 17.5022 39.1977 10.8541 38.9914 10.445C40.1776 9.88247 41.106 8.80855 41.4154 7.4278ZM33.4212 3.02984H35.8968C37.4441 3.02984 38.3209 3.95034 38.3209 5.68907C38.3209 7.4278 37.4441 8.3483 35.8968 8.3483H33.4212V3.02984Z" fill="#D7D7D7"/>
<path d="M60.6017 0.0126953C56.8882 0.0126953 54.7736 1.95597 54.7736 5.27998V12.5928C54.7736 15.9168 56.8882 17.8601 60.6017 17.8601C64.3152 17.8601 66.4298 15.9168 66.4298 12.5928V5.27998C66.4298 1.95597 64.3152 0.0126953 60.6017 0.0126953ZM58.1776 5.17771C58.1776 3.69468 58.9513 2.97874 60.6017 2.97874C62.2521 2.97874 63.0258 3.69468 63.0258 5.17771V12.7462C63.0258 14.2293 62.2521 14.9452 60.6017 14.9452C58.9513 14.9452 58.1776 14.2293 58.1776 12.7462V5.17771Z" fill="#D7D7D7"/>
<path d="M20.8882 0.0126953C17.1748 0.0126953 15.0602 1.95597 15.0602 5.27998V12.5928C15.0602 15.9168 17.1748 17.8601 20.8882 17.8601C24.6017 17.8601 26.7163 15.9168 26.7163 12.5928V5.27998C26.7163 1.95597 24.6017 0.0126953 20.8882 0.0126953ZM18.4642 5.17771C18.4642 3.69468 19.2378 2.97874 20.8882 2.97874C22.5387 2.97874 23.3123 3.69468 23.3123 5.17771V12.7462C23.3123 14.2293 22.5387 14.9452 20.8882 14.9452C19.2378 14.9452 18.4642 14.2293 18.4642 12.7462V5.17771Z" fill="#D7D7D7"/>
</svg>
