<svg width="55" height="54" viewBox="0 0 55 54" fill="none" xmlns="http://www.w3.org/2000/svg">
<path d="M7.92982 46.1194C10.4406 48.609 13.2405 50.5433 16.4919 51.8866C19.8517 53.2836 23.3921 54 27.0048 54C30.6716 54 34.212 53.2657 37.5176 51.8866C40.751 50.5612 43.5689 48.609 46.1339 46.1194C48.5724 43.6299 50.5413 40.7284 51.878 37.5045C53.287 34.1731 54.0095 30.6627 54.0095 27.009C54.0095 23.3194 53.2689 19.791 51.878 16.4597C50.5413 13.1821 48.5724 10.3343 46.1339 7.84478C43.5689 5.39104 40.7691 3.45672 37.5176 2.11343C34.2301 0.662687 30.6716 0 27.0048 0C23.3921 0 19.8517 0.662687 16.4919 2.11343C13.2585 3.43881 10.4406 5.39105 7.92982 7.86269C5.43708 10.3701 3.54042 13.2179 2.13148 16.4955C0.722535 19.8269 0 23.3373 0 27.0448C0 30.6806 0.740599 34.191 2.13148 37.5403C3.54042 40.7284 5.43708 43.6478 7.92982 46.1194ZM3.46817 17.0866C4.75067 13.9881 6.59313 11.3194 8.90525 8.97313C11.2896 6.60895 13.9811 4.72836 17.0338 3.45672C20.2129 2.13134 23.5185 1.45075 27.0048 1.45075C30.491 1.45075 33.8508 2.11343 36.9757 3.45672C40.0285 4.72836 42.7741 6.60895 45.1043 8.97313C47.4344 11.3373 49.2588 14.006 50.5413 17.0866C51.878 20.2388 52.6186 23.5164 52.6186 27.0269C52.6186 30.4836 51.878 33.7612 50.5413 36.9672C49.2588 39.994 47.4164 42.7164 45.1043 45.0806C42.7741 47.4448 40.0285 49.2 36.9757 50.5433C33.8508 51.8687 30.491 52.5493 27.0048 52.5493C23.5185 52.5493 20.2129 51.8866 17.0338 50.5433C13.9811 49.2179 11.2896 47.4448 8.90525 45.0806C6.57507 42.7164 4.75067 39.994 3.46817 36.9672C2.13148 33.7612 1.44507 30.4836 1.44507 27.0269C1.46313 23.5164 2.13148 20.2388 3.46817 17.0866Z" fill="#D7D7D7"/>
<path d="M23.6992 11.6419L15.8055 9.58222L15.7513 9.94043L22.2902 11.6957V12.1255L15.1371 11.3374L15.0107 11.6957L22.2902 12.4837V12.8419L14.4688 13.2718L14.2881 13.63L22.2902 13.2001V13.63L13.1321 15.5822L13.1863 15.9404L22.2902 14.0061V14.4897H22.5973L13.9811 17.821L13.9269 18.2509L23.645 14.4897H24.1327L15.4442 19.4688L15.6971 19.7195L24.8733 14.4897H25.1262C22.2541 16.8539 19.3278 19.1643 16.4377 21.5285V22.0121L25.7223 14.5613L19.3639 21.5285L19.5446 21.8867L25.7223 15.0986V15.224L20.5381 23.2121L20.7187 23.5703L25.7403 15.8688V16.4061L21.4051 26.4001L21.5857 26.83L25.7403 17.3195V18.7703L23.2295 28.4598L23.5366 28.5135L25.7403 20.2031V21.9583H26.4087L25.7403 28.9255L26.1016 28.9792L26.7699 21.9404H27.7995L28.3414 28.9792H28.7027L28.1608 21.9404H28.9014V19.9344L31.1051 28.6568L31.4664 28.6031L28.9014 18.4837V16.9613L32.9295 26.3643L32.9837 25.7553L28.8833 15.9942V15.6359L33.8869 23.6419L34.0675 23.1583L28.8653 14.9733V14.8479L34.9707 21.7613L35.1513 21.4031L29.3891 14.9016L38.4931 22.3524L38.5473 21.9225L29.4975 14.4718H29.8588L39.2156 19.9882L39.2698 19.63L30.5271 14.4718H31.0148L40.2452 18.1076L40.3717 17.7494L32.0625 14.4718H32.2431V14.1136L40.6065 15.9942L40.7329 15.6359L32.2431 13.7016V13.3434L40.4259 13.827L40.2994 13.4688L32.2251 12.9852V12.627L39.5046 11.8927L39.3782 11.5345L32.2251 12.2688V11.821L38.8905 9.94043L39.0169 9.51058L31.5929 11.6419H30.2562L40.7149 7.09267L40.3536 6.84193L29.3891 11.6419L38.4931 5.7673L38.1318 5.5882L29.082 11.4091L36.488 4.80014L36.1268 4.67476L28.9195 11.033L34.6456 4.11954L34.2843 3.94044L28.9014 10.424V10.2449L32.7489 3.58223L32.3876 3.45685L28.9014 9.51058V8.97327L31.0329 3.20611L30.6716 3.08074L28.8472 8.13148H28.3595L29.3891 2.97327L29.0279 2.91954L27.9982 8.13148H27.5647V2.8479H27.2035V8.11357H26.7699L25.921 2.90163H25.5597L26.4087 8.11357H25.921L24.2049 3.027L23.8437 3.08074L25.7403 8.59715V9.33147L22.507 3.27775L22.0735 3.40312L25.7403 10.0658V10.6031L20.5923 3.76133L20.231 3.81506L25.361 10.7285L18.6414 4.37029L18.2801 4.54939L25.5958 11.4628L16.4919 5.33745C16.3654 5.39118 16.239 5.46282 16.0583 5.51655L25.2345 11.6419H24.8733L24.9275 11.5882L14.0533 6.73446L13.692 6.98521L24.2049 11.6419H23.6992ZM25.7223 10.9792V11.033L25.6681 10.9792H25.7223ZM26.4629 12.3583V8.84789H28.1789V12.3583H31.5929V13.7554H28.1789V21.2777H26.4629V13.7554H23.0308V12.3583H26.4629Z" fill="#D7D7D7"/>
<path d="M29.8047 45.2785L29.7144 45.1704C29.7144 45.2245 29.7144 45.2785 29.7324 45.3325L29.7866 45.4046L29.8047 45.2785Z" fill="#D7D7D7"/>
<path d="M32.8391 43.4509C32.8391 43.469 32.8391 43.5051 32.821 43.5232L32.8572 43.5412L32.8391 43.4509Z" fill="#D7D7D7"/>
<path d="M33.1645 44.5085L32.6587 44.3108C32.6587 44.3467 32.6406 44.3827 32.6226 44.4007L33.1645 44.6163V44.5085Z" fill="#D7D7D7"/>
<path d="M43.6953 26.6689L43.7495 26.7226L50.0536 31.8279L50.1078 31.4518L43.9482 26.436L43.6953 26.6689Z" fill="#D7D7D7"/>
<path d="M32.6225 45.511L33.1282 45.8165C33.1282 45.7806 33.1282 45.7446 33.1282 45.7087L32.5863 45.4032C32.6044 45.4212 32.6225 45.4571 32.6225 45.511Z" fill="#D7D7D7"/>
<path d="M39.8478 33.1523L45.0501 41.3911L45.2307 41.1045L40.0285 32.7404L39.8478 33.1523Z" fill="#D7D7D7"/>
<path d="M41.1844 28.9075L48.1569 36.7883L48.3375 36.4301L41.5637 28.7284L41.1844 28.9075Z" fill="#D7D7D7"/>
<path d="M37.2106 36.6808L40.8232 45.1524L41.1303 44.9196L37.5899 36.4301L37.2106 36.6808Z" fill="#D7D7D7"/>
<path d="M21.2967 43.3075L21.2606 43.3978H21.2967V43.3075Z" fill="#D7D7D7"/>
<path d="M21.4232 44.2747V44.2567L20.9896 44.4187L20.9716 44.5446L21.4593 44.3467L21.4232 44.2747Z" fill="#D7D7D7"/>
<path d="M20.6464 45.7265L20.6284 45.8522L21.2245 45.493L21.2425 45.3853L20.6464 45.7265Z" fill="#D7D7D7"/>
<path d="M21.9289 44.9912L21.7303 45.099C21.7303 45.117 21.7483 45.135 21.7483 45.153V45.2069L21.9289 45.099V44.9912Z" fill="#D7D7D7"/>
<path d="M10.4948 26.7228L10.2058 26.5437L4.02808 31.5236L4.15452 31.8818L10.4948 26.7228Z" fill="#D7D7D7"/>
<path d="M24.2231 45.3324L24.3134 45.2245C24.3134 45.1706 24.3134 45.1166 24.3134 45.0807L24.205 45.2065L24.2231 45.3324Z" fill="#D7D7D7"/>
<path d="M12.6443 28.9792L5.85254 36.4837L5.97898 36.7882L13.0056 29.0867L12.6443 28.9792Z" fill="#D7D7D7"/>
<path d="M14.5952 32.364L8.90527 41.1045L9.15816 41.391L14.6675 32.9192L14.5952 32.364Z" fill="#D7D7D7"/>
<path d="M13.2585 45.0988L13.5656 45.278L17.4131 36.4301L17.106 36.3047L13.2585 45.0988Z" fill="#D7D7D7"/>
<path d="M6.71953 20.1316C6.84598 20.3823 7.0808 20.6689 7.51432 20.9734C7.87559 21.2241 8.12847 21.4569 8.18266 21.636C9.03164 24.3047 9.77224 25.9345 10.3864 26.4898C10.5128 26.6151 10.7476 26.6689 11.127 26.7942C11.3798 26.9196 11.5605 27.0987 11.7953 27.2778C12.4095 28.1196 13.3307 28.6748 14.4867 28.9077L15.6428 29.0868C16.0041 29.2121 16.1847 29.2659 16.2569 29.3913C16.5098 29.8211 17.7201 30.3047 19.8696 30.842L20.7186 31.8092C19.8696 31.2002 18.7678 30.7166 17.4853 30.4659C16.9975 30.2868 16.4376 30.233 15.8415 30.1614C14.8661 30.1614 14.4325 30.3405 14.5048 30.6987C14.8661 32.5256 15.426 33.8509 16.0944 34.8897C16.9434 36.1077 18.1717 36.8957 19.707 37.2539L20.8089 37.5047C21.2966 37.5584 21.6037 37.7554 21.6579 37.9345C21.965 38.6688 21.6579 40.6032 20.7367 43.8808L19.8877 47.2121C19.5806 48.3046 19.5264 48.9673 19.5806 49.1464L20.8631 50.1852L22.2721 51.027C22.8862 51.5106 23.8616 51.8688 25.0177 52.1733C25.5596 52.227 25.8667 52.227 25.9389 52.0479C26.3002 52.227 26.4808 52.1017 26.6073 51.8688C27.402 52.0479 29.66 51.3852 33.3268 49.9345L34.3745 49.5763C34.6274 49.5763 34.8622 49.5226 34.9887 49.2181C35.1693 48.7882 34.9887 47.4629 34.4468 45.3315L33.8326 43.8808C33.8326 42.6091 33.5978 41.2659 33.092 39.8868C33.0197 39.7076 33.0197 39.4032 33.0197 39.0987C33.1462 38.6151 33.0197 38.0599 32.8391 37.5226C34.9164 37.8808 36.7589 36.9853 38.4026 34.8002C39.0168 34.0121 39.5045 33.1703 39.8116 32.2569C40.1187 31.5226 40.2451 30.9853 40.1728 30.6808C40.0464 30.3763 39.7393 30.1972 39.1252 30.1972C38.5833 30.1435 37.9691 30.1972 37.2285 30.3763C35.4041 30.8062 34.1758 31.4689 33.5617 32.3823L32.6404 33.4748C32.6404 33.3495 32.6404 33.1166 32.6404 32.7405C32.6946 32.5077 33.9229 31.648 36.3795 30.1972L36.5602 30.0718L37.7162 29.7136C38.3304 29.4629 38.6916 29.2838 38.7639 29.2301C39.5045 29.2301 40.4799 28.8002 41.6902 28.0121C42.792 27.2778 43.5326 26.6868 43.8216 26.0778L44.2552 25.5942C45.0499 24.8062 45.5918 24.0181 45.7183 23.2301C45.7725 23.051 45.8447 22.8002 46.0796 22.4957C46.206 22.245 46.3324 22.0122 46.3324 21.7077C46.3324 21.4569 46.5131 21.0987 46.8743 20.5614L47.9762 18.8062C48.1568 16.5674 48.2291 14.9913 48.1568 14.1316C48.1027 13.2181 47.7956 12.8599 47.3621 13.1644C47.055 13.3435 46.6937 13.8987 46.5131 14.7943C46.2602 15.6361 46.1518 16.4958 46.206 17.4092L46.0796 18.0719C45.646 17.8211 45.4112 17.1584 45.2848 16.1375C45.4112 15.6002 45.4654 14.8122 45.4654 13.8987C45.4112 12.6271 45.2125 11.6599 44.7971 11.051C44.4358 10.5674 44.2552 9.90472 44.1287 9.11666L43.8758 8.50771L43.2075 8.45398C42.9546 8.63308 42.774 8.99129 42.774 9.54651C42.774 9.90472 42.8282 10.3883 43.0269 11.0689L43.3881 13.254C43.3339 13.3077 43.2617 13.3077 43.2075 13.254C43.0269 13.2002 42.774 12.9495 42.5933 12.645C42.4127 12.2868 42.2863 11.9823 42.2863 11.8032C42.2321 11.2659 41.925 10.657 41.365 10.1017C40.7509 9.36741 40.1367 9.13458 39.5948 9.31368C39.1071 9.43905 39.1071 9.74353 39.4142 10.2271L40.209 11.445C40.4438 11.9286 40.6425 12.4122 40.6425 12.842C40.7689 13.9883 41.4373 15.0808 42.774 16.245L43.1352 16.6032C44.2913 19.2181 44.4719 21.2062 43.6771 22.6569C43.4242 20.9554 43.0088 19.451 42.4488 18.1793L41.9069 16.7286C41.654 16.245 41.4734 16.1196 41.2386 16.2987C40.7509 17.1405 40.6786 18.1793 40.9857 19.2719L41.347 20.6689C41.4734 21.2062 41.5276 21.7614 41.5276 22.245L41.2205 24.0719C40.9134 25.2898 40.5522 25.8271 40.0645 25.8271C40.2451 25.2181 40.3715 24.0719 40.4257 22.4957L40.5522 20.4898L40.4257 19.8808C40.3715 19.5763 40.2993 19.5226 40.1186 19.7555C39.8116 19.7555 39.5587 20.0062 39.2697 20.4898C39.0168 20.848 38.8362 21.5286 38.6555 22.3704L38.1678 24.5554C37.8065 26.3823 36.9395 27.2778 35.7293 27.4032L35.8557 25.648C35.8557 24.9136 35.9099 24.3763 35.9821 23.9465L36.235 22.6748C36.3615 21.8868 36.4157 21.4032 36.3615 21.2778H35.928L35.5667 21.636C35.5667 21.636 35.5125 21.6898 35.3861 21.7614C34.5371 23.0331 34.0313 24.6092 33.9229 26.3644C33.2546 28.8539 32.3875 29.8748 31.5386 29.5166C31.5386 29.4629 31.4844 29.3375 31.3579 29.3375C31.105 29.2838 30.798 29.2838 30.3825 29.3375H30.2561L30.0032 29.3913L28.2871 29.642C28.1065 29.5166 27.6188 29.4629 26.7518 29.4629L25.108 29.5883C24.6745 29.2301 24.1868 29.1584 23.6991 29.4629H23.6449C22.1817 29.1047 21.3147 28.1913 21.0076 26.6689L20.7005 24.6629C20.5199 23.9286 20.3393 23.2659 20.0322 22.9077C19.4903 22.0659 18.9845 21.636 18.6955 21.7614C18.5149 21.8151 18.3884 21.9405 18.3884 22.245V22.2987L18.8219 25.2719C18.9845 26.9196 19.111 27.7614 19.129 27.8151C18.2078 27.3316 17.5394 26.848 17.3046 26.2928C16.9975 25.8092 16.7627 24.7166 16.4556 23.0868C16.2028 21.6898 15.8415 20.7226 15.3538 20.1137C15.0467 19.7555 14.6854 19.5584 14.3061 19.5584C14.1797 19.5584 14.1797 19.6838 14.1255 19.7375C14.1255 19.9166 14.1797 20.4002 14.3061 21.1883C14.4867 21.9226 14.559 22.4062 14.4867 22.5853C14.4325 22.639 14.4325 23.1226 14.4867 23.9823L14.6674 26.0957C13.999 25.6659 13.6197 25.1823 13.5655 24.5196V24.3405V24.2868V24.1614C13.3126 23.8032 13.2584 22.7644 13.3126 20.8838C13.3668 19.1286 13.4391 18.2152 13.5655 18.1614C13.7461 17.9823 13.7461 17.4271 13.5113 16.639C13.4571 16.2808 13.2584 16.1017 13.0778 16.0301C12.8972 15.9764 12.6443 16.2092 12.5359 16.7644C12.283 17.4271 12.1746 17.9823 12.1024 18.5196C12.1024 18.8241 11.8495 19.4868 11.434 20.5793L11.127 22.9435C10.4586 21.5465 10.3864 20.042 10.8199 18.4659C11.127 17.3196 11.5605 16.4062 12.1566 15.6719C12.8972 14.8838 13.4391 14.1495 13.7461 13.5584V13.4331C13.7461 13.1823 13.999 12.6987 14.3603 11.9107L15.2093 10.5853C15.3899 10.3346 15.4622 10.1017 15.3899 9.92263C15.3357 9.74353 15.2093 9.56442 15.0286 9.49278C14.4145 9.36741 13.9268 9.74353 13.4391 10.639C13.0778 11.5525 12.6443 12.2152 12.283 12.6987C11.7411 13.4331 11.3618 13.5405 11.1811 12.8241C11.434 12.1614 11.6147 11.3734 11.6147 10.4062C11.6147 9.97636 11.5605 9.67189 11.3618 9.56443C11.1089 9.51069 10.8741 9.56442 10.567 9.8689L10.4405 10.048C9.6458 11.9823 9.21228 13.451 9.28453 14.4181L9.46516 15.2062C9.51935 15.5107 9.51935 15.7435 9.51935 15.8689C9.08583 17.6958 8.77876 18.5375 8.72457 18.5375C8.41749 18.1793 8.23685 17.445 8.29104 16.4778L7.74914 14.7764C7.44207 13.9883 7.13499 13.6301 6.77372 13.5584C6.41246 13.5047 6.28601 13.6838 6.28601 14.042C6.28601 15.7972 6.3402 17.248 6.41246 18.5196C6.52084 19.3435 6.64728 19.9346 6.71953 20.1316ZM23.1572 43.8808C23.41 43.9345 23.41 44.9733 22.9765 47.0867C22.7236 45.2241 22.7959 44.1853 23.1572 43.8808ZM22.6875 41.0688L22.7778 40.9793L23.5365 41.1763C23.4823 41.1942 23.4462 41.2121 23.41 41.2479L22.6875 41.0688ZM24.9274 48.3763C24.8732 48.6808 24.8009 48.9136 24.8009 49.1643L24.4938 51.5823C24.1868 51.636 24.0061 51.5285 24.0061 51.0449L24.0603 50.1315C24.0603 49.7733 24.0603 49.4688 24.0061 49.2181C23.8797 48.8599 23.7532 49.1643 23.6449 50.1315L23.5184 51.1703C23.3378 51.2957 23.2113 51.0449 23.0307 50.5614C23.0849 50.6867 23.0849 50.3823 23.2113 49.5942V48.9315L23.4642 48.0181C23.6449 47.4091 23.7171 46.9255 23.6449 46.6211C23.4642 46.1912 23.6449 45.3494 24.0061 44.0778C24.1868 43.9882 24.259 44.3106 24.2951 45.0987L24.4397 44.9196L24.4577 45.0629L24.2951 45.242C24.2951 45.5106 24.3132 45.833 24.3132 46.2091C24.0603 46.7464 24.0603 47.4808 24.259 48.2688L24.3855 48.8778C24.4938 49.1106 24.5119 49.1106 24.4577 48.9136C24.4938 48.8957 24.5842 48.5375 24.6925 47.839L24.8732 45.9584C25.1261 44.9912 25.3609 44.633 25.6138 44.8121L25.4331 48.0181C25.2344 47.9464 25.108 48.0718 24.9274 48.3763ZM24.4938 45.9584L24.5842 45.833H24.6022V45.9584L24.5661 46.03L24.4938 45.9584ZM25.5415 51.636C25.4873 51.636 25.4873 51.7614 25.4873 51.8867H25.1802C25.3067 50.0599 25.4331 49.2181 25.668 49.3972C25.7221 49.8808 25.7221 50.6151 25.7221 51.5823L25.5415 51.636ZM26.4627 51.5285C26.4086 51.5285 26.3363 51.5823 26.2821 51.6539C25.9208 51.4748 25.9208 50.6151 26.1557 49.1643V47.8927C26.0292 46.9793 26.1015 46.3703 26.2099 46.1375C26.7698 46.9076 26.824 48.6808 26.4627 51.5285ZM25.8486 43.827C25.7221 43.4688 25.9028 43.2897 26.3363 43.3972L29.1542 43.4509C29.2806 43.63 29.2806 43.8091 28.9736 43.8808C27.673 44.0599 26.6434 44.0599 25.8486 43.827ZM27.4382 48.7882L27.384 50.4181L27.4382 51.2061C27.384 51.5106 27.3117 51.5643 27.1853 51.4569C27.1311 51.3315 27.0046 50.9733 26.9324 50.3643C26.8782 49.9345 26.9324 49.2181 26.9866 48.1793C27.0408 47.2658 27.0408 46.7285 26.9324 46.5494L26.9866 45.1524C26.9866 44.6151 27.1672 45.2061 27.4743 46.9076C27.5646 47.3375 27.5646 48.0002 27.4382 48.7882ZM29.2084 51.0449L29.0277 51.1703L28.9013 50.8121C28.8471 50.3285 28.7749 49.5942 28.7207 48.7524C28.7207 48.0897 28.6665 47.5345 28.54 47.1763C28.3594 46.3882 28.2872 47.1763 28.4136 49.5405L28.3594 50.8658L28.233 51.3494L27.9981 51.4031L27.8717 51.1524C27.8175 50.9733 27.8175 50.6688 27.8175 50.1136L27.9981 48.6629C28.1246 46.7823 28.1246 45.6897 27.8717 45.4569C27.8717 45.2778 27.9259 45.1524 28.1246 45.1524C28.3052 45.1524 28.3775 45.3315 28.3775 45.636C28.3775 45.9405 28.5039 45.9942 28.6304 45.6897C28.7568 45.439 28.811 45.2599 28.7568 45.1524C28.7568 45.0987 28.7568 45.0987 28.7568 45.0987L28.8832 45.2778C28.9374 45.5285 28.9374 45.8151 28.9374 46.1912C28.8832 46.442 28.9374 47.033 29.1181 47.9464L29.2987 48.9136L29.4251 50.436L29.2084 51.0449ZM30.6715 50.5614L30.4367 50.024L30.0032 47.3554C29.8587 46.4778 29.7683 45.833 29.7322 45.3494L29.4613 45.045L29.4793 44.9196L29.7142 45.1882C29.678 44.7763 29.6961 44.5614 29.7683 44.5076C29.949 44.4539 30.0032 44.7584 30.2019 45.4748L30.9425 50.4539L30.6715 50.5614ZM31.7553 43.6121L31.6289 43.6479C31.5566 43.3256 31.4482 43.039 31.3037 42.842L31.1231 42.645C31.105 42.6091 31.1231 42.5912 31.1953 42.5733L31.4121 42.5554C31.5024 42.4838 31.5386 42.3584 31.5566 42.1435C31.6108 42.036 31.6469 42.233 31.6289 42.7703C31.5927 43.0211 31.6469 43.2897 31.7553 43.6121ZM31.4121 44.6151C31.2315 44.436 31.2315 44.0778 31.4121 43.5226C31.6469 43.7554 31.7192 44.1315 31.4121 44.6151ZM30.6354 41.23L30.527 41.1584L31.087 40.9972L31.1773 41.0688L30.6354 41.23ZM31.6469 48.9852C30.9063 46.9793 30.7257 45.833 31.0328 45.6539C31.5386 45.636 31.7192 46.8002 31.6469 48.9852ZM31.3579 45.5106L31.394 45.242C31.5747 45.0987 31.6831 44.8658 31.7553 44.5793C31.7553 44.4539 31.7734 44.2748 31.7553 44.042C31.8095 44.0599 31.8637 44.0241 31.9721 43.9703L32.1888 43.827C31.7914 42.8957 31.6831 42.1972 32.0443 41.839C32.3333 42.4659 32.4056 43.1106 32.243 43.7912L32.2972 43.7554C32.2972 43.845 32.1708 44.0241 31.954 44.3285C31.8456 44.9375 31.6469 45.3315 31.3579 45.5106ZM33.4352 43.9524L33.9229 45.0987C34.1036 45.4569 34.2842 46.1375 34.4648 47.1046C34.6455 48.1435 34.7177 48.8599 34.5913 49.1106L34.4648 49.236H34.4106L34.1036 48.8778C34.0494 48.627 34.1036 48.2151 34.1036 47.5524L33.9229 47.427L33.67 46.1017C33.4894 45.9763 33.4171 45.7435 33.363 45.4927C33.3088 45.1882 33.1823 45.1882 33.1823 45.3673C33.1643 45.4748 33.1462 45.6002 33.1462 45.7255L33.2907 45.7972V45.9046L33.1462 45.8151C33.1281 46.0121 33.1281 46.2091 33.1281 46.442V47.5882C32.8752 46.9076 32.6946 46.227 32.6224 45.5106L32.0082 45.1524L32.0443 45.0629L32.6043 45.3853C32.5862 45.1345 32.5682 44.8838 32.5682 44.6151C32.5862 44.5435 32.6043 44.4718 32.6404 44.4002L32.4417 44.3285L32.514 44.239L32.6765 44.3106C32.7488 44.042 32.803 43.7912 32.8391 43.5405L32.6224 43.4867V43.3972L32.8391 43.4509L32.8572 43.4867C32.9294 42.9673 32.9114 42.4838 32.7669 42.0897L32.514 41.3017C32.3875 41.0509 32.3875 40.8718 32.3333 40.6927C32.2792 40.2091 32.3875 39.4211 32.6946 38.3285V39.1703C32.6404 39.4748 32.6404 39.7793 32.6946 40.0121C33.1823 41.3912 33.4352 42.7345 33.4352 43.9524ZM6.71953 13.8808C6.97242 13.8808 7.20724 14.3107 7.46013 15.0271L7.94784 16.4778L8.07428 17.6241C8.20073 18.1614 8.38136 18.5375 8.50781 18.7704H8.94133C9.12196 18.5196 9.30259 18.1077 9.55548 17.248L9.91675 15.7972C9.91675 15.6181 9.91675 15.3674 9.86256 15.1346C9.60967 14.4719 9.68192 13.5584 9.91675 12.5913L10.7657 10.1017L11.1992 9.85099C11.2534 9.97636 11.2534 10.1017 11.2534 10.3346C11.2534 10.9435 11.1992 11.4808 11.0005 12.0361L10.7476 12.7704C10.8741 13.3256 11.1089 13.5584 11.416 13.6122C11.9579 13.6659 12.572 13.0032 13.2404 11.6779L14.0893 10.3525C14.3242 9.99427 14.6312 9.81517 14.8299 9.81517C15.0828 9.8689 15.137 10.0659 14.8841 10.245L14.0352 11.7674C13.6016 12.5555 13.3668 13.1644 13.3668 13.3973C13.0597 14.0062 12.572 14.6689 11.9037 15.457C11.2353 16.1913 10.7476 17.2122 10.4405 18.4838C9.95287 20.239 10.1335 21.8868 10.9283 23.3913C10.9824 23.6241 11.1631 23.6957 11.2353 23.5166C11.3618 23.4629 11.416 22.9793 11.5966 22.0659L11.7772 20.6151C12.0301 19.9525 12.2649 19.1644 12.4456 18.3763L12.8791 16.854L13.0597 16.4241C13.1139 16.5495 13.1862 16.7823 13.2404 17.0868C13.2946 17.445 13.2946 17.6958 13.2404 17.8211C13.0597 18.1256 12.9875 19.1465 12.9333 20.9196C12.8791 22.8002 12.9333 23.8928 13.1862 24.3226V24.5017C13.2404 25.3435 13.8003 26.0778 14.8299 26.5614L15.0106 26.6151L15.0648 26.3107L15.0106 25.7733L14.7577 22.8719V22.7465C14.8119 22.6211 14.8119 22.2092 14.7035 21.4748L14.4506 19.8987C15.119 20.0778 15.6789 21.1704 16.0402 23.1047C16.3473 24.8062 16.6543 25.9525 16.8892 26.436C17.2504 27.045 17.8646 27.5823 18.9123 28.1375C18.9665 28.1375 19.0929 28.1375 19.2193 28.0121C19.4 27.7793 19.2193 25.8271 18.7316 22.2629L18.7858 22.0838C18.9665 22.0838 19.2735 22.3883 19.707 23.051C19.9599 23.4092 20.1406 23.9644 20.3212 24.6808C20.6283 26.436 20.8631 27.4748 20.9895 27.833C21.4773 28.8718 22.3262 29.4629 23.6268 29.7674H23.8074L23.8616 29.7136C24.2951 29.4629 24.6022 29.5883 24.9635 29.8927L25.1441 29.642C25.1441 29.7674 25.1441 29.8211 25.1983 29.8211L26.6073 29.7674L27.9439 29.8211C28.1246 30.0718 28.7929 30.0002 30.0754 29.642H30.3283H31.1231L31.2495 29.7674C31.9901 30.1256 32.7127 29.7674 33.3268 28.5495C33.6881 27.9405 33.9952 27.2241 34.2481 26.3644C34.3745 24.6092 34.8622 23.1584 35.657 21.8868L35.9641 21.636L35.6028 23.8211C35.5486 24.251 35.4764 24.8599 35.4764 25.7017C35.4764 26.4898 35.3499 27.1524 35.2957 27.5286L35.657 27.6539L35.5306 27.7077H35.657C36.1989 27.6539 36.6324 27.4569 36.9937 27.2778C37.7885 26.7405 38.3304 25.7017 38.6375 24.1256L38.9987 22.245C39.1252 21.5107 39.36 20.9734 39.5406 20.6151C39.7213 20.2569 39.9019 20.0778 40.1006 20.0778C40.1548 20.6151 40.1548 21.654 40.0464 23.1763C39.92 24.6987 39.7393 25.5942 39.6129 25.8987L39.92 26.0778L39.7935 26.1316H40.0464C40.9676 26.1316 41.636 24.8062 41.8166 22.1913C41.8708 21.7077 41.8166 21.1525 41.6902 20.5614L41.1483 18.6271C41.0941 17.8928 41.1483 17.2301 41.4553 16.6211L42.0695 18.251C42.7378 19.648 43.1714 21.4569 43.352 23.5883C44.201 22.5495 44.508 21.3495 44.4539 20.0778C44.4539 19.039 44.0926 17.839 43.4784 16.3883L42.9185 15.9584C41.6902 14.8659 41.0941 13.7734 40.9676 12.8062C40.9134 12.1973 40.6606 11.5346 40.1728 10.8002L39.5587 9.70771C39.6851 9.45696 40.0464 9.5286 40.787 10.0659C41.4553 10.5495 41.8347 11.1585 41.8889 11.7674C41.9431 12.251 42.1959 12.6808 42.5572 13.1644C42.9185 13.7017 43.2978 13.7734 43.5326 13.5226C43.7133 13.3973 43.7133 13.039 43.6591 12.4838L43.2978 11.0331C43.1714 10.4241 43.1172 9.88681 43.1172 9.51069C43.1172 9.08084 43.1714 8.84801 43.352 8.77637L43.5326 8.72264L43.7133 9.15249C43.8397 9.99427 44.0745 10.7286 44.4539 11.2122C44.7609 11.6958 44.9958 12.4838 44.9958 13.5764C45.0499 14.6152 44.9958 15.457 44.8151 16.1196C44.9958 17.3913 45.3751 18.1793 45.917 18.4301C45.917 18.6092 45.917 18.7346 45.9712 18.7346C46.0976 18.7346 46.1518 18.6092 46.2783 18.3763C46.4047 18.1972 46.4589 17.839 46.5131 17.4092C46.5131 16.7465 46.5673 15.9584 46.766 15.0987C47.0189 14.0599 47.2537 13.5226 47.5608 13.3973C47.7414 13.5226 47.8136 14.4898 47.7414 16.1196L47.5608 18.6629L46.6395 20.1853C46.1518 20.9196 45.8989 21.4032 45.8989 21.7077C45.8989 21.8868 45.7725 22.1375 45.646 22.442L45.339 23.1763C45.1583 23.7853 44.8513 24.3226 44.4177 24.8062L43.4423 25.8987C43.081 26.436 42.3404 27.1166 41.2386 27.833C39.9561 28.5674 39.0348 28.9256 38.4929 28.8002L38.4388 29.1584L38.3846 28.9793C38.2581 29.033 37.951 29.2301 37.4091 29.4092L36.3615 29.7136L36.235 29.839L33.9771 31.1644C32.8752 31.8987 32.2611 32.3823 32.2069 32.7405C32.1527 33.1703 32.2069 33.5286 32.3333 33.6539C32.514 33.9047 32.8211 33.833 33.1823 33.4032L33.7965 32.5614C34.4106 31.648 35.5125 31.039 37.2104 30.7345L38.9265 30.5554C39.4142 30.5554 39.6671 30.6808 39.7213 30.8062C39.7754 31.0569 39.6671 31.5405 39.36 32.2569C38.9987 33.0987 38.511 33.8868 37.951 34.6211C36.3073 36.7345 34.5913 37.5942 32.6946 37.1644L32.6404 36.9853C32.3875 36.6271 32.3333 36.9853 32.3333 38.0778C31.9721 39.1166 31.5386 40.0121 30.9966 40.8002C30.816 41.0509 30.6354 41.0509 30.4367 40.8539L30.0754 40.3703C29.949 40.3703 29.949 40.4241 29.949 40.5494C30.4367 41.4629 30.4909 42.1793 30.2019 42.5554C29.8948 43.039 29.3529 43.039 28.5581 42.6091C28.5039 42.5554 28.5039 42.4838 28.5581 42.43C29.1723 42.3047 29.3529 41.9464 29.2264 41.3375C29.1723 40.6748 28.9194 40.5494 28.6123 40.8539C27.7633 40.9793 26.8963 41.033 26.1737 40.9076C25.9931 40.7285 25.8125 40.7285 25.7402 40.9076L25.4873 41.5703C25.4331 42.0002 25.668 42.3047 26.2279 42.4121V42.7703C24.6383 43.2002 24.0964 42.5912 24.6383 40.8897L24.5119 40.5853L24.259 41.0688C23.5907 41.0151 23.2113 40.3345 23.0307 39.1345C22.7778 38.9554 22.5972 39.0808 22.4888 39.6181C22.4346 39.439 22.4888 40.1017 22.6153 41.6241C22.7056 42.0002 22.7417 42.3047 22.7056 42.5375C22.7598 42.5375 22.8139 42.5196 22.8681 42.5017L22.8862 42.5196C22.6875 42.7166 22.5611 42.9494 22.4527 43.2002L22.2901 43.6838C22.272 43.7375 22.2359 43.7554 22.1998 43.7375L22.1456 43.6838L22.2721 43.0032C22.2359 42.9853 22.1998 42.9315 22.1456 42.8957C22.0914 42.7166 22.0192 42.4659 22.0192 42.1614H21.8385C21.6579 42.5196 21.6579 42.9494 21.8385 43.2539C21.9288 43.433 22.0192 43.6659 22.0553 43.9703C22.0734 43.9703 22.0914 43.9703 22.0914 43.9703C22.1275 44.6509 22.3082 45.1345 22.6153 45.3853L22.6875 45.6897C22.5249 45.6718 22.3804 45.5464 22.2721 45.3136C22.254 45.2778 22.2359 45.2241 22.1998 45.1703C22.2359 45.4569 22.254 45.7435 22.254 46.03C22.3804 47.5524 22.3804 48.9315 22.1998 50.024C21.8385 50.024 21.6579 49.8449 21.7121 49.4867C21.965 47.9643 21.965 46.6927 21.6579 45.7972V45.1703L21.1341 45.4569L20.7367 48.4479C20.6825 48.9852 20.4838 49.2897 20.249 49.2897L19.8154 48.9852C19.7612 48.7345 19.8696 48.2509 20.0683 47.5345L20.5199 45.7972L20.4476 45.833V45.7435L20.556 45.6897L20.8631 44.4897L20.538 44.6151L20.556 44.5076L20.8812 44.3823L21.1521 43.3614L20.8812 43.4151L20.9173 43.3076L21.1882 43.2539V43.2718L21.405 42.4479C21.8927 40.2629 22.0734 38.8121 21.9469 38.0778L22.0011 38.0241C22.0011 37.845 22.0553 37.4868 22.254 36.9315C22.254 36.1972 22.3804 35.839 22.7417 35.839C22.7417 36.1972 22.8681 36.5733 23.1752 36.8062C23.5365 37.1106 23.97 37.1644 24.4035 37.1106L24.5842 37.2897C24.7106 37.4688 24.837 37.648 24.8912 37.8987L25.0177 38.0241L25.2706 37.8987C25.397 37.648 25.397 37.236 25.2164 36.5733C24.9635 35.4808 24.6745 34.8718 24.1868 34.639C23.7532 34.4599 23.3378 34.6927 22.9043 35.3733C22.8501 35.248 22.7778 35.1942 22.7236 35.1226L22.4707 35.0689C22.5972 34.9435 22.5972 34.7106 22.5249 34.4599C21.9108 34.2808 21.4773 33.9763 21.2424 33.6181C20.5741 32.8838 19.9057 32.4002 19.1651 32.1674C18.4968 31.9166 18.4246 32.1136 18.9845 32.6509C19.3458 32.7763 19.7251 33.0808 20.0864 33.439C20.3935 33.8689 20.4476 34.048 20.2128 34.048L19.5445 33.6181L19.0026 33.0092C18.2078 32.3465 17.413 31.8629 16.7447 31.6121C16.0041 31.3077 15.7692 31.3614 15.9499 31.6659C15.8957 31.7912 16.1305 31.9704 16.4918 32.2748C16.9253 32.5793 17.0337 32.7584 16.9253 32.8838C16.4376 32.7047 16.2569 32.7047 16.3834 32.9375C16.564 33.1166 16.9253 33.4211 17.6117 33.6718C17.0698 33.7256 16.8711 33.8509 17.0698 33.9763C17.2504 34.1554 17.5575 34.2271 18.0452 34.2808L18.3523 34.7106C17.3046 34.7106 17.3769 34.8897 18.6052 35.3196L19.0929 35.3733L19.3458 35.5524C18.8581 35.6062 18.6774 35.6778 18.8039 35.8032L19.7251 36.2868C20.0864 36.2868 20.4657 36.5912 20.9534 37.1285H20.6463L19.7251 36.9494C18.262 36.5912 17.1601 35.8032 16.3653 34.639C15.6247 33.6718 15.137 32.3286 14.8299 30.645C14.8841 30.5912 15.0828 30.5196 15.4441 30.5196C16.546 30.5196 17.702 30.7704 18.9845 31.3077C20.267 31.845 21.2424 32.5256 21.983 33.3674C22.1095 33.4211 22.1637 33.4927 22.2901 33.4211C22.4707 33.3674 22.543 33.242 22.543 33.1166C22.6694 32.9375 22.4888 32.5793 22.0011 32.2032C21.8205 32.0241 21.5676 31.845 21.2605 31.5942C21.0076 31.5942 20.6463 31.236 20.1586 30.6271L20.0322 30.5017C19.7251 30.0718 19.5445 30.0181 19.5987 30.3226C17.7562 29.8927 16.7266 29.5345 16.546 29.1763C16.4195 28.9972 16.1124 28.8181 15.6247 28.6927L14.6493 28.5136C13.5474 28.3345 12.6262 27.851 12.0121 27.0629L11.5243 26.5793L10.9102 26.3286C10.4225 26.0778 9.86256 25.2898 9.32066 23.7853L8.52587 21.4211C8.39943 21.1704 8.1646 20.9375 7.78527 20.6868C7.424 20.3823 7.11693 20.1495 6.99048 19.9525C6.93629 19.7734 6.86404 19.2181 6.7376 18.3763C6.68341 17.1584 6.61115 15.7077 6.61115 13.9525L6.71953 13.8808ZM23.5184 35.5883C23.5184 35.4091 23.6991 35.3375 24.0603 35.4629L24.241 35.7136L23.8797 35.839L23.5184 35.5883ZM20.6463 35.2121L19.7974 35.1584C19.6167 35.1047 19.4361 34.9793 19.3097 34.8002C18.8761 34.442 18.6413 34.0659 18.5691 33.833C18.5149 33.5286 18.7497 33.6539 19.3097 34.1912C19.4361 34.3703 19.6709 34.6211 20.1044 34.8539L20.8992 35.2838L20.7186 35.5166L20.6644 35.4629C20.7186 35.3375 20.7186 35.2121 20.6463 35.2121ZM20.827 31.8808L21.0799 32.0062C21.7482 32.436 22.1275 32.7942 22.1817 33.0987C21.8205 32.6151 21.3147 32.1853 20.827 31.8808Z" fill="#D7D7D7"/>
<path d="M21.2607 45.2778L21.2426 45.3853L21.7304 45.0987C21.5497 44.6152 21.3871 44.6331 21.2607 45.2778Z" fill="#D7D7D7"/>
<path d="M32.514 31.8807C33.9229 31.1464 34.7719 29.5703 35.1332 27.2061C35.2596 26.418 35.3138 25.6837 35.1874 25.1464C35.1332 24.6628 35.0067 24.6091 34.9526 25.021C34.6455 27.9942 33.67 29.8031 32.0262 30.2867H31.4121L31.2856 30.4121L31.3398 30.4658C31.2314 30.4837 31.5927 30.9136 32.514 31.8807Z" fill="#D7D7D7"/>
<path d="M37.1022 29.0331C37.7706 28.7286 38.3305 28.2988 38.746 27.8152C39.2879 27.2062 39.595 25.9883 39.7214 24.3048C39.7756 23.6421 39.7756 23.2122 39.6672 23.0331C39.595 22.9078 39.4866 23.1585 39.3059 23.7675C39.0531 25.7018 38.457 27.0988 37.4093 27.8868C37.1022 28.1376 36.7409 28.3167 36.3074 28.4958L35.6932 28.7465L35.3862 29.3555L35.0249 30.0181L37.1022 29.0331Z" fill="#D7D7D7"/>
<path d="M32.225 43.7734L32.1709 43.8096C32.1889 43.8276 32.1889 43.8638 32.207 43.8818C32.207 43.8457 32.225 43.8096 32.225 43.7734Z" fill="#D7D7D7"/>
<path d="M41.6721 27.1531C42.4669 26.4903 42.9005 25.7021 42.9546 24.7885C43.0088 23.1584 42.9546 22.2985 42.774 22.1731C42.7198 22.1731 42.6476 22.2268 42.5934 22.4239C42.5392 22.603 42.5392 22.7822 42.5934 22.9076C42.4669 24.3048 42.2321 25.3259 41.7986 25.935C41.3651 26.5441 40.7509 26.974 39.9742 27.2069L39.2336 28.2996C40.209 28.0667 41.0038 27.6368 41.6721 27.1531Z" fill="#D7D7D7"/>
<path d="M34.1036 36.18C34.7719 35.8755 35.0248 35.6964 35.0248 35.571C34.8441 35.4456 34.7719 35.3202 34.8441 35.2665L34.9706 35.2127C35.946 34.9082 36.3073 34.6753 36.0183 34.4783C35.7112 34.4783 35.5306 34.4246 35.5847 34.2275L36.3795 33.923C36.7408 33.7976 36.8672 33.6185 36.8672 33.4931C36.3795 33.5468 36.1989 33.4931 36.3253 33.314C36.3253 33.2602 36.506 33.1348 36.8131 33.0632C37.1743 32.884 37.4814 32.7049 37.662 32.5795C37.7162 32.4541 37.6078 32.4004 37.4814 32.4541L37.2285 32.4004L37.7162 32.0959C38.0233 31.9705 38.2039 31.7914 38.2039 31.4868C38.1497 31.3077 37.8969 31.236 37.4633 31.3614C37.0298 31.4152 36.6144 31.666 36.1086 31.9705C34.7719 32.8124 33.9049 33.7976 33.5436 34.944C33.1101 35.1232 32.9294 35.5531 32.9294 36.3413C33.0017 36.4846 33.4352 36.4308 34.1036 36.18ZM35.9279 32.7407C36.1086 32.7407 36.1628 32.7945 36.1628 32.9915C35.9821 33.1169 35.7293 33.296 35.5486 33.4752C35.368 33.726 35.2415 33.9051 35.1874 34.0126L35.1332 33.8872C35.079 33.8334 35.0067 33.8334 34.9525 33.8334C34.9525 33.5289 35.3319 33.1527 35.9279 32.7407Z" fill="#D7D7D7"/>
<path d="M34.8984 36.0724L34.8442 36.4306C36.8673 35.5887 37.8427 34.7289 37.7163 33.8869C38.0776 33.8332 38.3304 33.6362 38.3846 33.4033L38.2582 33.2241C38.204 33.1704 38.204 33.0988 38.3124 32.9734C38.7459 32.7942 38.9265 32.6151 38.8723 32.4897C38.8181 32.436 38.7459 32.436 38.5653 32.436C38.5653 32.3106 38.5653 32.2568 38.6917 32.1852C38.9446 32.1852 39.1252 32.006 39.2336 31.7015C39.2878 31.397 39.2336 31.2716 38.9265 31.3433C38.0053 32.7942 37.2828 33.9586 36.7228 34.6214C36.1086 35.3379 35.5125 35.8753 34.8984 36.0724Z" fill="#D7D7D7"/>
<path d="M23.1031 33.6361H23.4102L23.663 33.5107C23.7172 33.26 23.8437 33.0809 24.0243 33.0809C24.0785 33.0809 24.2049 33.26 24.3856 33.6182C24.5662 33.869 24.7468 33.9764 24.8191 33.9764C24.8733 33.4391 24.9455 33.3137 25.1262 33.4928C25.2526 33.6719 25.3791 34.2272 25.5597 34.9436C25.6139 35.0689 25.6861 35.0689 25.6861 35.0689L25.7403 34.8182C25.8668 34.5675 25.9932 34.5675 26.0474 34.9436L26.1017 36.2152C26.2823 36.3943 26.3545 36.5734 26.3545 36.8779C26.6616 36.8241 26.7158 37.0032 26.4088 37.4868C26.4088 37.5406 26.463 37.6659 26.5352 37.6659C26.6075 37.6659 26.5893 37.7197 26.5893 37.845C26.5893 38.0241 26.5352 38.0958 26.4088 38.2032C26.463 38.3823 26.5893 38.5614 26.7157 38.5614C26.8422 38.5614 26.9506 38.3823 27.077 38.2032L27.2036 36.5734C27.2036 36.2689 27.2578 36.0898 27.33 36.0898H27.5105C27.5647 36.2152 27.5647 36.2689 27.5105 36.448L27.637 38.0779C27.7634 38.3823 27.9441 38.5077 28.1248 38.4361C28.3595 38.4361 28.3595 38.3823 28.1789 38.0062C28.1247 37.8808 28.0525 37.8271 28.1248 37.7017C28.179 37.648 28.2512 37.648 28.3596 37.648C28.4138 37.648 28.3595 37.4689 28.1248 37.2898C28.1248 36.9853 28.179 36.9316 28.4319 36.9853C28.4861 36.3764 28.6848 36.0719 29.0459 36.1436L29.3531 34.2092C29.4073 34.0839 29.4795 34.0839 29.6059 34.1555L29.8589 34.4063C30.0395 34.1555 30.1659 33.9764 30.2201 33.6719H30.2743C30.3285 33.3675 30.4549 33.3137 30.7078 33.3137C30.7078 33.3675 30.7078 33.4928 30.7078 33.6719H31.3219C31.3761 34.0301 31.5027 34.3346 31.7556 34.5137L31.882 35.248C31.9543 35.4271 31.8277 35.3018 31.629 35.0689C31.2677 34.6391 30.9608 34.5854 30.5814 34.9436C30.2202 35.1943 29.9672 35.6062 29.7323 36.2152C29.4795 36.8241 29.3711 37.3077 29.2988 37.845C29.2988 38.2749 29.3531 38.454 29.5518 38.3823C29.6783 37.8988 29.8588 37.4689 30.1659 37.1644C30.8342 37.1107 31.2677 36.9853 31.5749 36.8062C31.8278 36.6271 31.9361 36.3764 32.1167 35.9645L32.6045 35.9107C32.6045 35.6062 32.6044 35.3018 32.7851 34.9436C32.478 34.7645 32.2432 34.5854 32.1167 34.2092L31.9361 33.063L31.629 32.4003C30.7078 30.6451 29.6782 29.9108 28.3956 30.2869H26.9867C26.3725 31.2541 26.2462 31.2541 26.4991 30.2869H26.4448H26.2642C25.9571 30.8959 25.7223 31.2541 25.5236 31.3794C25.3971 31.4332 25.343 31.4332 25.2708 31.3794C25.2708 31.2003 25.3972 30.8959 25.7043 30.5376C25.7043 30.4839 25.6501 30.4123 25.3972 30.4123L24.9095 30.8421C24.7831 31.1466 24.4759 31.5048 24.0604 31.9346L23.2114 32.7764C23.1572 33.0988 23.1031 33.3316 23.1031 33.6361ZM30.4368 35.6958C30.5633 35.4451 30.7981 35.3376 30.9968 35.4451C30.7439 35.8212 30.5452 35.9465 30.4368 35.6958ZM26.9506 34.2451C27.0048 34.1197 27.2035 34.1197 27.3841 34.1913C27.2577 34.5495 27.077 34.7286 26.8422 34.6749C26.7699 34.4958 26.8241 34.3704 26.9506 34.2451ZM27.3841 35.0331C27.5105 35.0331 27.5105 35.1585 27.3841 35.3913C27.2035 35.5704 27.1313 35.7495 27.1313 35.8749C26.9507 35.9286 26.7699 36.054 26.6435 36.0003C26.7699 35.5167 27.0048 35.1585 27.3841 35.0331Z" fill="#D7D7D7"/>
<path d="M30.9787 37.7017C30.9787 37.648 30.9245 37.7554 30.8523 38.1853L30.7258 38.848L31.7012 38.0599C31.8819 37.7017 32.0083 37.3972 31.9541 37.1465C31.5928 37.3972 31.2316 37.5763 30.9787 37.7017Z" fill="#D7D7D7"/>
<path d="M21.6399 43.272C21.5857 43.2362 21.5496 43.272 21.5496 43.3079C21.4954 43.7377 21.6399 44.0601 21.9289 44.2751L22.0915 44.5258C22.1638 44.8303 22.236 45.0452 22.3083 45.2064C22.2722 44.9378 22.236 44.6691 22.1818 44.3646C22.1818 44.2213 22.1638 44.096 22.1457 43.9885C21.8025 43.9527 21.6399 43.7198 21.6399 43.272Z" fill="#D7D7D7"/>
<path d="M19.6168 29.8747L19.3098 28.7284C17.1783 28.3702 15.95 26.6149 15.6429 23.391L15.3358 23.0328C15.1552 22.9791 15.0829 23.0865 15.0829 23.5164C15.2094 27.5105 16.7448 29.6418 19.6168 29.8747Z" fill="#D7D7D7"/>
<path d="M22.5431 32.0599C22.796 31.9345 22.9766 31.7554 23.3379 31.5225L23.7714 30.9136C23.952 30.7345 24.0243 30.5554 23.8979 30.43L23.7172 30.3046C23.5366 30.2509 23.4643 30.3046 23.356 30.4837C22.3083 30.3046 21.5858 29.821 21.1522 29.2121C20.6645 28.5494 20.3033 27.3852 20.0504 25.7553C19.9239 25.3971 19.8156 25.218 19.7433 25.218L19.6169 25.3971C19.6169 27.2777 19.8697 28.6748 20.3574 29.7673C20.7729 30.7345 21.5677 31.5225 22.5431 32.0599Z" fill="#D7D7D7"/>
<path d="M23.6991 37.8807C23.2656 37.7554 22.9585 37.3972 22.7237 36.842C22.6695 36.9674 22.5973 37.1465 22.6695 37.3793C22.6695 37.63 22.796 37.8628 22.9224 38.0419C23.2837 38.5971 23.663 38.6508 24.0243 38.221C24.0785 37.8807 24.0062 37.7554 23.6991 37.8807Z" fill="#D7D7D7"/>
<path d="M22.4167 42.3047H22.3805C22.3444 42.5019 22.3625 42.6991 22.3986 42.8784L22.3625 43.0397C22.4167 43.0756 22.4708 43.0935 22.5431 43.0577C22.6695 42.968 22.7418 42.8067 22.7598 42.5736C22.6153 42.5557 22.507 42.484 22.4167 42.3047Z" fill="#D7D7D7"/>
<path d="M15.8236 28.4241L15.1552 27.2062C13.6198 27.1524 12.6444 25.3793 12.2831 21.9943C12.1567 21.869 12.1025 21.8152 12.1025 21.9406C11.3619 26.0599 12.5902 28.1912 15.8236 28.4241Z" fill="#D7D7D7"/>
</svg>
