<svg width="78" height="19" viewBox="0 0 78 19" fill="none" xmlns="http://www.w3.org/2000/svg">
<path d="M2.3296 3.63234C3.72921 1.36375 5.42802 0.0126953 6.86002 0.0126953C8.28816 0.0126953 9.9862 1.36146 11.3982 3.63234C12.8502 5.98273 13.7216 8.89282 13.7216 11.4198C13.7216 15.1205 11.5994 18.8518 6.86156 18.8518C2.11754 18.8518 0 15.1205 0 11.4198C0 8.89435 0.869069 5.98426 2.3296 3.63234ZM48.7118 5.56296H43.91V1.02121H58.6595V5.56296H53.8576V17.8425H48.7118V5.56373V5.56296ZM69.6358 5.56296H77.1837V1.02121H69.6358C62.7018 1.02121 58.9988 4.40229 58.9988 9.43187C58.9988 14.463 62.6995 17.8425 69.6358 17.8425H77.1837V13.3008H69.6358C66.4271 13.3008 64.3173 12.176 64.3173 9.43187C64.3173 6.68846 66.4295 5.56296 69.6358 5.56296ZM30.7004 11.062L33.4434 1.02121H42.5358V17.8425H37.3908V4.15074L33.6508 17.8425H27.7516L24.0116 4.16068V17.8425H18.8666V1.02121H27.9575L30.7004 11.062Z" fill="#D7D7D7"/>
</svg>
