<svg width="100" height="100" viewBox="0 0 100 100" fill="none" xmlns="http://www.w3.org/2000/svg">
<path fill-rule="evenodd" clip-rule="evenodd" d="M91.4639 49.9995C96.7686 45.4123 98.8281 37.7629 96.0023 30.9443C93.1774 24.1269 86.3144 20.1732 79.3211 20.681C79.8289 13.6867 75.8737 6.8221 69.0547 3.9978C62.2372 1.17299 54.5872 3.23103 50.0006 8.53463C45.4139 3.23103 37.7654 1.17247 30.9459 3.9978C24.1269 6.8221 20.1737 13.6867 20.6811 20.6795C13.6873 20.1727 6.8227 24.1263 3.99891 30.9453C1.17514 37.7643 3.23215 45.4123 8.53626 49.9995C3.23215 54.5877 1.17358 62.2367 3.99891 69.0557C6.82166 75.872 13.6827 79.8258 20.6754 79.32C20.1691 86.3153 24.1227 93.1825 30.9454 96.0095C37.7659 98.8344 45.4171 96.7747 50.0062 91.468C54.5929 96.7685 62.2409 98.8243 69.0563 96.0022C75.8747 93.1763 79.8284 86.3133 79.3216 79.32C86.3149 79.8268 93.1791 75.8727 96.0049 69.0547C98.8281 62.2357 96.7681 54.5877 91.4639 49.9995Z" fill="#C1C1C1"/>
<path fill-rule="evenodd" clip-rule="evenodd" d="M88.5122 49.999C93.5237 45.7708 95.4842 38.6172 92.8467 32.2507C90.2102 25.884 83.7637 22.211 77.23 22.7662C77.785 16.234 74.113 9.78908 67.747 7.15206C61.3798 4.51506 54.2263 6.47608 49.9992 11.4871C45.772 6.47453 38.6185 4.5135 32.2518 7.15206C25.8853 9.78908 22.2122 16.235 22.7673 22.7677C16.2347 22.213 9.78927 25.8855 7.1507 32.2507C4.51369 38.6183 6.47472 45.7735 11.4873 49.999C6.47575 54.226 4.51369 61.3807 7.1507 67.7483C9.78927 74.1138 16.2358 77.788 22.7673 77.2323C22.2122 83.766 25.8853 90.2115 32.2518 92.848C38.619 95.4855 45.7737 93.525 49.9992 88.5123C54.2263 93.524 61.3798 95.4855 67.748 92.848C74.1137 90.2093 77.7877 83.764 77.232 77.2323C83.7647 77.7853 90.2102 74.1123 92.8467 67.7473C95.4847 61.3807 93.5247 54.226 88.5122 49.999Z" fill="#F0F0F0"/>
<path fill-rule="evenodd" clip-rule="evenodd" d="M87.2323 49.9995C91.4614 45.7023 92.9696 39.1178 90.5234 33.2128C88.0774 27.3085 82.3566 23.7175 76.3268 23.6708C76.2801 17.6435 72.6889 11.9223 66.7858 9.47719C60.8803 7.03111 54.2974 8.53819 50.0003 12.7669C45.7051 8.53819 39.1206 7.03058 33.2153 9.47719C27.3083 11.9238 23.7188 17.6435 23.6726 23.6718C17.6443 23.7185 11.9236 27.3085 9.47851 33.2128C7.03243 39.1188 8.53848 45.7033 12.7682 50.0005C8.54003 54.2977 7.03243 60.8822 9.47696 66.7853C11.9236 72.6898 17.6458 76.2808 23.6743 76.3285C23.7209 82.3563 27.3119 88.0782 33.2168 90.5242C39.1211 92.9693 45.7056 91.4627 50.0023 87.233C54.2979 91.4612 60.8808 92.9693 66.7863 90.5242C72.6906 88.0782 76.2816 82.3563 76.3283 76.3275C82.3571 76.2798 88.0768 72.6898 90.5239 66.7853C92.9691 60.881 91.4614 54.2955 87.2323 49.9995Z" fill="white"/>
<path fill-rule="evenodd" clip-rule="evenodd" d="M62.802 43.0715C62.3968 43.291 61.7976 43.0892 61.6984 42.6503C61.6093 42.2565 61.823 41.813 61.9911 41.4342L64.6021 35.531C64.9803 34.676 66.4443 34.5743 66.5636 35.3363C66.8516 37.1532 64.4201 42.1968 62.802 43.0715ZM77.1698 42.6182C76.9244 43.1753 76.1664 43.4403 75.5159 43.1535C75.3224 43.068 75.0946 42.8463 75.0936 42.6182C75.0806 40.655 76.0866 38.8848 76.9426 37.1853C77.4048 36.265 77.9894 34.9213 79.1646 34.801C80.0663 34.7087 80.3074 35.4988 80.0086 36.1795L77.1698 42.6182ZM81.3373 42.8932C80.8501 44.065 81.6361 44.6855 82.7961 44.4982C82.8013 45.2982 81.2994 45.9202 80.3469 46.1372C79.5133 46.3265 78.3641 46.4183 77.8988 45.6827L77.3151 44.7587C75.8236 45.8782 73.0319 46.811 71.4938 45.3745C69.9053 43.8907 70.6378 41.704 71.0724 40.3157C68.3628 42.4723 66.0884 46.5055 62.1529 45.829C61.4671 45.7102 61.0504 45.1638 60.6116 44.6943C59.0231 47.3038 58.425 51.4142 54.7243 52.0725C53.5093 52.2895 52.1626 52.1535 51.3839 51.2435C51.2884 50.6833 52.0951 51.0107 52.4536 50.8565C54.5489 49.958 55.4024 46.7285 56.2818 44.7162C54.8389 45.721 52.5548 46.6013 50.8184 45.6017C50.2928 45.2998 49.8296 44.7198 49.7373 44.7815C48.4511 45.639 46.2043 46.3955 44.6386 45.6017C44.0965 45.3252 43.861 44.742 43.6503 44.2233C41.9476 45.2442 39.6411 46.522 37.6655 45.2282C36.7228 44.6098 36.3675 43.4145 36.7908 42.4237L39.4341 36.2282C39.8901 35.1595 37.8933 34.9712 37.4881 35.8718L33.191 45.4062L28.9016 45.404L29.615 43.6645C26.9991 45.4435 24.4768 46.6413 21.3531 45.4548C18.8661 44.5122 17.427 41.8763 17.3315 39.358C17.1515 34.6252 19.4545 30.3383 23.4278 27.4872C25.9398 25.6848 29.6828 24.6332 32.5093 26.4972C33.5416 27.1783 34.1538 28.3317 34.0656 29.5135C33.9588 30.9438 33.1048 32.3273 31.7793 33.0325C30.749 33.5823 28.2121 33.4833 27.9843 32.0442C29.1921 31.3552 31.092 30.1947 30.5135 28.5252C30.3413 28.0245 29.8318 27.829 29.395 27.7958C26.856 27.5997 24.9468 30.2273 23.8486 32.1905C22.3643 34.842 20.753 38.5477 22.6491 41.5468C23.431 42.7832 24.9515 43.1037 26.443 42.8448C28.307 42.5217 30.5306 41.6237 31.3555 39.8078L37.6556 25.9312H41.849L38.8068 33.0122C40.0063 32.2382 41.8578 30.8608 43.7306 31.9627C45.5403 33.0283 44.055 35.2332 43.4558 36.6002L41.5103 41.0447C41.3391 41.4337 41.2451 41.9157 41.4288 42.3417C41.945 43.5395 43.725 42.64 44.0715 41.855L48.4641 31.8952H52.6876L48.4339 41.5142C48.3074 41.8015 48.2385 42.2285 48.4018 42.5362C48.61 42.9263 49.0976 43.0253 49.4716 42.8932C50.2208 42.628 50.9383 40.6488 50.9626 40.5907L54.7674 31.8952H59.0838L54.7918 41.6288C54.6366 41.9763 54.6304 42.4262 54.8718 42.7633C55.0693 43.0435 55.3936 43.1982 55.7148 43.1535C56.4365 43.0518 57.1913 42.6528 57.5144 41.9213L61.9391 31.8958H65.9448L65.6724 32.6615C67.0149 32.1313 68.7498 31.2562 70.0504 32.3197C71.8024 33.7547 70.7171 36.6812 70.2299 38.4487C73.0324 36.664 74.8213 30.8795 79.8448 31.8507C80.4579 31.9678 81.0618 32.5142 81.3373 33.1155L81.8441 31.8963H86.0666C86.0661 31.8952 82.8563 39.2428 81.3373 42.8932ZM41.1201 80.5007C39.7988 79.7277 39.6426 77.9737 41.1533 77.2412C42.6931 76.4937 44.5301 76.6533 46.2121 76.7862C47.6118 76.8977 48.9694 77.2085 50.2819 77.5977C48.4614 80.742 44.4616 82.4513 41.1201 80.5007ZM63.5634 65.5975C63.1563 66.2247 61.4234 66.5628 61.4234 65.5975V65.0625L64.6819 57.7477C64.8828 57.2978 65.3658 57.1215 65.8343 57.067C66.2073 57.0255 66.5496 57.2688 66.7099 57.5537C66.9044 57.9022 66.8599 58.4485 66.7421 58.819C65.9883 61.1758 64.8423 63.6218 63.5634 65.5975ZM82.8786 54.0342C81.3699 54.7323 80.5066 56.309 80.6566 57.9758C80.9596 61.335 81.8959 65.5258 78.9373 68.0617C77.2404 69.518 74.9934 70.1488 72.8084 69.5865C71.7838 69.3218 70.7333 68.431 70.5864 67.3307C70.4888 66.5982 70.6393 65.8735 71.0403 65.3375C71.4559 64.7835 72.0556 64.4 72.7326 64.3508C72.9961 64.3327 73.3983 64.37 73.6831 64.6082C73.1134 65.1472 72.5889 66.07 72.9536 66.8617C73.1586 67.3017 73.6031 67.5357 74.0731 67.5113C74.5281 67.4868 74.9873 67.2955 75.2576 66.9095C76.4066 65.2722 76.2008 63.0217 76.7481 61.1228C77.1076 59.8737 77.5678 58.682 78.0144 57.4893C78.0719 57.3342 77.9983 57.1598 77.8504 57.1323C77.3571 57.041 76.9318 57.5743 76.6671 57.8628L68.7374 66.5203C67.0331 68.3818 64.9164 70.1243 62.2364 69.5865C61.3638 69.411 60.6458 68.775 60.2728 67.932L57.8563 73.205C59.3073 73.8842 62.2214 74.4858 63.8789 74.6223C66.3794 74.832 68.9288 74.8988 71.3484 74.4512C72.3264 74.2707 73.2623 73.9333 74.1053 73.3803C73.9938 74.1757 73.3801 75.0727 73.2949 75.1822C68.7861 80.8867 61.0516 79.8523 54.6771 78.5055C53.2666 80.2423 51.6059 81.6883 49.6671 82.5758C46.4009 84.0705 42.052 84.0565 38.9801 82.1878C37.444 81.2515 36.5521 79.599 36.6778 77.7438C36.8448 75.25 39.1155 73.2003 41.2669 72.4568C45.1678 71.1102 49.6698 71.312 53.6396 72.1538L55.2343 68.663C53.7096 69.505 51.5696 70.5162 49.8135 69.6197C49.217 69.3135 49.0509 68.6947 48.7759 68.1768C47.3488 69.0188 45.8666 70.0553 44.0405 69.6673C42.8711 69.4188 42.2594 68.6775 42.0424 67.573C40.3554 69.0168 38.1219 70.4383 35.8663 69.4738C34.9398 69.0753 34.6031 68.097 34.6031 67.171C34.6031 66.3097 34.8671 65.5528 35.219 64.7543L37.9758 58.5108C38.6076 57.0788 36.3001 56.8998 35.802 58.0252L30.791 69.3577L26.1421 69.3457L27.1838 67.006C24.3523 69.0598 20.6933 71.5605 16.6503 69.0842C13.1558 66.9442 12.9233 62.1858 13.8924 58.5108C15.1624 53.7015 19.6603 49.2322 24.5806 48.1002C26.8456 47.5793 29.4691 47.792 31.0026 49.6722C31.8213 50.6797 32.005 52.1348 31.6668 53.3872C31.3881 54.4207 30.432 55.3923 29.4448 55.8375C28.1493 56.418 25.5471 56.5 25.1803 54.7158C25.8936 54.5768 26.674 54.2002 27.256 53.5817C27.7613 53.0478 28.1478 52.2505 27.823 51.4733C27.5631 50.8523 26.9141 50.4773 26.2178 50.5483C23.5746 50.8187 21.7475 53.3432 20.3643 55.3813C18.9381 57.483 18.2648 59.9738 18.3365 62.6963C18.3775 64.2242 19.0996 65.8325 20.5906 66.4425C23.6603 67.698 26.7346 65.4595 28.9068 63.1565L35.8015 47.7085L40.3471 47.6903L37.4066 54.57C38.9811 53.5387 41.0978 52.5385 42.8876 53.808C43.5973 54.3097 43.7178 55.3098 43.4563 56.1108C42.468 59.1272 40.8825 61.9208 39.7095 64.8675C39.541 65.2918 39.4631 65.7448 39.7095 66.0987C39.9498 66.443 40.3896 66.5463 40.812 66.44C41.4921 66.2688 42.1821 65.7608 42.467 65.1108L47.5178 53.575H52.0345L47.3326 64.5272C47.2103 64.814 47.189 65.2712 47.3648 65.5327C47.5605 65.8237 47.9001 66.0493 48.2083 66.0182C48.6935 65.9693 49.1831 65.7272 49.3923 65.2572L54.5511 53.575H59.1491L53.9473 65.2572C53.8103 65.5683 53.8549 65.8782 53.9969 66.181C54.1459 66.495 54.4671 66.6107 54.7923 66.6033C55.4398 66.5883 56.2341 66.4172 56.5251 65.7572L61.9128 53.6123H66.0946C66.0946 53.6123 65.9924 54.2255 65.9479 54.4553C67.2298 53.5635 69.0544 52.649 70.6201 53.5797C72.8358 54.9032 71.5876 59.5562 71.4611 60.0837C74.1593 58.4838 77.0676 52.7455 81.5266 53.3078C81.8856 53.3555 82.4631 53.5267 82.8786 54.0342ZM56.8903 79.666C57.4263 79.666 57.9471 79.7947 58.4478 80.054C58.9505 80.3103 59.3676 80.7025 59.7053 81.2297C60.0408 81.7542 60.2161 82.3652 60.2101 82.9878C60.2101 83.902 59.8848 84.6832 59.2353 85.3333C58.5836 85.9828 57.8023 86.3092 56.8903 86.3092C55.9731 86.3092 55.1913 85.9838 54.5418 85.3385C53.8933 84.69 53.5679 83.9055 53.5679 82.9878C53.5679 82.3467 53.7371 81.763 54.0686 81.24C54.4033 80.714 54.8214 80.3218 55.3199 80.0608C55.8026 79.8012 56.3423 79.6655 56.8903 79.666ZM56.8944 80.3172C56.1791 80.3172 55.5569 80.5723 55.0248 81.0833C54.4939 81.5918 54.2273 82.2283 54.2273 82.9873C54.2273 83.726 54.4878 84.3595 55.0098 84.8788C55.5316 85.4018 56.1598 85.6612 56.8944 85.6612C57.6281 85.6612 58.2563 85.4007 58.7781 84.8737C59.3033 84.3507 59.5646 83.7203 59.5646 82.9868C59.5646 82.2278 59.298 81.5918 58.7673 81.0828C58.234 80.5728 57.6099 80.3172 56.8944 80.3172ZM55.389 84.7637V81.2415H56.1054C56.8239 81.2415 57.2819 81.252 57.4734 81.2748C57.6669 81.2992 57.8444 81.3972 58.0051 81.5715C58.1666 81.7468 58.2465 81.97 58.2465 82.2413C58.2465 82.5048 58.1603 82.7238 57.9859 82.897C57.8096 83.0723 57.5808 83.1808 57.2971 83.2233C57.4204 83.2648 57.5258 83.3277 57.6119 83.4117C57.6959 83.4957 57.8398 83.7095 58.0426 84.0528L58.4601 84.7632H57.5746L57.2809 84.1925C57.1046 83.847 56.9516 83.616 56.8229 83.4962C56.6931 83.3775 56.5168 83.3157 56.2921 83.3157H56.1059V84.7627H55.389V84.7637ZM56.105 82.7622H56.395C56.7341 82.7622 56.9635 82.7538 57.0766 82.7378C57.1883 82.7238 57.2915 82.6712 57.3681 82.5888C57.4473 82.5045 57.4899 82.3922 57.4869 82.2765C57.4883 82.2187 57.4776 82.1612 57.4556 82.1077C57.4336 82.054 57.4009 82.0055 57.3593 81.9653C57.2756 81.8845 57.1678 81.8337 57.0521 81.8205C56.9328 81.8065 56.7129 81.8003 56.3943 81.8003H56.1043V82.7622H56.105Z" fill="#666666"/>
<path fill-rule="evenodd" clip-rule="evenodd" d="M97.1665 30.4625C94.3194 23.5885 87.6509 19.4128 80.63 19.3682C80.5865 12.349 76.4107 5.68253 69.5369 2.83384C62.6607 -0.0127594 54.9957 1.74906 49.9992 6.68119C45.0042 1.74906 37.3385 -0.0127592 30.4635 2.83436C23.5875 5.68201 19.4124 12.3485 19.3677 19.3677C12.3479 19.4133 5.68148 23.5892 2.83385 30.4635C-0.0137985 37.338 1.74801 45.0042 6.68068 50.0007C1.74801 54.9962 -0.0132797 62.6633 2.83333 69.5373C5.68096 76.4123 12.3474 80.586 19.3687 80.6317C19.4117 87.6515 23.587 94.3188 30.463 97.167C37.338 100.014 45.0052 98.2523 50.0007 93.3197C54.995 98.2523 62.6607 100.012 69.5369 97.165C76.4107 94.3178 80.5855 87.6515 80.63 80.6317C87.6509 80.587 94.3194 76.4123 97.1665 69.5373C100.014 62.6613 98.2519 54.9962 93.3192 49.9982C98.2519 45.0027 100.014 37.3365 97.1665 30.4625ZM94.8404 68.574C92.0212 75.3778 84.8525 79.0987 77.8774 77.8758C79.0992 84.852 75.3789 92.0233 68.5745 94.8408C61.7684 97.6588 54.0675 95.2195 49.9997 89.4232C45.9324 95.22 38.2314 97.6588 31.427 94.8408C24.622 92.0227 20.9022 84.853 22.125 77.8768C15.1473 79.1007 7.97765 75.3795 5.15958 68.576C2.34048 61.769 4.77826 54.068 10.5773 49.9997C4.77931 45.9318 2.34048 38.2325 5.15958 31.4275C7.97765 24.622 15.1484 20.9018 22.1245 22.125C20.8997 15.1479 24.6215 7.97869 31.4265 5.16114C38.2314 2.34048 45.9334 4.77931 50.0007 10.5773C54.068 4.77931 61.7679 2.34048 68.5729 5.16114C75.3799 7.97869 79.0987 15.1479 77.8749 22.125C84.851 20.9018 92.0222 24.622 94.8397 31.4265C97.6579 38.2315 95.2185 45.9318 89.422 49.9997C95.219 54.069 97.6579 61.7685 94.8404 68.574Z" fill="#666666"/>
</svg>
