<svg width="240" height="44" viewBox="0 0 240 44" fill="none" xmlns="http://www.w3.org/2000/svg">
<path fill-rule="evenodd" clip-rule="evenodd" d="M192.796 32.4986V23.0958H201.469V21.215H192.796V11.7789C195.521 11.4502 198.577 11.4502 201.796 11.7789L201.993 10.0625H189.708V32.9956L182.743 24.7804V23.2626C185.961 22.2394 187.672 19.8323 187.672 16.0694C187.672 12.3078 183.761 10.0638 180.51 10.0638H172.692V34.712H176.436V11.6133C179.853 11.6133 183.401 12.8009 183.401 16.5957C183.401 20.356 181.527 22.2382 178.636 23.0958L178.802 24.6134L189.708 37.4466L194.143 38.3054L191.086 34.7108H201.993L204.03 30.2558C200.287 32.4986 196.377 33.1918 192.796 32.4986ZM169.112 10.0625H167.238V24.119C167.238 29.234 167.238 33.3574 162.803 33.3574C158.697 33.3574 157.876 30.949 157.876 24.449V10.0625H154.952V25.141C154.952 31.8054 156.003 35.897 162.803 35.897C169.276 35.897 169.112 28.2106 169.112 24.779V10.0625ZM90.5989 34.7108H93.4916V10.0625H90.5989V34.7108ZM146.806 10.0625L145.589 12.3409L133.828 34.712H137.411L142.174 24.7804H147.987L150.189 34.712H153.77L147.463 10.0638H146.806V10.0625ZM145.589 22.0406H143.554L145.589 17.5527L146.117 16.3982L147.625 22.0406H145.589Z" fill="#D7D7D7"/>
<path fill-rule="evenodd" clip-rule="evenodd" d="M130.447 40.7804L139.055 0.923854H135.472L133.601 10.0629H115.665V28.9042L99.799 10.0629H97.5979V34.7112H99.799V15.9029L115.664 34.7112H118.193V12.1438C119.9 11.615 121.281 11.615 122.792 12.4726V34.7124H125.649V12.4726C127.032 11.3499 130.446 11.2837 132.975 13.0001L127.128 42.8614L145.589 42.465L147.299 42.432L147.988 39.0666L145.589 39.2972L130.447 40.7804ZM82.7835 10.0629L81.5667 12.3719L72.7303 29.3974C72.3675 28.0442 71.8752 26.8566 71.0227 26.0002C67.606 21.3798 59.4256 15.5397 58.9345 9.56722C58.5717 5.27804 61.8234 2.2096 66.095 1.87956C69.1488 1.68205 73.4216 4.25606 74.6029 6.66444L77.3292 4.94928C75.0952 1.02197 69.1488 0 65.7322 0C62.8421 0 59.952 1.8477 57.9463 3.95788C56.3706 5.57622 55.32 7.35764 55.1881 8.54398V10.4261C49.734 8.38088 43.4273 9.89726 43.7572 17.4206C44.1187 21.8754 51.7714 24.6138 52.7903 27.1866C53.809 29.595 54.4979 32.8278 49.734 32.9946C45.7922 33.3566 44.2812 30.6182 44.2812 30.2562C42.5736 32.499 34.0669 33.521 33.2106 32.499V22.8986H41.8832V21.0178H33.2106V11.7794C35.9369 11.4506 38.9946 11.4506 42.2448 11.7794L42.4098 9.89854H30.1238V10.0629H29.1051L20.4323 27.7166L17.3443 10.0629H16.3255L23.1588 0.82573H19.9083L8.50784 17.785H7.49036L3.21866 0.82573H0.32859L4.07377 21.2154L0 41.9032H3.21866L8.14627 21.3798L14.6508 12.6369L18.561 34.7112H19.7434L30.1238 13.6589V34.7112H42.4098L43.4285 32.9946C44.9714 34.5442 47.1737 34.7112 49.2101 34.7112H51.0839V39.3292C52.7915 40.8454 55.2567 42.0994 57.9475 42.6944C62.5478 43.784 67.8052 43.0258 71.0239 38.8346C71.8764 37.614 72.3699 36.2606 72.7315 34.7124H73.4216L78.1843 24.7808H83.9659L86.1656 34.7124H89.7473L83.4393 10.0642H82.7835V10.0629ZM61.987 41.7374C60.3124 41.6712 58.9993 41.4432 57.9449 41.0124C55.0879 39.8898 53.9042 37.5158 51.934 34.5454C57.7166 33.8522 58.4067 30.2576 56.5341 26.0016C54.9902 22.8986 46.3174 18.2794 46.3174 15.211C46.3174 10.0629 53.1189 10.0629 55.3504 14.5178L55.679 13.3302C56.2056 14.8147 56.9933 16.1348 57.9449 17.3556C61.0673 21.4448 65.9276 24.5144 68.2949 28.7374C71.7116 35.0744 67.7697 41.7374 61.987 41.7374ZM81.5667 22.041H79.5305L81.5667 17.5531L82.0933 16.3986L83.636 22.041H81.5667ZM224.793 10.0629H222.264V28.9042L206.398 10.0629H204.196V34.7112H206.398V15.9029L222.264 34.7112H224.793V12.1438C226.501 11.615 227.881 11.615 229.39 12.4726V34.7124H232.314V12.4726C233.825 11.2837 235.698 11.4506 238.949 12.6369V10.0629H224.793Z" fill="#D7D7D7"/>
</svg>
