<svg width="124" height="124" viewBox="0 0 124 124" fill="none" xmlns="http://www.w3.org/2000/svg">
						<circle cx="62" cy="62" r="62" fill="#1C54FC" />
						<path
							d="M20.98 46.02L11.92 52.2V45.18L21.88 38.1H29.02V81H20.98V46.02ZM52.8311 81.6C50.3111 81.6 48.1111 81.28 46.2311 80.64C44.3911 79.96 42.8311 79.06 41.5511 77.94C40.3111 76.78 39.3511 75.42 38.6711 73.86C38.0311 72.26 37.6511 70.54 37.5311 68.7H44.9711C45.1311 69.7 45.3711 70.62 45.6911 71.46C46.0111 72.26 46.4511 72.96 47.0111 73.56C47.6111 74.16 48.3711 74.62 49.2911 74.94C50.2111 75.26 51.3711 75.42 52.7711 75.42C55.2511 75.42 57.1511 74.64 58.4711 73.08C59.8311 71.48 60.5111 69.36 60.5111 66.72C60.5111 64.12 59.8111 62.06 58.4111 60.54C57.0511 59.02 55.1711 58.26 52.7711 58.26C50.5711 58.26 48.7711 58.6 47.3711 59.28C45.9711 59.96 44.7911 60.86 43.8311 61.98H39.7511L40.1111 38.1H66.1511V44.4H46.2311L46.1711 56.04C47.0111 55.08 48.1911 54.24 49.7111 53.52C51.2311 52.8 53.1311 52.44 55.4111 52.44C57.3311 52.44 59.0911 52.78 60.6911 53.46C62.3311 54.1 63.7311 55.04 64.8911 56.28C66.0911 57.52 67.0111 59.04 67.6511 60.84C68.2911 62.6 68.6111 64.6 68.6111 66.84C68.6111 69.12 68.2111 71.18 67.4111 73.02C66.6511 74.82 65.5711 76.36 64.1711 77.64C62.7711 78.92 61.1111 79.9 59.1911 80.58C57.2711 81.26 55.1511 81.6 52.8311 81.6ZM92.822 75.24C96.142 75.24 98.602 74 100.202 71.52C101.802 69.04 102.602 65.36 102.602 60.48V58.38C102.602 53.78 101.762 50.2 100.082 47.64C98.402 45.04 95.942 43.74 92.702 43.74C89.462 43.74 86.982 45 85.262 47.52C83.542 50 82.682 53.64 82.682 58.44V60.6C82.682 65.48 83.562 69.14 85.322 71.58C87.082 74.02 89.582 75.24 92.822 75.24ZM92.642 81.6C89.922 81.6 87.442 81.12 85.202 80.16C83.002 79.16 81.122 77.76 79.562 75.96C78.002 74.16 76.782 71.98 75.902 69.42C75.062 66.82 74.642 63.9 74.642 60.66V58.5C74.642 55.26 75.062 52.34 75.902 49.74C76.782 47.14 78.002 44.94 79.562 43.14C81.162 41.3 83.062 39.9 85.262 38.94C87.462 37.98 89.922 37.5 92.642 37.5C95.362 37.5 97.822 37.98 100.022 38.94C102.222 39.9 104.102 41.28 105.662 43.08C107.222 44.88 108.422 47.06 109.262 49.62C110.142 52.18 110.582 55.08 110.582 58.32V60.48C110.582 63.72 110.162 66.64 109.322 69.24C108.522 71.84 107.342 74.06 105.782 75.9C104.262 77.7 102.382 79.1 100.142 80.1C97.942 81.1 95.442 81.6 92.642 81.6Z"
							fill="white" />
					</svg>