<svg width="52" height="52" viewBox="0 0 52 52" fill="none" xmlns="http://www.w3.org/2000/svg">
<circle cx="26" cy="26" r="26" fill="#1C54FC"/>
<path d="M32.8221 22.3792C32.7323 22.3677 32.6393 22.4167 32.5957 22.4987L26.7207 33.5338C26.6108 33.7401 26.8744 33.9045 27.0415 33.734L37.3047 23.2625C37.4204 23.1444 37.3669 22.9629 37.2103 22.9428L32.8221 22.3792Z" fill="white"/>
<path d="M20.8628 16.2638C20.8287 16.1236 20.6457 16.0858 20.5296 16.1948L17.3664 19.1642C17.2423 19.2808 17.2926 19.4697 17.4532 19.4901L21.4636 19.9987C21.6105 20.0174 21.7434 19.8788 21.71 19.7418L20.8628 16.2638Z" fill="white"/>
<path d="M35.6448 18.8824C35.5877 18.7514 35.3978 18.7419 35.2988 18.8652L32.8434 21.9243C32.7467 22.0448 32.8054 22.2077 32.9523 22.2263L36.9627 22.735C37.1234 22.7553 37.2608 22.5902 37.1997 22.4501L35.6448 18.8824Z" fill="white"/>
<path d="M22.7485 20.6899C22.7462 20.602 22.6819 20.5328 22.5921 20.5212L18.2039 19.9576C18.0473 19.9375 17.9115 20.0947 17.9646 20.2345L22.6729 32.6288C22.7496 32.8306 23.0746 32.7418 23.0686 32.5207L22.7485 20.6899Z" fill="white"/>
<path d="M29.724 17.3524C29.5553 17.331 29.4164 17.5122 29.4945 17.652L31.5831 21.3933C31.6491 21.5116 31.8279 21.5129 31.9218 21.3957L34.4498 18.2415C34.5464 18.121 34.4875 17.9581 34.3407 17.9395L29.724 17.3524Z" fill="white"/>
<path d="M22.0746 16.0092C21.9277 15.9905 21.7949 16.129 21.8283 16.266L22.7019 19.8528C22.7344 19.986 22.9029 20.0288 23.0212 19.934L26.7644 16.9343C26.9042 16.8222 26.86 16.6177 26.6914 16.5962L22.0746 16.0092Z" fill="white"/>
<path d="M24.3545 21.0489C24.2247 21.032 24.1011 21.14 24.1047 21.2672L24.4638 34.1558C24.4694 34.3552 24.7487 34.3915 24.8467 34.2056L31.1846 22.1877C31.2471 22.0691 31.1813 21.9365 31.0515 21.9196L24.3545 21.0489Z" fill="white"/>
<path d="M28.2937 17.2912C28.2369 17.1891 28.0921 17.1705 27.9906 17.2523L24.0439 20.4323C23.9048 20.5444 23.9495 20.7487 24.118 20.7703L30.273 21.5609C30.4414 21.5825 30.5798 21.4017 30.502 21.2618L28.2937 17.2912Z" fill="white"/>
</svg>
