<svg width="52" height="52" viewBox="0 0 52 52" fill="none" xmlns="http://www.w3.org/2000/svg">
<circle cx="26" cy="26" r="26" fill="#1C54FC"/>
<path d="M38 25.32V35.6667C38 36.403 37.403 37 36.6667 37H31.3333C30.597 37 30 36.403 30 35.6667V28.3333C30 27.9651 29.7015 27.6667 29.3333 27.6667H22.6667C22.2985 27.6667 22 27.9651 22 28.3333V35.6667C22 36.403 21.403 37 20.6667 37H15.3333C14.597 37 14 36.403 14 35.6667V25.32C14.0009 24.2595 14.423 23.2428 15.1733 22.4933L24.28 13.3867C24.5283 13.1403 24.8635 13.0015 25.2133 13H26.7867C27.1365 13.0015 27.4717 13.1403 27.72 13.3867L36.8267 22.4933C37.577 23.2428 37.9991 24.2595 38 25.32Z" fill="white"/>
</svg>
