<svg width="52" height="52" viewBox="0 0 52 52" fill="none" xmlns="http://www.w3.org/2000/svg">
<circle cx="26" cy="26" r="26" fill="#1C54FC"/>
<path d="M22.5766 30.6339C22.5766 29.7596 22.7117 28.9727 22.982 28.2732C23.2523 27.5738 23.5976 26.918 24.018 26.306C24.4685 25.694 24.964 25.1257 25.5045 24.6011C26.045 24.0474 26.5856 23.5082 27.1261 22.9836C27.967 22.1676 28.7027 21.3807 29.3333 20.623C29.964 19.8361 30.2793 18.9763 30.2793 18.0437C30.2793 16.9362 29.9489 16.0474 29.2883 15.377C28.6577 14.7067 27.6517 14.3716 26.2703 14.3716C24.8589 14.3716 23.7027 14.8233 22.8018 15.7268C21.9009 16.6011 21.3754 17.796 21.2252 19.3115H16C16.0901 17.8834 16.4054 16.6011 16.9459 15.4645C17.4865 14.2987 18.2072 13.3224 19.1081 12.5355C20.039 11.7195 21.1351 11.0929 22.3964 10.6557C23.6577 10.2186 25.039 10 26.5405 10C28.1622 10 29.5586 10.204 30.7297 10.612C31.9309 10.9909 32.9219 11.5301 33.7027 12.2295C34.4835 12.929 35.0541 13.745 35.4144 14.6776C35.8048 15.6102 36 16.6011 36 17.6503C36 18.4372 35.8799 19.1512 35.6396 19.7923C35.4294 20.4335 35.1441 21.0455 34.7838 21.6284C34.4234 22.1821 34.003 22.7213 33.5225 23.2459C33.042 23.7413 32.5465 24.2222 32.036 24.6885C31.4955 25.184 30.97 25.6794 30.4595 26.1749C29.9489 26.6412 29.4835 27.122 29.0631 27.6175C28.6727 28.1129 28.3423 28.6375 28.0721 29.1913C27.8018 29.7158 27.6517 30.2842 27.6216 30.8962V32.2951H22.5766V30.6339ZM25.0541 42C24.033 42 23.1622 41.6794 22.4414 41.0383C21.7207 40.3679 21.3604 39.5665 21.3604 38.6339C21.3604 37.6721 21.7207 36.8707 22.4414 36.2295C23.1622 35.5592 24.033 35.224 25.0541 35.224C26.045 35.224 26.8859 35.5592 27.5766 36.2295C28.2973 36.8707 28.6577 37.6721 28.6577 38.6339C28.6577 39.5665 28.2973 40.3679 27.5766 41.0383C26.8859 41.6794 26.045 42 25.0541 42Z" fill="white"/>
</svg>
