<svg width="52" height="52" viewBox="0 0 52 52" fill="none" xmlns="http://www.w3.org/2000/svg">
<circle cx="26" cy="26" r="26" fill="#1C54FC"/>
<path d="M36.8824 15.2978C36.8734 15.2544 36.8522 15.2145 36.8212 15.1827C36.7903 15.151 36.751 15.1287 36.7078 15.1185C33.8321 14.4152 27.1891 16.9213 23.5863 20.5215C22.9442 21.1583 22.3587 21.8498 21.8364 22.5881C20.7259 22.4876 19.6154 22.5722 18.6698 22.9847C15.9998 24.1587 15.223 27.2248 15.0062 28.541C14.9944 28.6131 14.9995 28.687 15.0209 28.7569C15.0422 28.8267 15.0794 28.8907 15.1296 28.9439C15.1797 28.9971 15.2414 29.038 15.3098 29.0635C15.3783 29.089 15.4517 29.0984 15.5244 29.091L19.8116 28.6203C19.8145 28.9437 19.8339 29.2667 19.8697 29.5881C19.8921 29.8102 19.9912 30.0176 20.15 30.1745L21.81 31.8345C21.967 31.9934 22.1746 32.0925 22.397 32.1148C22.7164 32.1504 23.0375 32.1698 23.3589 32.1729L22.8888 36.4564C22.8814 36.529 22.8909 36.6023 22.9164 36.6706C22.9419 36.739 22.9828 36.8006 23.0359 36.8506C23.089 36.9007 23.1529 36.9378 23.2227 36.9592C23.2924 36.9806 23.3662 36.9857 23.4382 36.9741C24.755 36.7626 27.8274 35.9857 28.9945 33.3162C29.407 32.3697 29.4916 31.265 29.3964 30.1597C30.1369 29.6379 30.8303 29.0524 31.4688 28.4099C35.0849 24.8139 37.5751 18.3168 36.8824 15.2978ZM28.2547 23.7515C27.9388 23.4357 27.7237 23.0334 27.6366 22.5954C27.5494 22.1573 27.5941 21.7033 27.765 21.2906C27.9359 20.878 28.2253 20.5253 28.5966 20.2772C28.968 20.029 29.4046 19.8966 29.8512 19.8966C30.2978 19.8966 30.7344 20.029 31.1057 20.2772C31.4771 20.5253 31.7665 20.878 31.9374 21.2906C32.1083 21.7033 32.153 22.1573 32.0658 22.5954C31.9786 23.0334 31.7635 23.4357 31.4477 23.7515C31.2382 23.9614 30.9893 24.128 30.7154 24.2416C30.4414 24.3553 30.1478 24.4138 29.8512 24.4138C29.5546 24.4138 29.2609 24.3553 28.987 24.2416C28.713 24.128 28.4642 23.9614 28.2547 23.7515V23.7515Z" fill="white"/>
<path d="M18.2592 31.0667C17.7321 31.1314 17.2416 31.3703 16.8658 31.7457C15.934 32.6806 15.8457 36.1433 15.8457 36.1433C15.8457 36.1433 19.3105 36.055 20.2428 35.1222C20.6197 34.7469 20.859 34.2557 20.9224 33.7277" fill="white"/>
</svg>
