<svg width="52" height="52" viewBox="0 0 52 52" fill="none" xmlns="http://www.w3.org/2000/svg">
<circle cx="26" cy="26" r="26" fill="#1C54FC"/>
<circle cx="26" cy="26" r="12" fill="white"/>
<path fill-rule="evenodd" clip-rule="evenodd" d="M12.5 26C12.5 18.5442 18.5442 12.5 26 12.5C29.5804 12.5 33.0142 13.9223 35.5459 16.4541C38.0777 18.9858 39.5 22.4196 39.5 26C39.5 33.4558 33.4558 39.5 26 39.5C18.5442 39.5 12.5 33.4558 12.5 26ZM26 13.5C19.0964 13.5 13.5 19.0964 13.5 26C13.5 32.9036 19.0964 38.5 26 38.5C32.9036 38.5 38.5 32.9036 38.5 26C38.5 22.6848 37.183 19.5054 34.8388 17.1612C32.4946 14.817 29.3152 13.5 26 13.5ZM26 35.6004C20.6981 35.6004 16.4 31.3023 16.4 26.0004C16.4 20.6985 20.6981 16.4004 26 16.4004C31.302 16.4004 35.6 20.6985 35.6 26.0004C35.6 28.5465 34.5886 30.9883 32.7882 32.7886C30.9879 34.589 28.5461 35.6004 26 35.6004ZM27.2 23.6002C27.2 22.2747 28.2745 21.2002 29.6 21.2002C30.9255 21.2002 32 22.2747 32 23.6002V24.2002C32 24.5316 31.7314 24.8002 31.4 24.8002H27.8C27.4686 24.8002 27.2 24.5316 27.2 24.2002V23.6002ZM24.2 24.8002C24.5314 24.8002 24.8 24.5316 24.8 24.2002V23.6002C24.8 22.2747 23.7255 21.2002 22.4 21.2002C21.0745 21.2002 20 22.2747 20 23.6002V24.2002C20 24.5316 20.2686 24.8002 20.6 24.8002H24.2ZM30.1167 27.7879L31.1607 28.3999C31.3077 28.4861 31.412 28.6296 31.4487 28.7959C31.4844 28.9584 31.4495 29.1285 31.3527 29.2639C30.1152 30.988 28.123 32.0103 26.0007 32.0103C23.8785 32.0103 21.8862 30.988 20.6487 29.2639C20.5519 29.1285 20.5171 28.9584 20.5527 28.7959C20.5894 28.6296 20.6938 28.4861 20.8407 28.3999L21.8847 27.7879C22.1477 27.6408 22.4786 27.707 22.6647 27.9439C23.4537 28.9917 24.6891 29.6079 26.0007 29.6079C27.3123 29.6079 28.5478 28.9917 29.3367 27.9439C29.5229 27.707 29.8538 27.6408 30.1167 27.7879Z" fill="#1C54FC"/>
</svg>
