<svg width="34" height="34" viewBox="0 0 34 34" fill="none" xmlns="http://www.w3.org/2000/svg">
<g filter="url(#filter0_d)">
<path fill-rule="evenodd" clip-rule="evenodd" d="M17 28C10.3726 28 5 22.6274 5 16C5 9.37258 10.3726 4 17 4C23.6274 4 29 9.37258 29 16C29 22.6274 23.6274 28 17 28ZM17.6874 10.5488C18.0779 10.1582 18.7111 10.1582 19.1016 10.5488C19.4922 10.9393 19.4922 11.5724 19.1016 11.963L15.0646 16L19.1016 20.0371C19.4922 20.4276 19.4922 21.0608 19.1016 21.4513C18.7111 21.8419 18.0779 21.8419 17.6874 21.4513L12.9432 16.7072C12.5527 16.3166 12.5527 15.6835 12.9432 15.2929L17.6874 10.5488Z" fill="white" fill-opacity="0.8"/>
</g>
<defs>
<filter id="filter0_d" x="0" y="0" width="34" height="34" filterUnits="userSpaceOnUse" color-interpolation-filters="sRGB">
<feFlood flood-opacity="0" result="BackgroundImageFix"/>
<feColorMatrix in="SourceAlpha" type="matrix" values="0 0 0 0 0 0 0 0 0 0 0 0 0 0 0 0 0 0 127 0" result="hardAlpha"/>
<feOffset dy="1"/>
<feGaussianBlur stdDeviation="2.5"/>
<feColorMatrix type="matrix" values="0 0 0 0 0 0 0 0 0 0 0 0 0 0 0 0 0 0 0.15 0"/>
<feBlend mode="normal" in2="BackgroundImageFix" result="effect1_dropShadow"/>
<feBlend mode="normal" in="SourceGraphic" in2="effect1_dropShadow" result="shape"/>
</filter>
</defs>
</svg>
