<svg width="52" height="52" viewBox="0 0 52 52" fill="none" xmlns="http://www.w3.org/2000/svg">
<circle cx="26" cy="26" r="26" fill="#1C54FC"/>
<path fill-rule="evenodd" clip-rule="evenodd" d="M20.6698 16.6666C18.46 16.6666 16.6687 18.4575 16.6687 20.6666C16.6687 22.8758 18.46 24.6666 20.6698 24.6666C22.8795 24.6666 24.6709 22.8758 24.6709 20.6666C24.6709 18.4575 22.8795 16.6666 20.6698 16.6666ZM35.3404 20.6666C35.3404 22.8758 33.549 24.6666 31.3393 24.6666C29.1295 24.6666 27.3382 22.8758 27.3382 20.6666C27.3382 18.4575 29.1295 16.6666 31.3393 16.6666C33.549 16.6666 35.3404 18.4575 35.3404 20.6666ZM40.5285 33.4L38.6079 29.5466C37.9315 28.192 36.548 27.3354 35.0336 27.3333H29.6988C29.9429 27.6507 30.1572 27.9899 30.339 28.3466L32.2729 32.2133C32.7514 33.1868 32.814 34.3128 32.4462 35.3333H39.3415C39.8037 35.3319 40.2323 35.0913 40.4741 34.6975C40.7159 34.3036 40.7365 33.8127 40.5285 33.4ZM24.3508 27.3333C25.87 27.3303 27.2598 28.1878 27.9384 29.5466L29.8589 33.4C30.067 33.8127 30.0464 34.3036 29.8046 34.6975C29.5628 35.0913 29.1342 35.3319 28.672 35.3333H12.6676C12.2053 35.3319 11.7767 35.0913 11.5349 34.6975C11.2931 34.3036 11.2725 33.8127 11.4806 33.4L13.4011 29.5466C14.0797 28.1878 15.4695 27.3303 16.9887 27.3333H24.3508Z" fill="white"/>
</svg>
