<svg width="52" height="52" viewBox="0 0 52 52" fill="none" xmlns="http://www.w3.org/2000/svg">
<circle cx="26" cy="26" r="26" fill="#1C54FC"/>
<path d="M25.49 38C24.6946 37.9993 23.9321 37.6828 23.37 37.12L19.75 33.5C18.6393 32.55 17.9999 31.1616 18 29.7V28C18 26.8954 18.8954 26 20 26V27.65C20.0004 28.2295 20.2521 28.7804 20.69 29.16L21 29.47V24.76L19.66 17.14C19.5337 16.599 19.7167 16.0325 20.1357 15.6677C20.5547 15.3028 21.141 15.1995 21.6595 15.3991C22.178 15.5986 22.5437 16.0684 22.61 16.62L24.02 24.62C24.0595 24.859 24.2678 25.0333 24.51 25.03C24.743 25.0284 24.9412 24.8597 24.98 24.63L26.39 16.63C26.4563 16.0784 26.822 15.6086 27.3405 15.4091C27.859 15.2095 28.4453 15.3128 28.8643 15.6777C29.2833 16.0425 29.4663 16.609 29.34 17.15L28.48 22C29.1958 22.0502 29.8699 22.3553 30.38 22.86L33.12 25.6C33.6877 26.167 34.0046 26.9377 34 27.74V29.41C34.0042 30.462 33.7318 31.4966 33.21 32.41L30.58 37C30.2213 37.6213 29.5574 38.0029 28.84 38H25.49Z" fill="white"/>
</svg>
