<svg width="56" height="56" viewBox="0 0 56 56" fill="none" xmlns="http://www.w3.org/2000/svg">
<circle cx="28" cy="28" r="28" fill="white"/>
<path d="M17.0869 23.1815C18.3296 23.1815 19.5117 23.1683 20.6929 23.186C21.6347 23.2001 22.5638 23.2435 23.4892 23.5197C25.2679 24.0509 26.2304 25.262 26.5684 26.959C26.8196 28.2197 26.7799 29.5051 26.3081 30.7348C25.7188 32.2725 24.5982 33.2561 22.9433 33.511C21.8986 33.6713 20.8213 33.6456 19.7584 33.6783C19.0228 33.7022 18.2853 33.6624 17.5505 33.6916C17.1628 33.7076 17.0643 33.5703 17.0796 33.2144C17.1058 32.5948 17.0869 31.9804 17.0869 31.3624V23.1815ZM19.856 25.3363C19.8 25.4647 19.7657 25.5045 19.7657 25.5444C19.7593 27.4707 19.7521 29.398 19.7657 31.3244C19.7657 31.4129 19.9536 31.5722 20.0603 31.5784C20.4817 31.6062 20.9047 31.6024 21.3256 31.5669C22.5475 31.4563 23.5245 31.0074 23.8806 29.7264C24.1196 28.9181 24.1302 28.0614 23.9113 27.2476C23.6781 26.411 23.1819 25.7117 22.2845 25.5302C21.4828 25.3673 20.6486 25.3912 19.856 25.3363Z" fill="black"/>
<path d="M44.2847 27.1341H49.119V29.095H44.2793V31.6225H49.9966C49.9966 32.2829 50.0101 32.8805 49.9803 33.4772C49.9803 33.5507 49.7508 33.6719 49.6269 33.6737C48.4846 33.6896 47.3422 33.6826 46.1998 33.6826H41.6113V23.1982C41.7532 23.1884 41.8825 23.1707 42.0144 23.1707C44.3751 23.1707 46.7348 23.176 49.0955 23.1619C49.4643 23.1619 49.6098 23.2504 49.5772 23.6293C49.5451 23.996 49.5451 24.3648 49.5772 24.7315C49.6107 25.1148 49.4471 25.1971 49.0874 25.1927C47.6748 25.1759 46.2613 25.1856 44.8478 25.1856H44.2847V27.1341Z" fill="black"/>
<path d="M8.81979 33.6657H6C6.10755 33.3479 6.19431 33.0602 6.30005 32.7805C7.20986 30.3607 8.12207 27.9409 9.03669 25.5211C9.29608 24.8342 9.55546 24.1463 9.85009 23.4726C9.89242 23.3969 9.95176 23.3317 10.0236 23.2819C10.0955 23.232 10.178 23.1989 10.2649 23.1849C10.9708 23.1548 11.6784 23.1849 12.3843 23.1645C12.6825 23.1557 12.8018 23.2769 12.8958 23.5337C13.4381 25.0091 13.9879 26.4808 14.5452 27.9486C15.1842 29.6386 15.8322 31.3268 16.4739 33.0159C16.5507 33.2178 16.6104 33.4249 16.6962 33.6834C15.7807 33.6834 14.9284 33.6967 14.0753 33.6684C13.9569 33.664 13.7951 33.4736 13.74 33.3364C13.6089 33.0097 13.5303 32.6627 13.4309 32.3236C13.3658 32.0997 13.2356 32.0085 12.979 32.012C11.8944 32.0289 10.8099 32.0324 9.7317 32.012C9.40544 32.0058 9.27981 32.1395 9.20751 32.4193C9.09182 32.838 8.94812 33.2523 8.81979 33.6657ZM9.9947 30.1158H12.716L11.3296 25.7079C10.8632 27.2492 10.4385 28.6559 9.99651 30.1158H9.9947Z" fill="black"/>
<path d="M36.9193 25.5621L34.931 26.5359C34.5252 26.1251 34.2017 25.6967 33.7832 25.393C32.6662 24.5794 31.005 24.9628 30.3037 26.3668C29.6295 27.7116 29.662 29.1041 30.3037 30.4533C31.0818 32.0849 33.3684 32.2761 34.4692 30.8233C34.603 30.6463 34.7213 30.4621 34.8687 30.2479L36.9374 31.2854C35.1877 34.4131 30.8369 34.9408 28.497 32.331C27.7496 31.497 27.3556 30.4834 27.2462 29.3697C27.0862 27.7443 27.2869 26.2021 28.3217 24.8547C29.5183 23.2958 31.1406 22.6575 33.0873 22.8903C34.8036 23.0983 36.0716 24.0066 36.9193 25.5621Z" fill="black"/>
<path d="M40.3711 25.2069C39.9292 24.9014 39.5939 24.6837 39.2739 24.4464C39.0498 24.28 38.8519 24.2755 38.6241 24.4402C38.2922 24.6872 37.9319 24.8952 37.5504 25.0599C37.6734 24.6916 37.7854 24.3198 37.9228 23.9568C38.0132 23.7143 37.9824 23.5532 37.7493 23.3982C37.4049 23.1707 37.0859 22.9051 36.6367 22.5652C37.1474 22.5652 37.5278 22.551 37.9065 22.5652C38.193 22.5793 38.3738 22.5324 38.4624 22.2111C38.5645 21.8357 38.7525 21.4825 38.9531 21C39.1266 21.4745 39.2767 21.8446 39.396 22.2243C39.48 22.4899 39.6282 22.5882 39.9174 22.5687C40.3142 22.5422 40.7146 22.5625 41.2532 22.5625C40.8104 22.8874 40.4949 23.1521 40.1461 23.3593C39.8985 23.5089 39.8849 23.6806 39.959 23.909C40.081 24.3074 40.2039 24.6952 40.3711 25.2069Z" fill="black"/>
</svg>
