<svg width="56" height="56" viewBox="0 0 56 56" fill="none" xmlns="http://www.w3.org/2000/svg">
<circle cx="28" cy="28" r="28" fill="white"/>
<path d="M30.6074 8.00269H31.0109C33.696 8.00269 36.3812 7.99444 39.0663 8.00682C40.2698 8.01232 41.4564 8.13956 42.6083 8.48825C44.9961 9.21864 46.5692 10.676 47.3046 12.8101C48.1961 15.396 48.2607 18.0232 47.3131 20.6043C46.1934 23.6566 43.7257 25.3148 40.2129 25.7549C39.4399 25.8397 38.6616 25.8794 37.8828 25.8739C35.6196 25.8883 33.3563 25.8787 31.0931 25.8787H30.6074V8.00269ZM33.4401 23.649H33.8605C35.6119 23.6449 37.3656 23.6999 39.1132 23.6222C41.7837 23.5039 43.6789 22.1669 44.4927 19.9008C45.1667 18.0267 45.1659 16.1182 44.6464 14.2193C43.9924 11.8121 42.0665 10.3603 39.3053 10.2406C37.3933 10.1581 35.4743 10.1925 33.5585 10.1767C33.5158 10.1815 33.474 10.1909 33.434 10.2049L33.4401 23.649Z" fill="black"/>
<path d="M46.4093 47.6743H43.8025V40.38H33.7052V47.6702H31.0039V29.8575C31.103 29.8506 31.1891 29.8389 31.276 29.8389C34.4975 29.8389 37.7198 29.8251 40.9414 29.8526C42.3723 29.8643 43.7364 30.1504 44.8607 31.017C46.1334 31.9998 46.5515 33.2907 46.4631 34.7453C46.3632 36.3423 45.5878 37.5603 43.937 38.2728C43.8963 38.29 43.8602 38.3168 43.7264 38.3973H46.4108L46.4093 47.6743ZM33.7159 38.0548C35.9039 38.0548 38.0488 38.0692 40.1936 38.0472C40.9468 38.0389 41.6991 37.9296 42.36 37.5658C43.4359 36.9709 43.9954 35.6813 43.7372 34.4344C43.4705 33.147 42.5952 32.3464 41.1804 32.1195C40.7899 32.0606 40.3945 32.0318 39.9984 32.0335C38.0426 32.0246 36.0875 32.0294 34.1317 32.0294H33.7159V38.0548Z" fill="black"/>
<path d="M25.9448 25.8923C24.9842 25.8923 24.0551 25.8998 23.126 25.8792C23.0368 25.8792 22.9169 25.7066 22.8716 25.5945C22.2606 24.0931 21.6535 22.5911 21.0633 21.0835C20.968 20.8394 20.8443 20.7555 20.5507 20.7575C18.1596 20.769 15.7686 20.769 13.3775 20.7575C13.1101 20.7575 12.9833 20.818 12.8903 21.0567C12.2962 22.5752 11.6745 24.0828 11.0774 25.602C10.9898 25.8228 10.8784 25.9033 10.6163 25.8985C9.78708 25.8833 8.9571 25.893 8.06641 25.893C8.1179 25.7554 8.15248 25.6488 8.19398 25.5491C10.5686 19.8132 12.9415 14.0767 15.3126 8.3395C15.4094 8.10429 15.5293 8.00112 15.8283 8.00869C16.6329 8.02932 17.4421 8.02038 18.2444 8.00869C18.4466 8.00869 18.5672 8.04583 18.6456 8.23427C21.0664 14.0792 23.4918 19.9217 25.9218 25.7616C25.9323 25.8047 25.94 25.8483 25.9448 25.8923ZM20.0458 18.565C19.0129 15.946 17.9939 13.3628 16.9503 10.7184L13.8986 18.565H20.0458Z" fill="black"/>
<path d="M25.8178 35.2054C24.9025 35.2054 24.0502 35.2123 23.1918 35.1965C23.095 35.1965 22.9467 35.0817 22.9136 34.9902C21.9031 32.2626 19.2072 31.3836 16.5074 31.6587C14.1189 31.9036 12.5112 33.1188 11.6758 35.094C10.6338 37.5699 10.6314 40.0754 11.8349 42.5087C13.093 45.0533 15.805 46.0031 18.4878 45.7349C20.9317 45.4908 22.441 44.2363 23.1619 42.1497H25.9285C25.8647 42.3642 25.8117 42.5678 25.7433 42.7686C24.682 45.8635 21.9346 47.7748 18.3265 47.9742C16.7748 48.0602 15.2617 47.9426 13.8038 47.4584C11.5337 46.7019 9.91444 45.2989 9.02989 43.3023C7.69501 40.2886 7.61892 37.2096 9.02989 34.213C10.49 31.1181 13.2428 29.5824 16.9708 29.4277C18.3211 29.3719 19.6513 29.4923 20.9363 29.8857C23.6007 30.7007 25.0862 32.4372 25.7263 34.8258C25.7579 34.9345 25.7801 35.0459 25.8178 35.2054Z" fill="black"/>
</svg>
