<svg width="56" height="56" viewBox="0 0 56 56" fill="none" xmlns="http://www.w3.org/2000/svg">
<circle cx="28" cy="28" r="28" fill="black"/>
<path d="M32.0213 37.9885C32.7874 36.1926 33.533 34.4418 34.2786 32.6909L34.1953 32.6155L28.8723 35.7415C28.8591 35.6269 28.8445 35.5602 28.843 35.4935C28.843 34.0748 28.8518 32.6561 28.8357 31.2375C28.8264 31.1214 28.8548 31.0055 28.917 30.9068C28.9791 30.808 29.0716 30.7317 29.1808 30.6892C30.9 29.7637 32.612 28.8252 34.3254 27.8881C34.4716 27.8054 34.6178 27.7024 34.8298 27.5617C34.1924 27.2107 33.6149 26.8901 33.0345 26.5724C31.7187 25.8471 30.403 25.1421 29.0872 24.4082C29.0198 24.3613 28.9636 24.3004 28.9224 24.2298C28.8813 24.1591 28.8562 24.0804 28.8489 23.9991C28.8328 22.431 28.8387 20.8629 28.8387 19.2209L34.1734 22.3556L34.264 22.2816L32.0272 17.0059H46.8412L44.5781 22.2831L44.6395 22.3759L49.9771 19.2441C49.9874 19.3993 50.0005 19.5038 50.0005 19.6082C50.0005 21.0515 49.9918 22.4948 50.0005 23.9382C50.0005 24.2283 49.8865 24.3559 49.6497 24.4836C47.9304 25.4091 46.2214 26.3476 44.5079 27.2846C44.3617 27.3615 44.2389 27.4602 44.0387 27.5922C44.4539 27.8301 44.8135 28.0462 45.1834 28.2478C46.7082 29.0805 48.2389 29.9058 49.7608 30.7457C49.8208 30.7812 49.8723 30.8291 49.9119 30.8862C49.9515 30.9433 49.9783 31.0082 49.9903 31.0765C50.0049 32.6054 50.0005 34.1357 50.0005 35.7517L44.6658 32.617L44.5767 32.6808L46.8456 37.9885H32.0213ZM34.495 22.5877C34.495 23.6292 34.495 24.6301 34.495 25.6339C34.495 25.8906 34.6807 25.8587 34.84 25.8587C37.9111 25.8587 40.9812 25.8587 44.0503 25.8587C44.334 25.8587 44.4217 25.7572 44.4173 25.483C44.4041 24.6678 44.3954 23.8526 44.4173 23.0388C44.4305 22.6689 44.3018 22.5761 43.9436 22.5775C41.4291 22.5935 38.913 22.5891 36.3985 22.5906L34.495 22.5877ZM34.495 29.153C34.495 30.1902 34.495 31.1548 34.495 32.1194C34.495 32.3921 34.6412 32.4211 34.8575 32.4211C37.9208 32.4211 40.9832 32.4211 44.0445 32.4211C44.3457 32.4211 44.4348 32.3065 44.429 32.0193C44.4144 31.2288 44.429 30.4382 44.429 29.6476C44.429 29.153 44.429 29.1515 43.9159 29.1501H34.4935L34.495 29.153Z" fill="#00FF00"/>
<path d="M15.9633 29.9V25.4728C16.5919 25.8369 17.1884 26.1778 17.7805 26.5259C19.7775 27.7019 21.7755 28.8788 23.7745 30.0566C24.8271 30.6775 25.8841 31.2896 26.9323 31.9163C26.9891 31.9503 27.0381 31.9958 27.0762 32.0497C27.1142 32.1037 27.1404 32.165 27.1531 32.2296C27.1692 33.3698 27.1633 34.5114 27.1633 35.7531L21.8243 32.6213L21.7336 32.6851L23.9923 38H9.16368L11.4195 32.6996L11.3522 32.614L6 35.7502V19.2266L11.3552 22.3773L11.4268 22.3091L9.16514 17H23.988C23.2321 18.7697 22.4865 20.5176 21.7395 22.2656L21.8272 22.3555L27.1692 19.2223V24.7011C27.1692 24.8911 27.2028 25.0812 26.8987 25.0812C25.1444 25.0812 23.39 25.0812 21.5655 25.0812C21.5655 24.4908 21.5655 23.9207 21.5655 23.3405C21.5655 22.4382 21.6517 22.5905 20.8009 22.5891C17.8643 22.5833 14.9282 22.5833 11.9926 22.5891C11.8946 22.5891 11.7952 22.6036 11.6739 22.6123C11.6622 22.7385 11.6461 22.8473 11.6461 22.9575C11.6461 25.9689 11.6534 28.9803 11.6461 31.9917C11.6461 32.3457 11.7557 32.4356 12.0993 32.4269C15.0846 32.4153 18.0714 32.4269 21.0582 32.4269C21.5699 32.4269 21.5713 32.4269 21.5728 31.9351C21.5728 31.3825 21.5582 30.8298 21.5816 30.2786C21.5933 29.9711 21.4763 29.8971 21.1854 29.9C19.6035 29.9101 18.0217 29.9 16.4399 29.9H15.9633Z" fill="#00FF00"/>
</svg>
