<svg width="22" height="23" viewBox="0 0 22 23" fill="none" xmlns="http://www.w3.org/2000/svg">
<path d="M16 1.12744H6C3.23858 1.12744 1 3.36602 1 6.12744V16.1274C1 18.8889 3.23858 21.1274 6 21.1274H16C18.7614 21.1274 21 18.8889 21 16.1274V6.12744C21 3.36602 18.7614 1.12744 16 1.12744Z" stroke="black" stroke-width="2" stroke-linecap="round" stroke-linejoin="round"/>
<path d="M15.0002 10.4973C15.1236 11.3295 14.9815 12.1795 14.594 12.9263C14.2065 13.6731 13.5933 14.2787 12.8418 14.6569C12.0903 15.0352 11.2386 15.1669 10.408 15.0332C9.57732 14.8995 8.80996 14.5073 8.21503 13.9124C7.62011 13.3175 7.22793 12.5501 7.09426 11.7195C6.9606 10.8888 7.09226 10.0371 7.47052 9.28563C7.84878 8.53411 8.45438 7.921 9.20118 7.5335C9.94798 7.146 10.7979 7.00384 11.6302 7.12725C12.4791 7.25314 13.265 7.64872 13.8719 8.25556C14.4787 8.8624 14.8743 9.64833 15.0002 10.4973Z" stroke="black" stroke-width="2" stroke-linecap="round" stroke-linejoin="round"/>
<path d="M16.5 5.62744H16.51" stroke="black" stroke-width="2" stroke-linecap="round" stroke-linejoin="round"/>
</svg>
