<svg width="24" height="21" viewBox="0 0 24 21" fill="none" xmlns="http://www.w3.org/2000/svg">
<path d="M12.7864 15.8446L12.0999 15.1175L12.0998 15.1175L12.0995 15.1178L12.0985 15.1188L12.0945 15.1226L12.0785 15.1377L12.0167 15.196L11.7871 15.4127L11.0079 16.1485L9.1607 17.8924C8.78661 16.7878 8.26978 15.2398 7.83685 13.9391C7.60816 13.2519 7.40311 12.6344 7.25523 12.1887L7.08049 11.6618L7.03316 11.5189L7.02088 11.4818L7.01775 11.4724L7.01697 11.47L7.01677 11.4694L7.01672 11.4693L6.0674 11.7836M12.7864 15.8446L13.3777 15.0382L13.3778 15.0382L13.3783 15.0386L13.3802 15.04L13.3879 15.0456L13.4181 15.0677L13.5347 15.1532L13.9665 15.4692C14.3327 15.737 14.842 16.1091 15.4145 16.5262C16.5606 17.3612 17.9563 18.374 18.9645 19.0921L18.3844 19.9066L18.9623 19.0905C19.0183 19.1301 19.0843 19.136 19.1364 19.1167C19.1921 19.0951 19.227 19.0504 19.2374 19.0029C19.6711 16.9646 20.4145 13.3635 21.1493 9.8031L21.1907 9.60255C21.8636 6.34165 22.5243 3.14001 22.9253 1.24443C20.8795 2.00314 17.2196 3.37136 13.3483 4.81859L12.4914 5.1389C8.34283 6.68977 4.07198 8.28582 1.38132 9.28325C2.44223 9.60368 3.59019 9.95909 4.51594 10.248C5.05326 10.4157 5.51647 10.5612 5.8454 10.6648L6.23067 10.7864L6.33375 10.819L6.36043 10.8274L6.36725 10.8296L6.36899 10.8302L6.36944 10.8303L6.36955 10.8303L6.0674 11.7836M12.7864 15.8446L13.3777 15.0381L12.7057 14.5455L12.0999 15.1175L12.7864 15.8446ZM6.0674 11.7836L7.01671 11.4692L6.85623 10.9846L6.3696 10.8303L6.0674 11.7836Z" stroke="black" stroke-width="2"/>
</svg>
