<svg width="28" height="22" viewBox="0 0 28 22" fill="none" xmlns="http://www.w3.org/2000/svg">
<path d="M7.47477 12.8218L7.80382 11.7837L7.80369 11.7836L7.8032 11.7835L7.80129 11.7829L7.79379 11.7805L7.76444 11.7712L7.65107 11.7353L7.22728 11.6016C6.86547 11.4877 6.35597 11.3276 5.76494 11.1431C4.73753 10.8225 3.46131 10.4274 2.28569 10.0725C5.24346 8.97609 9.95802 7.21418 14.5372 5.50231L15.4807 5.14961C18.0877 4.17497 20.6076 3.23292 22.6862 2.45738C20.505 4.24077 18.1084 6.04147 16.037 7.54679C14.5683 8.61409 13.2704 9.52763 12.34 10.1741C11.8749 10.4973 11.5019 10.7536 11.2455 10.9289C11.1173 11.0165 11.0183 11.0838 10.9516 11.1291L10.8761 11.1803L10.8572 11.193L10.8526 11.1961L10.8515 11.1969L10.8513 11.197L11.46 12.1L10.8513 11.197L10.4335 11.4786L10.3777 11.9793L9.86638 16.5636C9.71061 16.0969 9.55635 15.6339 9.41071 15.1963C9.15916 14.4404 8.9336 13.7612 8.77093 13.2709L8.57873 12.6912L8.52667 12.5341L8.51315 12.4933L8.50972 12.4829L8.50885 12.4803L8.50864 12.4797L8.50858 12.4795L7.47477 12.8218ZM7.47477 12.8218L7.80387 11.7837L8.33382 11.9517L8.50857 12.4795L7.47477 12.8218ZM14.8655 17.2889L15.5095 16.4107L15.5096 16.4108L15.5101 16.4112L15.5122 16.4127L15.5207 16.4189L15.5539 16.4432L15.6821 16.5372L16.1571 16.8848C16.5599 17.1794 17.1201 17.5887 17.7499 18.0476C19.0105 18.9661 20.5458 20.0801 21.6549 20.8701L21.0232 21.7571L21.6525 20.8683C21.7171 20.9141 21.7936 20.921 21.8543 20.8985C21.9192 20.8733 21.9602 20.821 21.9723 20.7649C22.4494 18.5227 23.267 14.5616 24.0752 10.6455L24.1206 10.4256C24.7011 7.61272 25.2733 4.83997 25.7059 2.76857C23.0814 5.0278 19.9216 7.41617 17.3174 9.30869C15.8337 10.3869 14.523 11.3095 13.5829 11.9627C13.12 12.2843 12.7468 12.5408 12.4867 12.7186L11.8237 18.6631L12.9167 17.6312L13.7739 16.8219L14.0264 16.5834L14.0943 16.5193L14.1119 16.5027L14.1164 16.4985L14.1175 16.4974L14.1178 16.4971L14.1179 16.4971L14.8655 17.2889ZM14.8655 17.2889L15.5094 16.4107L14.7777 15.8741L14.1179 16.4971L14.8655 17.2889Z" stroke="black" stroke-width="2.178"/>
</svg>
