<svg width="27" height="22" viewBox="0 0 27 22" fill="none" xmlns="http://www.w3.org/2000/svg">
<path d="M0 10.25V10C0.0350433 9.83707 0.112778 9.68638 0.22524 9.56338C0.337701 9.44037 0.480844 9.34948 0.64 9.30001C1.54 8.98001 2.44 8.64001 3.33 8.30001L10.63 5.57001L17.2 3.12001L23.74 0.610014C24.25 0.430014 24.74 0.230014 25.26 0.0600138C25.4041 0.0124184 25.5582 0.00378175 25.7066 0.0349805C25.8551 0.0661793 25.9927 0.136103 26.1054 0.237655C26.2181 0.339207 26.302 0.468772 26.3485 0.613202C26.3949 0.757631 26.4024 0.911784 26.37 1.06001L25.92 3.22001C25.63 4.62001 25.33 6.01001 25.05 7.41001C24.8 8.59001 24.56 9.77001 24.32 10.95C24.08 12.13 23.87 13.12 23.64 14.2L22.92 17.7C22.69 18.77 22.47 19.85 22.24 20.92C22.2007 21.146 22.1022 21.3575 21.9547 21.5332C21.8072 21.7088 21.6158 21.8423 21.4 21.92L21.17 21.99H20.79C20.4412 21.9009 20.1188 21.7295 19.85 21.49L19.56 21.28L14.56 17.65L14.07 17.29L12.22 19L10.63 20.49C10.525 20.5899 10.3975 20.663 10.2582 20.7031C10.1189 20.7431 9.97201 20.7489 9.83 20.72C9.65461 20.6828 9.49245 20.5991 9.36051 20.4777C9.22856 20.3563 9.13168 20.2017 9.08 20.03L8.57 18.52L6.71 13C6.7001 12.9588 6.67898 12.921 6.64898 12.891C6.61898 12.861 6.58126 12.8399 6.54 12.83L4.7 12.21L0.71 11C0.571564 10.9627 0.442767 10.8961 0.332343 10.8046C0.221918 10.7132 0.132448 10.5991 0.07 10.47C0.0417658 10.3983 0.0183798 10.3248 0 10.25H0ZM20.38 19.25L23.53 3.94001C22.89 4.46001 22.25 4.94001 21.59 5.50001C19.74 7.00001 17.88 8.34001 16 9.69001C14.59 10.69 13.16 11.69 11.74 12.69C11.7031 12.7204 11.6782 12.7629 11.67 12.81L11.58 13.61C11.53 14.12 11.47 14.61 11.41 15.13L11.26 16.5C11.26 16.65 11.26 16.8 11.26 16.98L13.93 14.47L20.38 19.25ZM9.38 13.99L9.47 13.17C9.53 12.66 9.59 12.17 9.64 11.63C9.64289 11.6024 9.65149 11.5757 9.66527 11.5516C9.67904 11.5275 9.69768 11.5065 9.72 11.49C12.6333 9.49001 15.4867 7.45001 18.28 5.37001L19 4.71001L4.89 10H5L8.3 11C8.32761 11.0068 8.35306 11.0205 8.37402 11.0397C8.39499 11.0589 8.4108 11.0831 8.42 11.11C8.65 11.82 8.88 12.53 9.12 13.23C9.19 13.51 9.26 13.72 9.34 13.94L9.38 13.99Z" fill="black"/>
</svg>
