<svg width="24" height="16" viewBox="0 0 24 16" fill="none" xmlns="http://www.w3.org/2000/svg">
<path d="M22.4821 2.03022C22.6453 1.52105 22.4821 1.15091 21.7602 1.15091H19.3599C18.7545 1.15091 18.4749 1.47501 18.3117 1.82168C18.3117 1.82168 17 4.00584 16.5 5.12744C16 6.24904 14.5374 7.44282 14.2344 7.44282C14.2344 7.44282 13.8613 7.25775 13.8613 6.74904V2.0063C13.8613 1.40505 13.6752 1.12744 13.1623 1.12744H9.38751C9.01443 1.12744 8.78159 1.40505 8.78159 1.68265C8.78159 2.26088 9.64372 2.39991 9.73676 4.01904C9.73676 4.01904 10.2158 6.24947 9.73676 7.53716C9.59985 7.9052 9.59926 8.43994 9.29401 8.43994C8.47864 8.43994 6.49817 5.45581 5.31017 2.0555C5.07917 1.38202 4.84451 1.12744 4.23859 1.12744H1.81538C1.11642 1.12744 1 1.45109 1 1.79821C1 2.42293 1.81538 5.56866 4.79776 9.73227C6.77822 12.576 9.59743 14.1044 12.1371 14.1044C13.6752 14.1044 13.4506 13.8235 13.8613 13.1791V11.0278C13.8613 10.334 14.0011 10.2184 14.4906 10.2184C14.8399 10.2184 15.4691 10.403 16.8904 11.768C18.5212 13.3872 18.8008 14.1274 19.7097 14.1274H22.1095C22.8084 14.1274 23.1348 13.7803 22.9482 13.1096C22.7388 12.4388 21.9463 11.4674 20.921 10.3109C20.3619 9.66366 19.5231 8.9464 19.2669 8.59928C18.9176 8.13661 19.0107 7.95154 19.2669 7.53536C19.2435 7.53536 22.1796 3.41779 22.4821 2.02841" stroke="black" stroke-width="2"/>
</svg>
