<svg width="24" height="18" viewBox="0 0 24 18" fill="none" xmlns="http://www.w3.org/2000/svg">
<path d="M22.5401 3.54744C22.4213 3.07285 22.1794 2.63801 21.8387 2.28685C21.4981 1.93568 21.0708 1.68063 20.6001 1.54744C18.8801 1.12744 12.0001 1.12744 12.0001 1.12744C12.0001 1.12744 5.12008 1.12744 3.40008 1.58744C2.92933 1.72063 2.50206 1.97568 2.16143 2.32685C1.8208 2.67801 1.57887 3.11285 1.46008 3.58744C1.1453 5.333 0.991319 7.10375 1.00008 8.87744C0.988863 10.6645 1.14285 12.4487 1.46008 14.2074C1.59104 14.6673 1.83839 15.0856 2.17823 15.4219C2.51806 15.7583 2.9389 16.0013 3.40008 16.1274C5.12008 16.5874 12.0001 16.5874 12.0001 16.5874C12.0001 16.5874 18.8801 16.5874 20.6001 16.1274C21.0708 15.9943 21.4981 15.7392 21.8387 15.388C22.1794 15.0369 22.4213 14.602 22.5401 14.1274C22.8524 12.395 23.0064 10.6378 23.0001 8.87744C23.0113 7.0904 22.8573 5.30614 22.5401 3.54744V3.54744Z" stroke="black" stroke-width="2" stroke-linecap="round" stroke-linejoin="round"/>
<path d="M9.75 12.1474L15.5 8.87742L9.75 5.60742V12.1474Z" stroke="black" stroke-width="2" stroke-linecap="round" stroke-linejoin="round"/>
</svg>
