<svg width="200" height="40" viewBox="0 0 200 40" fill="none" xmlns="http://www.w3.org/2000/svg">
<path fill-rule="evenodd" clip-rule="evenodd" d="M195.055 0.359009C195.841 0.359009 196.611 0.557511 197.361 0.95664C198.101 1.34795 198.71 1.94422 199.113 2.67247C199.531 3.41475 199.741 4.19085 199.741 4.99861C199.741 5.79687 199.535 6.56555 199.122 7.30151C198.722 8.02614 198.121 8.62231 197.389 9.01946C196.678 9.4196 195.874 9.63059 195.055 9.63188C194.237 9.6304 193.433 9.41941 192.721 9.01946C191.988 8.62247 191.386 8.02638 190.984 7.30151C190.579 6.60007 190.365 5.80652 190.363 4.99861C190.363 4.19085 190.573 3.41475 190.993 2.67247C191.398 1.94374 192.008 1.34747 192.75 0.95664C193.456 0.569572 194.248 0.364073 195.055 0.359009ZM195.055 1.12664C194.396 1.12664 193.756 1.29453 193.132 1.62819C192.509 1.96185 192.021 2.44017 191.669 3.05894C191.316 3.67979 191.141 4.326 191.141 4.99861C191.141 5.66487 191.314 6.30475 191.66 6.91718C192.004 7.5296 192.487 8.00791 193.109 8.35002C193.702 8.68414 194.372 8.86092 195.054 8.86318C195.736 8.86068 196.407 8.68391 196.999 8.35002C197.609 8.01847 198.111 7.52132 198.445 6.91718C198.789 6.30475 198.96 5.66487 198.96 4.99861C198.96 4.32494 198.786 3.67873 198.436 3.05894C198.086 2.44017 197.598 1.96185 196.973 1.62819C196.347 1.29453 195.709 1.12664 195.055 1.12664ZM192.999 7.56021V2.57217H194.73C195.324 2.57217 195.754 2.61652 196.018 2.70838C196.283 2.80024 196.493 2.96179 196.652 3.19092C196.808 3.42217 196.888 3.66501 196.888 3.92266C196.888 4.288 196.757 4.60475 196.494 4.87402C196.23 5.14539 195.881 5.29532 195.446 5.33017C195.625 5.40301 195.769 5.49066 195.875 5.59414C196.077 5.79158 196.326 6.12101 196.621 6.58457L197.236 7.56021H196.241L195.793 6.77358C195.441 6.15692 195.159 5.76941 194.942 5.61419C194.794 5.49911 194.575 5.44207 194.29 5.44207H193.813V7.56021H192.999ZM193.813 4.75365H194.801C195.272 4.75365 195.593 4.68184 195.766 4.54351C195.85 4.47748 195.917 4.39308 195.961 4.29706C196.006 4.20101 196.028 4.09595 196.025 3.99024C196.025 3.84866 195.982 3.71038 195.9 3.59426C195.814 3.47609 195.694 3.38574 195.556 3.33452C195.407 3.27539 195.136 3.24793 194.736 3.24793H193.813V4.75365ZM104.661 0.0538532H104.817V10.7142H93.927V0.0538532H104.661ZM57.2667 22.5972L82.4533 24.1419C83.5005 24.1419 84.3569 24.9899 84.3569 26.0247C84.3569 27.0595 83.5005 27.9073 82.4533 27.9073H46.5583V14.0307C47.6612 18.3156 51.4576 21.8201 57.2667 22.5972ZM46.5583 38.6278H83.2549C88.6039 38.6278 93.0954 34.8108 94.0851 29.7953C94.9583 34.7939 99.3795 38.6278 104.662 38.6278H128.108C133.346 38.6278 137.74 34.8562 138.662 29.9167V38.6278H176.254C182.323 38.6278 187.287 33.7179 187.287 27.7141V26.1694C187.287 20.1676 182.323 15.2577 176.254 15.2577L174.192 15.1679C162.496 14.659 150.835 14.0761 139.154 13.4796C140.064 18.0125 143.932 21.7863 149.988 22.5972L175.451 24.1419C175.956 24.1433 176.44 24.3421 176.797 24.6948C177.154 25.0475 177.355 25.5257 177.357 26.0247C177.355 26.5238 177.154 27.0019 176.797 27.3546C176.44 27.7073 175.956 27.9059 175.451 27.9073H138.841V13.4637L127.953 12.9083V25.2624C127.95 26.0953 127.615 26.8934 127.019 27.4826C126.423 28.0715 125.616 28.4035 124.774 28.4057H107.996C107.154 28.4038 106.347 28.072 105.751 27.4828C105.155 26.8939 104.82 26.0953 104.818 25.2624V11.7278L93.927 11.1724V23.4187C92.6822 18.7865 88.3583 15.4467 83.2549 15.4467L35.2937 12.3455V38.6289H46.5583V38.6278ZM92.1964 10.7194V0H57.2667C52.1101 0 47.752 3.54464 46.5583 8.29301V0.0527979H25.7087L18.6035 10.7142H46.2369L92.1964 10.7194ZM30.6945 12.0816L13.4724 38.6278H0L18.169 11.3667L30.6945 12.0816ZM187.286 10.7194V0H149.987C143.986 0 139.065 4.80327 138.957 10.7142L187.286 10.7194ZM127.951 10.7142V0.0538532H138.84V10.7142H127.951Z" fill="#666666"/>
</svg>
