<svg width="200" height="36" viewBox="0 0 200 36" fill="none" xmlns="http://www.w3.org/2000/svg">
<path d="M21.1791 16.4926L20.6304 16.288L21.0694 15.8789C22.3862 14.8561 24.2517 12.7083 24.2517 8.51482C24.2517 3.29858 20.0817 0.12793 13.1683 0.12793H0V35.0052H13.4976C21.7279 35.0052 26.3366 31.1186 26.3366 24.2658C26.4464 20.9928 24.3615 17.9245 21.1791 16.4926ZM16.8994 9.74218C16.8994 11.5832 16.3507 12.8105 15.2533 13.3219C14.7047 13.6288 14.0462 13.7311 13.3878 13.7311H7.35232V5.34416H13.4976C15.802 5.34416 16.8994 7.08292 16.8994 9.74218ZM7.35232 29.6866V19.2541H13.6073C17.3383 19.2541 19.0941 21.1974 19.0941 24.5726C19.0941 27.9478 17.6675 29.482 14.4852 29.6866H7.35232Z" fill="#666666"/>
<path d="M97.4441 0.741211V6.162H102.821V23.3448C102.821 27.2314 102.053 29.277 97.9928 29.277C96.5662 29.277 94.2617 29.0726 94.2617 29.0726V34.9024C95.4687 35.2092 96.7858 35.3116 97.9928 35.4138C107.211 35.4138 110.173 31.118 110.173 22.9358C110.173 22.9358 110.173 5.85516 110.173 0.843491L97.4441 0.741211Z" fill="#666666"/>
<path d="M165.921 17.6171C164.714 15.6738 155.387 0.741211 154.728 0.741211H148.583V35.0044H155.716V13.3214C157.252 15.7761 165.921 28.97 165.921 28.97C165.921 28.97 174.152 15.8784 175.688 13.4237V35.0044H182.821V0.741211H176.346C176.456 0.741211 166.689 16.2875 165.921 17.6171Z" fill="#666666"/>
<path d="M198.073 0.741211H190.721V35.0044H198.073V0.741211Z" fill="#666666"/>
<path d="M88.1187 14.8556C88.6674 12.6055 88.6674 10.3554 88.2285 8.10524C86.9117 2.99134 81.9736 0.741211 77.1453 0.741211H63.8672V34.9022H71.1097V22.2196H76.1576L76.377 22.731L82.0834 35.0044H90.5329C90.5329 35.0044 83.4002 21.7082 82.9612 20.89C85.4851 19.7649 87.4604 17.6171 88.1187 14.8556ZM71.1097 6.05968H76.377C79.6691 6.05968 81.5346 7.90068 81.5346 11.3781C81.5346 14.8556 79.6691 16.6966 76.377 16.6966H71.1097V6.05968Z" fill="#666666"/>
<path d="M128.939 0.0268555C121.038 0.0268555 116.539 3.9134 116.539 10.5614V25.1871C116.539 31.8351 121.038 35.7217 128.939 35.7217C136.84 35.7217 141.339 31.8351 141.339 25.1871V10.5614C141.339 3.9134 136.84 0.0268555 128.939 0.0268555ZM123.782 10.3569C123.782 7.39082 125.428 5.95894 128.939 5.95894C132.451 5.95894 134.097 7.39082 134.097 10.3569V25.4939C134.097 28.4601 132.451 29.8919 128.939 29.8919C125.428 29.8919 123.782 28.4601 123.782 25.4939V10.3569Z" fill="#666666"/>
<path d="M44.443 0.0268555C36.5421 0.0268555 32.043 3.9134 32.043 10.5614V25.1871C32.043 31.8351 36.5421 35.7217 44.443 35.7217C52.344 35.7217 56.8432 31.8351 56.8432 25.1871V10.5614C56.8432 3.9134 52.344 0.0268555 44.443 0.0268555ZM39.2855 10.3569C39.2855 7.39082 40.9315 5.95894 44.443 5.95894C47.9547 5.95894 49.6006 7.39082 49.6006 10.3569V25.4939C49.6006 28.4601 47.9547 29.8919 44.443 29.8919C40.9315 29.8919 39.2855 28.4601 39.2855 25.4939V10.3569Z" fill="#666666"/>
</svg>
