<svg width="100" height="100" viewBox="0 0 100 100" fill="none" xmlns="http://www.w3.org/2000/svg">
<path fill-rule="evenodd" clip-rule="evenodd" d="M91.4642 49.9994C96.7688 45.4123 98.8283 37.7628 96.0025 30.9443C93.1777 24.1268 86.3147 20.1731 79.3213 20.6809C79.8292 13.6866 75.874 6.82201 69.055 3.99771C62.2375 1.1729 54.5875 3.23094 50.0008 8.53454C45.4142 3.23094 37.7657 1.17238 30.9462 3.99771C24.1272 6.82201 20.174 13.6867 20.6813 20.6794C13.6876 20.1726 6.82294 24.1263 3.99916 30.9453C1.17538 37.7643 3.23239 45.4123 8.53651 49.9994C3.23239 54.5876 1.17383 62.2366 3.99916 69.0556C6.82191 75.8719 13.6829 79.8258 20.6757 79.3199C20.1693 86.3153 24.123 93.1824 30.9457 96.0094C37.7662 98.8343 45.4173 96.7746 50.0065 91.4679C54.5932 96.7684 62.2412 98.8243 69.0565 96.0021C75.875 93.1763 79.8287 86.3133 79.3218 79.3199C86.3152 79.8268 93.1793 75.8726 96.0052 69.0546C98.8283 62.2356 96.7683 54.5876 91.4642 49.9994Z" fill="#C1C1C1"/>
<path fill-rule="evenodd" clip-rule="evenodd" d="M88.5127 49.9989C93.5242 45.7708 95.4847 38.6171 92.8472 32.2506C90.2107 25.8839 83.7642 22.2109 77.2305 22.7661C77.7855 16.2339 74.1135 9.78899 67.7475 7.15197C61.3803 4.51497 54.2268 6.47599 49.9997 11.487C45.7725 6.47444 38.619 4.5134 32.2523 7.15197C25.8858 9.78899 22.2127 16.235 22.7678 22.7676C16.2352 22.2129 9.78976 25.8854 7.15119 32.2506C4.51418 38.6183 6.47521 45.7734 11.4878 49.9989C6.47624 54.2259 4.51418 61.3806 7.15119 67.7482C9.78976 74.1137 16.2362 77.7879 22.7678 77.2323C22.2127 83.7659 25.8858 90.2114 32.2523 92.8479C38.6195 95.4854 45.7742 93.5249 49.9997 88.5122C54.2268 93.5239 61.3803 95.4854 67.7485 92.8479C74.1142 90.2093 77.7882 83.7639 77.2325 77.2323C83.7652 77.7853 90.2107 74.1123 92.8472 67.7472C95.4852 61.3806 93.5252 54.2259 88.5127 49.9989Z" fill="#F0F0F0"/>
<path fill-rule="evenodd" clip-rule="evenodd" d="M87.2324 49.9996C91.4615 45.7024 92.9697 39.1179 90.5235 33.2129C88.0775 27.3086 82.3567 23.7176 76.3269 23.6709C76.2802 17.6436 72.689 11.9224 66.7859 9.47729C60.8804 7.0312 54.2975 8.53829 50.0004 12.767C45.7052 8.53829 39.1207 7.03067 33.2154 9.47729C27.3084 11.9239 23.7189 17.6436 23.6727 23.6719C17.6444 23.7186 11.9237 27.3086 9.47863 33.2129C7.03255 39.1189 8.5386 45.7034 12.7683 50.0006C8.54015 54.2978 7.03255 60.8823 9.47708 66.7854C11.9237 72.6899 17.6459 76.2809 23.6744 76.3286C23.7211 82.3564 27.312 88.0783 33.2169 90.5243C39.1212 92.9694 45.7057 91.4628 50.0024 87.2331C54.298 91.4613 60.8809 92.9694 66.7864 90.5243C72.6907 88.0783 76.2817 82.3564 76.3284 76.3276C82.3572 76.2799 88.0769 72.6899 90.524 66.7854C92.9692 60.8811 91.4615 54.2956 87.2324 49.9996Z" fill="white"/>
<path fill-rule="evenodd" clip-rule="evenodd" d="M62.8017 43.0714C62.3965 43.2909 61.7974 43.0891 61.6982 42.6503C61.609 42.2564 61.8227 41.8129 61.9909 41.4341L64.6019 35.5309C64.98 34.6759 66.444 34.5743 66.5634 35.3363C66.8514 37.1531 64.4199 42.1968 62.8017 43.0714ZM77.1695 42.6181C76.9242 43.1753 76.1662 43.4403 75.5157 43.1534C75.3222 43.0679 75.0944 42.8463 75.0934 42.6181C75.0804 40.6549 76.0864 38.8848 76.9424 37.1853C77.4045 36.2649 77.9892 34.9213 79.1644 34.8009C80.066 34.7086 80.3072 35.4988 80.0084 36.1794L77.1695 42.6181ZM81.337 42.8931C80.8499 44.0649 81.6359 44.6854 82.7959 44.4981C82.801 45.2981 81.2992 45.9201 80.3467 46.1371C79.513 46.3264 78.3639 46.4183 77.8985 45.6826L77.3149 44.7586C75.8234 45.8781 73.0317 46.8109 71.4935 45.3744C69.905 43.8906 70.6375 41.7039 71.0722 40.3156C68.3625 42.4723 66.0882 46.5054 62.1527 45.8289C61.4669 45.7101 61.0502 45.1638 60.6114 44.6943C59.0229 47.3038 58.4247 51.4141 54.724 52.0724C53.509 52.2894 52.1624 52.1534 51.3837 51.2434C51.2882 50.6833 52.0949 51.0106 52.4534 50.8564C54.5487 49.9579 55.4022 46.7284 56.2815 44.7161C54.8387 45.7209 52.5545 46.6013 50.8182 45.6016C50.2925 45.2998 49.8294 44.7198 49.737 44.7814C48.4509 45.6389 46.204 46.3954 44.6384 45.6016C44.0962 45.3251 43.8607 44.7419 43.65 44.2233C41.9474 45.2441 39.6409 46.5219 37.6652 45.2281C36.7225 44.6098 36.3672 43.4144 36.7905 42.4236L39.4339 36.2281C39.8899 35.1594 37.893 34.9711 37.4879 35.8718L33.1907 45.4061L28.9014 45.4039L29.6147 43.6644C26.9989 45.4434 24.4765 46.6413 21.3529 45.4548C18.8659 44.5121 17.4267 41.8763 17.3312 39.3579C17.1512 34.6251 19.4542 30.3383 23.4275 27.4871C25.9395 25.6848 29.6825 24.6331 32.509 26.4971C33.5414 27.1783 34.1535 28.3316 34.0654 29.5134C33.9585 30.9438 33.1045 32.3273 31.779 33.0324C30.7487 33.5823 28.2119 33.4833 27.984 32.0441C29.1919 31.3551 31.0917 30.1946 30.5132 28.5251C30.341 28.0244 29.8315 27.8289 29.3947 27.7958C26.8557 27.5996 24.9465 30.2273 23.8484 32.1904C22.364 34.8419 20.7527 38.5476 22.6489 41.5468C23.4307 42.7831 24.9512 43.1036 26.4427 42.8448C28.3067 42.5216 30.5304 41.6236 31.3552 39.8078L37.6554 25.9311H41.8487L38.8065 33.0121C40.006 32.2381 41.8575 30.8608 43.7304 31.9626C45.54 33.0283 44.0547 35.2331 43.4555 36.6001L41.51 41.0446C41.3389 41.4336 41.2449 41.9156 41.4285 42.3416C41.9447 43.5394 43.7247 42.6399 44.0712 41.8549L48.4639 31.8951H52.6874L48.4337 41.5141C48.3072 41.8014 48.2382 42.2284 48.4015 42.5361C48.6097 42.9263 49.0974 43.0253 49.4714 42.8931C50.2205 42.6279 50.938 40.6488 50.9624 40.5906L54.7672 31.8951H59.0835L54.7915 41.6288C54.6364 41.9763 54.6302 42.4261 54.8715 42.7633C55.069 43.0434 55.3934 43.1981 55.7145 43.1534C56.4362 43.0518 57.191 42.6528 57.5142 41.9213L61.9389 31.8958H65.9445L65.6722 32.6614C67.0147 32.1313 68.7495 31.2561 70.0502 32.3196C71.8022 33.7546 70.7169 36.6811 70.2297 38.4486C73.0322 36.6639 74.821 30.8794 79.8445 31.8506C80.4577 31.9678 81.0615 32.5141 81.337 33.1154L81.8439 31.8963H86.0664C86.0659 31.8951 82.856 39.2428 81.337 42.8931ZM41.1199 80.5006C39.7985 79.7276 39.6424 77.9736 41.153 77.2411C42.6929 76.4936 44.5299 76.6533 46.2119 76.7861C47.6115 76.8976 48.9692 77.2084 50.2817 77.5976C48.4612 80.7419 44.4614 82.4513 41.1199 80.5006ZM63.5632 65.5974C63.156 66.2246 61.4232 66.5628 61.4232 65.5974V65.0624L64.6817 57.7476C64.8825 57.2978 65.3655 57.1214 65.834 57.0669C66.207 57.0254 66.5494 57.2688 66.7097 57.5536C66.9042 57.9021 66.8597 58.4484 66.7419 58.8189C65.988 61.1758 64.842 63.6218 63.5632 65.5974ZM82.8784 54.0341C81.3697 54.7323 80.5064 56.3089 80.6564 57.9758C80.9594 61.3349 81.8957 65.5258 78.937 68.0616C77.2402 69.5179 74.9932 70.1488 72.8082 69.5864C71.7835 69.3218 70.733 68.4309 70.5862 67.3306C70.4885 66.5981 70.639 65.8734 71.04 65.3374C71.4557 64.7834 72.0554 64.3999 72.7324 64.3508C72.9959 64.3326 73.398 64.3699 73.6829 64.6081C73.1132 65.1471 72.5887 66.0699 72.9534 66.8616C73.1584 67.3016 73.6029 67.5356 74.0729 67.5113C74.5279 67.4868 74.987 67.2954 75.2574 66.9094C76.4064 65.2721 76.2005 63.0216 76.7479 61.1228C77.1074 59.8736 77.5675 58.6819 78.0142 57.4893C78.0717 57.3341 77.998 57.1598 77.8502 57.1323C77.3569 57.0409 76.9315 57.5743 76.6669 57.8628L68.7372 66.5203C67.0329 68.3818 64.9162 70.1243 62.2362 69.5864C61.3635 69.4109 60.6455 68.7749 60.2725 67.9319L57.856 73.2049C59.307 73.8841 62.2212 74.4858 63.8787 74.6223C66.3792 74.8319 68.9285 74.8988 71.3482 74.4511C72.3262 74.2706 73.262 73.9333 74.105 73.3803C73.9935 74.1756 73.3799 75.0726 73.2947 75.1821C68.7859 80.8866 61.0514 79.8523 54.6769 78.5054C53.2664 80.2423 51.6057 81.6883 49.6669 82.5758C46.4007 84.0704 42.0517 84.0564 38.9799 82.1878C37.4437 81.2514 36.5519 79.5989 36.6775 77.7438C36.8445 75.2499 39.1152 73.2003 41.2667 72.4568C45.1675 71.1101 49.6695 71.3119 53.6394 72.1538L55.234 68.6629C53.7094 69.5049 51.5694 70.5161 49.8132 69.6196C49.2167 69.3134 49.0507 68.6946 48.7757 68.1768C47.3485 69.0188 45.8664 70.0553 44.0402 69.6673C42.8709 69.4188 42.2592 68.6774 42.0422 67.5729C40.3552 69.0168 38.1217 70.4383 35.866 69.4738C34.9395 69.0753 34.6029 68.0969 34.6029 67.1709C34.6029 66.3096 34.8669 65.5528 35.2187 64.7543L37.9755 58.5108C38.6074 57.0788 36.2999 56.8998 35.8017 58.0251L30.7907 69.3576L26.1419 69.3456L27.1835 67.0059C24.352 69.0598 20.693 71.5604 16.6501 69.0841C13.1555 66.9441 12.9231 62.1858 13.8922 58.5108C15.1622 53.7014 19.66 49.2321 24.5804 48.1001C26.8454 47.5793 29.4689 47.7919 31.0024 49.6721C31.821 50.6796 32.0047 52.1348 31.6665 53.3871C31.3879 54.4206 30.4317 55.3923 29.4445 55.8374C28.149 56.4179 25.5469 56.4999 25.18 54.7158C25.8934 54.5768 26.6737 54.2001 27.2557 53.5816C27.761 53.0478 28.1475 52.2504 27.8227 51.4733C27.5629 50.8523 26.9139 50.4773 26.2175 50.5483C23.5744 50.8186 21.7472 53.3431 20.364 55.3813C18.9379 57.4829 18.2645 59.9738 18.3362 62.6963C18.3772 64.2241 19.0994 65.8324 20.5904 66.4424C23.66 67.6979 26.7344 65.4594 28.9065 63.1564L35.8012 47.7084L40.3469 47.6903L37.4064 54.5699C38.9809 53.5386 41.0975 52.5384 42.8874 53.8079C43.597 54.3096 43.7175 55.3098 43.456 56.1108C42.4677 59.1271 40.8822 61.9208 39.7092 64.8674C39.5407 65.2918 39.4629 65.7448 39.7092 66.0986C39.9495 66.4429 40.3894 66.5463 40.8117 66.4399C41.4919 66.2688 42.1819 65.7608 42.4667 65.1108L47.5175 53.5749H52.0342L47.3324 64.5271C47.21 64.8139 47.1887 65.2711 47.3645 65.5326C47.5602 65.8236 47.8999 66.0493 48.208 66.0181C48.6932 65.9693 49.1829 65.7271 49.392 65.2571L54.5509 53.5749H59.1489L53.947 65.2571C53.81 65.5683 53.8547 65.8781 53.9967 66.1809C54.1457 66.4949 54.4669 66.6106 54.792 66.6033C55.4395 66.5883 56.2339 66.4171 56.5249 65.7571L61.9125 53.6123H66.0944C66.0944 53.6123 65.9922 54.2254 65.9477 54.4553C67.2295 53.5634 69.0542 52.6489 70.6199 53.5796C72.8355 54.9031 71.5874 59.5561 71.4609 60.0836C74.159 58.4838 77.0674 52.7454 81.5264 53.3078C81.8854 53.3554 82.4629 53.5266 82.8784 54.0341ZM56.89 79.6659C57.426 79.6659 57.9469 79.7946 58.4475 80.0539C58.9502 80.3103 59.3674 80.7024 59.705 81.2296C60.0405 81.7541 60.2159 82.3651 60.2099 82.9878C60.2099 83.9019 59.8845 84.6831 59.235 85.3333C58.5834 85.9828 57.802 86.3091 56.89 86.3091C55.9729 86.3091 55.191 85.9838 54.5415 85.3384C53.893 84.6899 53.5677 83.9054 53.5677 82.9878C53.5677 82.3466 53.7369 81.7629 54.0684 81.2399C54.403 80.7139 54.8212 80.3218 55.3197 80.0608C55.8024 79.8011 56.342 79.6654 56.89 79.6659ZM56.8942 80.3171C56.1789 80.3171 55.5567 80.5723 55.0245 81.0833C54.4937 81.5918 54.227 82.2283 54.227 82.9873C54.227 83.7259 54.4875 84.3594 55.0095 84.8788C55.5314 85.4018 56.1595 85.6611 56.8942 85.6611C57.6279 85.6611 58.256 85.4006 58.7779 84.8736C59.303 84.3506 59.5644 83.7203 59.5644 82.9868C59.5644 82.2278 59.2977 81.5918 58.767 81.0828C58.2337 80.5728 57.6097 80.3171 56.8942 80.3171ZM55.3887 84.7636V81.2414H56.1052C56.8237 81.2414 57.2817 81.2519 57.4732 81.2748C57.6667 81.2991 57.8442 81.3971 58.0049 81.5714C58.1664 81.7468 58.2462 81.9699 58.2462 82.2413C58.2462 82.5048 58.16 82.7238 57.9857 82.8969C57.8094 83.0723 57.5805 83.1808 57.2969 83.2233C57.4202 83.2648 57.5255 83.3276 57.6117 83.4116C57.6957 83.4956 57.8395 83.7094 58.0424 84.0528L58.4599 84.7631H57.5744L57.2807 84.1924C57.1044 83.8469 56.9514 83.6159 56.8227 83.4961C56.6929 83.3774 56.5165 83.3156 56.2919 83.3156H56.1057V84.7626H55.3887V84.7636ZM56.1047 82.7621H56.3947C56.7339 82.7621 56.9632 82.7538 57.0764 82.7378C57.188 82.7238 57.2912 82.6711 57.3679 82.5888C57.447 82.5044 57.4897 82.3921 57.4867 82.2764C57.488 82.2186 57.4774 82.1611 57.4554 82.1076C57.4334 82.0539 57.4007 82.0054 57.359 81.9653C57.2754 81.8844 57.1675 81.8336 57.0519 81.8204C56.9325 81.8064 56.7127 81.8003 56.394 81.8003H56.104V82.7621H56.1047Z" fill="#666666"/>
<path fill-rule="evenodd" clip-rule="evenodd" d="M97.1667 30.4624C94.3195 23.5884 87.651 19.4128 80.6302 19.3681C80.5867 12.3489 76.4108 5.68243 69.537 2.83375C62.6608 -0.012851 54.9958 1.74897 49.9993 6.6811C45.0043 1.74897 37.3387 -0.0128508 30.4637 2.83427C23.5877 5.68192 19.4125 12.3484 19.3678 19.3676C12.3481 19.4133 5.6816 23.5891 2.83397 30.4634C-0.0136764 37.3379 1.74814 45.0041 6.6808 50.0006C1.74814 54.9961 -0.0131576 62.6632 2.83345 69.5373C5.68109 76.4123 12.3476 80.5859 19.3688 80.6316C19.4118 87.6514 23.5872 94.3187 30.4632 97.1669C37.3382 100.014 45.0053 98.2523 50.0008 93.3196C54.9952 98.2523 62.6608 100.012 69.537 97.1649C76.4108 94.3177 80.5857 87.6514 80.6302 80.6316C87.651 80.5869 94.3195 76.4123 97.1667 69.5373C100.014 62.6613 98.252 54.9961 93.3193 49.9981C98.252 45.0026 100.014 37.3364 97.1667 30.4624ZM94.8405 68.5739C92.0213 75.3778 84.8527 79.0986 77.8775 77.8757C79.0993 84.8519 75.379 92.0232 68.5747 94.8408C61.7685 97.6587 54.0677 95.2194 49.9998 89.4231C45.9325 95.2199 38.2315 97.6587 31.4272 94.8408C24.6222 92.0226 20.9023 84.8529 22.1252 77.8768C15.1475 79.1006 7.97777 75.3794 5.1597 68.5759C2.3406 61.7689 4.77839 54.0679 10.5774 49.9996C4.77944 45.9318 2.3406 38.2324 5.1597 31.4274C7.97777 24.6219 15.1485 20.9018 22.1247 22.1249C20.8998 15.1478 24.6217 7.9786 31.4267 5.16105C38.2315 2.34038 45.9335 4.77922 50.0008 10.5772C54.0682 4.77922 61.768 2.34038 68.573 5.16105C75.38 7.9786 79.0988 15.1478 77.875 22.1249C84.8512 20.9018 92.0223 24.6219 94.8398 31.4264C97.658 38.2314 95.2187 45.9318 89.4222 49.9996C95.2192 54.0689 97.658 61.7684 94.8405 68.5739Z" fill="#666666"/>
</svg>
