<svg width="120" height="60" viewBox="0 0 120 60" fill="none" xmlns="http://www.w3.org/2000/svg">
<path d="M98.2978 35.9281C97.8262 35.9281 97.442 35.5646 97.442 35.1155L97.447 35.0849V21.3721V21.3108L97.4521 21.2533C97.4957 20.8503 97.8536 20.5301 98.2939 20.5301C98.733 20.5301 99.0972 20.8503 99.1396 21.2533L99.1447 21.3108V21.3721V35.0849L99.1484 35.1155C99.1484 35.5646 98.7655 35.9281 98.2978 35.9281ZM99.8855 17.9978H96.7037C94.0131 17.9978 93.8535 20.2213 93.8535 21.654V34.8004C93.8535 36.2356 94.0131 38.4579 96.7037 38.4579H99.8855C102.577 38.4579 102.742 36.2368 102.742 34.8004V21.654C102.741 20.2201 102.577 17.9978 99.8855 17.9978Z" fill="#666666"/>
<path d="M40 17.9978H47.3293V20.5389H43.8417V38.4566H40V17.9978Z" fill="#666666"/>
<path d="M47.8975 38.4567H51.6544L52.0149 33.0183H53.8272L54.1828 38.4567H57.9435L55.9377 17.9966H49.9044L47.8975 38.4567ZM52.1496 30.7704L52.812 20.5353H53.0265L53.6851 30.7704H52.1496Z" fill="#666666"/>
<path d="M63.4428 31.2934V35.1448C63.4428 35.6705 63.822 35.8209 64.0453 35.8209C64.4008 35.8209 64.6477 35.4957 64.6477 35.1448V30.3877C64.6477 29.7459 64.5405 29.0469 63.1073 29.0469H61.5506V26.7952H63.1634C64.2598 26.7952 64.6477 26.5273 64.6477 25.2784V21.2088C64.6477 20.8593 64.3996 20.5403 64.0453 20.5403C63.822 20.5403 63.4428 20.6858 63.4428 21.2088V24.5461H59.5986V21.6553C59.5986 20.2227 59.7657 17.999 62.4525 17.999H65.6381C68.3286 17.999 68.492 20.2227 68.492 21.6553V24.9301C68.492 27.1473 67.0352 27.7597 65.8801 27.7022V27.9076C68.4584 27.8452 68.492 29.9527 68.492 30.6849V34.8018C68.492 36.2368 68.3286 38.4592 65.6381 38.4592H62.4525C59.7657 38.4592 59.5986 36.2382 59.5986 34.8018V31.2948H63.4428V31.2934Z" fill="#666666"/>
<path d="M71.0186 17.9978H79.9095V38.4566H76.3247V20.5389H74.601V38.4566H71.0186V17.9978Z" fill="#666666"/>
<path d="M82.6924 38.4566H86.5329V31.5013H88.7282C91.4186 31.5013 91.8465 29.2803 91.8465 27.8425V21.6514C91.8465 20.2187 91.4186 17.9951 88.7282 17.9951H82.6924V38.4566ZM86.5329 29.247V20.539H87.542C87.9586 20.539 88.2604 20.9178 88.2604 21.5583V28.2277C88.2604 28.8707 87.9586 29.247 87.542 29.247H86.5329Z" fill="#666666"/>
<path d="M115.003 17.9978H119.999V38.4566H116.155V25.6279H116.018L114.038 38.4566H110.97L108.992 25.6279H108.858V38.4566H105.013V17.9978H110.005L112.498 32.3765L115.003 17.9978Z" fill="#666666"/>
<path d="M31.8057 20.077C31.7621 22.1528 31.5189 24.3406 31.2108 25.6482C31.3217 23.3953 31.0549 20.2149 30.5472 17.731C30.0408 15.2472 28.6039 11.1049 27.4576 9.18235C26.4011 11.0092 25.0976 14.5952 24.4153 17.7106C23.7293 20.8233 23.7093 24.5919 23.7093 25.7234C23.526 24.7629 23.0708 21.3732 23.2017 17.9607C23.3089 15.1438 23.9527 12.2518 24.3044 10.9186C25.6503 6.47524 27.1732 3.63547 27.4588 3.18131C27.7445 3.6342 29.6665 7.13226 30.6595 10.8064C31.6485 14.483 31.8469 18.004 31.8057 20.077ZM27.4825 35.9536C26.8863 34.8066 25.9571 32.6176 25.8697 29.2407C25.846 25.9683 27.1257 23.1669 27.5025 22.5813C27.8393 23.1669 28.9356 25.6074 29.0679 28.9446C29.1577 32.2105 28.1012 34.7811 27.4825 35.9536ZM32.1563 10.8523C30.9439 5.41639 27.8979 0.993438 27.4825 0.273926C26.8189 1.28686 24.3916 5.18932 23.1593 9.52042C21.8135 14.3503 21.6151 18.6329 22.0779 22.8543C22.5419 27.0706 24.2856 31.4005 24.2856 31.4005C25.2112 33.6763 26.6007 36.1092 27.5025 37.3058C28.8247 35.5465 31.8731 30.2969 32.8199 23.4399C33.3461 19.628 33.3661 16.2869 32.1563 10.8523Z" fill="#666666"/>
<path d="M20.0332 38.4527V44.8838C20.0408 44.8748 20.0483 44.8671 20.0595 44.8582C22.2572 42.618 25.8208 42.618 28.0199 44.8582C30.2215 47.0945 30.2215 50.7304 28.0199 52.968L27.9937 52.9948V52.9974C27.98 53.0075 27.97 53.0177 27.9625 53.0267C25.766 55.2426 22.8996 56.3539 20.0345 56.3539C17.1595 56.3539 14.2781 55.2298 12.0828 53.0012C8.21487 49.0554 7.75212 42.9562 10.7045 38.4999C11.1012 37.8979 11.5589 37.3262 12.0828 36.7969C14.2781 34.5579 17.1595 33.443 20.0345 33.443V18.1074C8.97575 18.1074 0 27.2442 0 38.5037C0 49.7749 8.97449 58.9104 20.0345 58.9104C25.8059 58.9104 30.9997 56.4227 34.6519 52.4501V38.4527H20.0332Z" fill="#666666"/>
<path d="M116.409 54.0766C116.409 56.0234 115.543 56.3678 113.339 56.3678H111.312V47.4862H113.339V50.9141H113.678C115.671 50.9141 116.409 51.3886 116.409 53.1657V54.0766ZM99.4873 49.1639H97.9507V56.373H96.0223V49.1639H94.3771V47.4773H99.4887V49.1639H99.4873ZM83.8845 53.199C83.8845 55.0028 82.9877 55.4876 80.9908 55.4876V56.3666H79.0188V55.4876C77.0143 55.4876 76.1088 55.0028 76.1088 53.199V50.4243C76.1088 48.6127 76.9781 48.1522 79.0188 48.1522V47.4862H80.9908V48.1522C83.0177 48.1522 83.8845 48.6127 83.8845 50.4243V53.199ZM65.5028 49.1639H62.7288V50.9115H65.2096V52.593H62.7288V54.6877H65.5028V56.373H60.6357V47.476H65.5028V49.1639ZM48.6851 56.3666H46.6557V52.4782H45.6143V56.3666H43.586V47.485H45.6143V50.9129H46.6557V47.485H48.6851V56.3666ZM119.998 45.269H40V58.9091H120V45.269H119.998ZM78.082 50.3669V53.2105C78.082 53.7322 78.2455 53.8534 78.692 53.8534H79.0188V49.7137H78.692C78.2455 49.7149 78.082 49.8464 78.082 50.3669ZM113.79 52.4794H113.339V54.7975H113.79C114.246 54.7975 114.382 54.6788 114.382 54.1724V53.1045C114.38 52.593 114.246 52.4794 113.79 52.4794ZM81.3027 49.7149H80.9908V53.8546H81.3027C81.7541 53.8546 81.9163 53.722 81.9163 53.199V50.3438C81.9163 49.8221 81.7541 49.7149 81.3027 49.7149Z" fill="#666666"/>
</svg>
