<svg width="100" height="100" viewBox="0 0 100 100" fill="none" xmlns="http://www.w3.org/2000/svg">
<path d="M14.4179 85.4063C18.9829 90.0167 24.0736 93.5987 29.9853 96.0863C36.094 98.6733 42.5311 100 49.0996 100C55.7665 100 62.2036 98.6402 68.2138 96.0863C74.0927 93.6319 79.2162 90.0167 83.8798 85.4063C88.3134 80.7961 91.8933 75.423 94.3236 69.4528C96.8854 63.2835 98.1991 56.7828 98.1991 50.0167C98.1991 43.1841 96.8525 36.65 94.3236 30.4809C91.8933 24.4113 88.3134 19.1376 83.8798 14.5274C79.2162 9.98341 74.1256 6.40133 68.2138 3.91376C62.2365 1.2272 55.7665 0 49.0996 0C42.5311 0 36.094 1.2272 29.9853 3.91376C24.1064 6.36817 18.9829 9.98343 14.4179 14.5605C9.8856 19.2039 6.43713 24.4776 3.87542 30.5472C1.3137 36.7165 0 43.2172 0 50.083C0 56.8159 1.34654 63.3167 3.87542 69.5191C6.43713 75.423 9.8856 80.8293 14.4179 85.4063ZM6.30576 31.6418C8.63758 25.9039 11.9875 20.9619 16.1914 16.6169C20.5265 12.2388 25.4202 8.75622 30.9705 6.40133C36.7507 3.94693 42.7609 2.68657 49.0996 2.68657C55.4382 2.68657 61.5469 3.91376 67.2285 6.40133C72.7791 8.75622 77.7711 12.2388 82.0078 16.6169C86.2444 20.995 89.5614 25.937 91.8933 31.6418C94.3236 37.4793 95.6702 43.5489 95.6702 50.0498C95.6702 56.4511 94.3236 62.5207 91.8933 68.4578C89.5614 74.063 86.2116 79.1044 82.0078 83.4826C77.7711 87.8607 72.7791 91.1111 67.2285 93.5987C61.5469 96.0531 55.4382 97.3135 49.0996 97.3135C42.7609 97.3135 36.7507 96.0863 30.9705 93.5987C25.4202 91.1443 20.5265 87.8607 16.1914 83.4826C11.9547 79.1044 8.63758 74.063 6.30576 68.4578C3.87542 62.5207 2.6274 56.4511 2.6274 50.0498C2.66024 43.5489 3.87542 37.4793 6.30576 31.6418Z" fill="#666666"/>
<path d="M43.0899 21.5591L28.7377 17.7449L28.6391 18.4082L40.528 21.6587V22.4547L27.5224 20.9952L27.2926 21.6587L40.528 23.118V23.7813L26.3073 24.5774L25.9788 25.2408L40.528 24.4447V25.2408L23.877 28.856L23.9755 29.5193L40.528 25.9373V26.8328H41.0864L25.4206 33.0019L25.322 33.798L42.9913 26.8328H43.878L28.0808 36.0534L28.5406 36.5176L45.2246 26.8328H45.6844C40.4624 31.211 35.1419 35.4895 29.8871 39.8676V40.7632L46.7682 26.9654L35.2075 39.8676L35.536 40.531L46.7682 27.9604V28.1926L37.3424 42.9854L37.6708 43.6487L46.801 29.3867V30.3817L38.9188 48.8891L39.2471 49.6852L46.801 32.0732V34.7598L42.2359 52.7034L42.7942 52.8028L46.801 37.4132V40.6636H48.0162L46.801 53.5658L47.4579 53.6652L48.673 40.6304H50.545L51.5302 53.6652H52.1871L51.2019 40.6304H52.5484V36.9156L56.5551 53.0682L57.212 52.9687L52.5484 34.2291V31.4099L59.8722 48.8228L59.9708 47.695L52.5155 29.6189V28.9554L61.613 43.7813L61.9413 42.8858L52.4828 27.7284V27.4961L63.5835 40.2987L63.9119 39.6354L53.4351 27.5956L69.9879 41.3934L70.0864 40.5973L53.6322 26.7997H54.2891L71.3015 37.0152L71.4 36.3519L55.5042 26.7997H56.3909L73.1735 33.5326L73.4035 32.8693L58.2959 26.7997H58.6242V26.1363L73.8304 29.6189L74.0602 28.9554L58.6242 25.3734V24.71L73.502 25.6056L73.272 24.9423L58.5915 24.0467V23.3834L71.827 22.0236L71.5971 21.3602L58.5915 22.72V21.8908L70.7104 18.4082L70.9402 17.6122L57.442 21.5591H55.0117L74.0275 13.1346L73.3706 12.6703L53.4351 21.5591L69.9879 10.6802L69.331 10.3486L52.8768 21.128L66.3422 8.88918L65.6855 8.657L52.5813 20.4315L62.9924 7.62882L62.3355 7.29715L52.5484 19.3037V18.9721L59.5439 6.6338L58.887 6.40161L52.5484 17.6122V16.6172L56.4239 5.93728L55.767 5.70511L52.4499 15.0583H51.5631L53.4351 5.50609L52.7784 5.40659L50.9062 15.0583H50.118V5.27393H49.4613V15.0252H48.673L47.1295 5.37343H46.4726L48.0162 15.0252H47.1295L44.0093 5.60559L43.3526 5.70511L46.801 15.9207V17.2805L40.9222 6.06994L40.134 6.30211L46.801 18.6404V19.6354L37.441 6.96546L36.784 7.06496L46.1113 19.8676L33.8939 8.09317L33.237 8.42483L46.5382 21.2274L29.9857 9.8842C29.7557 9.9837 29.5259 10.1164 29.1973 10.2159L45.8813 21.5591H45.2246L45.3231 21.4597L25.5519 12.4713L24.895 12.9356L44.0093 21.5591H43.0899ZM46.7682 20.3319V20.4315L46.6697 20.3319H46.7682ZM48.1148 22.8858V16.385H51.2348V22.8858H57.442V25.473H51.2348V39.4032H48.1148V25.473H41.8746V22.8858H48.1148Z" fill="#666666"/>
<path d="M54.1905 83.8491L54.0264 83.6489C54.0264 83.7491 54.0264 83.8491 54.0591 83.9491L54.1576 84.0826L54.1905 83.8491Z" fill="#666666"/>
<path d="M59.7067 80.4646C59.7067 80.4981 59.7067 80.565 59.6738 80.5985L59.7397 80.6318L59.7067 80.4646Z" fill="#666666"/>
<path d="M60.2997 82.4232L59.3801 82.0571C59.3801 82.1236 59.3472 82.1903 59.3145 82.2236L60.2997 82.6229V82.4232Z" fill="#666666"/>
<path d="M79.4463 49.3869L79.5448 49.4863L91.0068 58.9406L91.1054 58.2441L79.9061 48.9556L79.4463 49.3869Z" fill="#666666"/>
<path d="M59.3129 84.2797L60.2323 84.8455C60.2323 84.779 60.2323 84.7123 60.2323 84.6458L59.2471 84.0801C59.28 84.1134 59.3129 84.1799 59.3129 84.2797Z" fill="#666666"/>
<path d="M72.4502 61.3932L81.9089 76.6502L82.2373 76.1194L72.7787 60.6304L72.4502 61.3932Z" fill="#666666"/>
<path d="M74.8799 53.5326L87.5572 68.1267L87.8855 67.4633L75.5695 53.2009L74.8799 53.5326Z" fill="#666666"/>
<path d="M67.6562 67.9274L74.2246 83.6155L74.783 83.1844L68.3459 67.4631L67.6562 67.9274Z" fill="#666666"/>
<path d="M38.7209 80.1992L38.6553 80.3664H38.7209V80.1992Z" fill="#666666"/>
<path d="M38.951 81.9901V81.9568L38.1626 82.2568L38.1299 82.4899L39.0166 82.1235L38.951 81.9901Z" fill="#666666"/>
<path d="M37.5396 84.6787L37.5068 84.9115L38.5907 84.2463L38.6234 84.0469L37.5396 84.6787Z" fill="#666666"/>
<path d="M39.8709 83.3171L39.5098 83.5168C39.5098 83.5501 39.5425 83.5834 39.5425 83.6168V83.7166L39.8709 83.5168V83.3171Z" fill="#666666"/>
<path d="M19.0809 49.4867L18.5554 49.155L7.32324 58.3771L7.55313 59.0404L19.0809 49.4867Z" fill="#666666"/>
<path d="M44.0417 83.949L44.2059 83.7492C44.2059 83.6494 44.2059 83.5494 44.2059 83.4829L44.0088 83.7159L44.0417 83.949Z" fill="#666666"/>
<path d="M22.9884 53.6653L10.6396 67.5625L10.8695 68.1264L23.6453 53.8644L22.9884 53.6653Z" fill="#666666"/>
<path d="M26.5358 59.9333L16.1904 76.1195L16.6502 76.65L26.6673 60.9615L26.5358 59.9333Z" fill="#666666"/>
<path d="M24.1055 83.5163L24.6638 83.8482L31.6593 67.4632L31.1009 67.231L24.1055 83.5163Z" fill="#666666"/>
<path d="M12.2169 37.2807C12.4468 37.745 12.8738 38.2757 13.662 38.8396C14.3189 39.3039 14.7786 39.735 14.8772 40.0667C16.4208 45.0087 17.7673 48.0268 18.884 49.0552C19.1139 49.2872 19.5408 49.3869 20.2306 49.6189C20.6902 49.8511 21.0188 50.1828 21.4457 50.5144C22.5624 52.0733 24.2373 53.1015 26.3391 53.5328L28.4411 53.8644C29.098 54.0965 29.4264 54.1961 29.5577 54.4283C30.0175 55.2243 32.218 56.1198 36.1262 57.1148L37.6699 58.9059C36.1262 57.7781 34.1229 56.8826 31.7911 56.4183C30.9042 56.0867 29.8862 55.987 28.8024 55.8544C27.0289 55.8544 26.2406 56.1861 26.372 56.8494C27.0289 60.2326 28.0469 62.6869 29.2622 64.6106C30.8059 66.8661 33.0391 68.3254 35.8306 68.9887L37.834 69.4531C38.7208 69.5526 39.2791 69.9174 39.3777 70.2491C39.936 71.6089 39.3777 75.1911 37.7028 81.2607L36.1591 87.4298C35.6008 89.453 35.5022 90.6802 35.6008 91.0118L37.9326 92.9355L40.4944 94.4944C41.6109 95.39 43.3844 96.0533 45.4864 96.6172C46.4717 96.7167 47.03 96.7167 47.1613 96.385C47.8182 96.7167 48.1466 96.4846 48.3766 96.0533C49.8215 96.385 53.9269 95.1578 60.5939 92.4713L62.4988 91.808C62.9586 91.808 63.3855 91.7085 63.6155 91.1446C63.9439 90.3485 63.6155 87.8943 62.6302 83.9472L61.5135 81.2607C61.5135 78.9057 61.0866 76.4183 60.1669 73.8644C60.0355 73.5326 60.0355 72.9689 60.0355 72.405C60.2655 71.5094 60.0355 70.4813 59.7071 69.4863C63.484 70.1496 66.834 68.4913 69.8226 64.4448C70.9393 62.9854 71.826 61.4265 72.3844 59.735C72.9428 58.3752 73.1726 57.3802 73.0411 56.8163C72.8113 56.2524 72.253 55.9207 71.1364 55.9207C70.1511 55.8213 69.0344 55.9207 67.6879 56.2524C64.3708 57.0485 62.1375 58.2757 61.0209 59.9672L59.3459 61.9904C59.3459 61.7583 59.3459 61.327 59.3459 60.6306C59.4444 60.1994 61.6777 58.6074 66.1442 55.9207L66.4728 55.6885L68.5746 55.0252C69.6913 54.5609 70.348 54.2293 70.4795 54.1298C71.826 54.1298 73.5995 53.3337 75.8 51.8743C77.8033 50.5144 79.1499 49.42 79.6753 48.2922L80.4637 47.3967C81.9086 45.9374 82.8939 44.478 83.1239 43.0187C83.2224 42.687 83.3537 42.2226 83.7808 41.6587C84.0106 41.1944 84.2404 40.7633 84.2404 40.1994C84.2404 39.735 84.569 39.0717 85.2257 38.0767L87.2291 34.8263C87.5575 30.6804 87.6889 27.7617 87.5575 26.1696C87.4591 24.478 86.9008 23.8146 86.1126 24.3785C85.5542 24.7102 84.8973 25.7383 84.5689 27.3968C84.1091 28.9557 83.912 30.5478 84.0106 32.2393L83.7808 33.4665C82.9924 33.002 82.5655 31.7748 82.3357 29.8843C82.5655 28.8893 82.664 27.43 82.664 25.7383C82.5655 23.3835 82.2042 21.5924 81.449 20.4648C80.792 19.5693 80.4637 18.3421 80.2337 16.8827L79.7739 15.755L78.5588 15.6555C78.099 15.9872 77.7706 16.6505 77.7706 17.6787C77.7706 18.3421 77.8691 19.2376 78.2304 20.498L78.8871 24.5444C78.7886 24.6439 78.6573 24.6439 78.5588 24.5444C78.2304 24.4448 77.7706 23.9806 77.442 23.4167C77.1137 22.7533 76.8839 22.1894 76.8839 21.8578C76.7853 20.8628 76.227 19.7352 75.2088 18.7068C74.0922 17.3471 72.9755 16.9159 71.9902 17.2476C71.1035 17.4797 71.1035 18.0436 71.6619 18.9391L73.1069 21.1944C73.5339 22.09 73.8951 22.9856 73.8951 23.7815C74.1249 25.9043 75.3402 27.9274 77.7706 30.0833L78.4273 30.7467C80.5293 35.5891 80.8577 39.2707 79.4126 41.9572C78.9528 38.8063 78.1975 36.0204 77.1793 33.6654L76.194 30.9789C75.7342 30.0833 75.4059 29.8511 74.9789 30.1828C74.0922 31.7417 73.9608 33.6654 74.5191 35.6887L75.176 38.2757C75.4059 39.2707 75.5044 40.2989 75.5044 41.1944L74.946 44.5776C74.3877 46.833 73.731 47.828 72.8442 47.828C73.1726 46.7002 73.4024 44.5776 73.501 41.6587L73.7309 37.9441L73.501 36.8163C73.4024 36.2524 73.2711 36.153 72.9426 36.5843C72.3844 36.5843 71.9246 37.0485 71.3991 37.9441C70.9393 38.6074 70.611 39.8678 70.2824 41.4267L69.3957 45.473C68.7388 48.8561 67.1624 50.5144 64.962 50.7467L65.1919 47.4963C65.1919 46.1363 65.2904 45.1413 65.4217 44.3454L65.8815 41.9904C66.1115 40.5311 66.21 39.6356 66.1115 39.4033H65.3233L64.6664 40.0667C64.6664 40.0667 64.5679 40.1663 64.338 40.2989C62.7944 42.6539 61.8748 45.5726 61.6777 48.823C60.4626 53.4331 58.886 55.3237 57.3426 54.6604C57.3426 54.5609 57.244 54.3287 57.014 54.3287C56.5542 54.2293 55.996 54.2293 55.2406 54.3287H55.0108L54.5509 54.4283L51.4308 54.8926C51.1024 54.6604 50.2157 54.5609 48.6393 54.5609L45.6506 54.7931C44.8624 54.1298 43.9757 53.997 43.0889 54.5609H42.9904C40.33 53.8976 38.7537 52.2061 38.1953 49.3868L37.6369 45.672C37.3086 44.3122 36.9802 43.085 36.4219 42.4217C35.4366 40.8628 34.5169 40.0667 33.9915 40.2989C33.6631 40.3983 33.4331 40.6306 33.4331 41.1944V41.2939L34.2213 46.7998C34.5169 49.8511 34.747 51.41 34.7797 51.5094C33.1048 50.6141 31.8895 49.7185 31.4626 48.6904C30.9042 47.7948 30.4773 45.7715 29.9189 42.7533C29.4593 40.1663 28.8024 38.3752 27.9157 37.2476C27.3573 36.5843 26.7004 36.2193 26.0108 36.2193C25.7809 36.2193 25.7809 36.4515 25.6824 36.5509C25.6824 36.8826 25.7809 37.7781 26.0108 39.2376C26.3391 40.5974 26.4706 41.493 26.3391 41.8246C26.2406 41.9241 26.2406 42.8196 26.3391 44.4117L26.6677 48.3254C25.4524 47.5294 24.7628 46.6339 24.6642 45.4067V45.075V44.9756V44.7433C24.2044 44.08 24.1059 42.1563 24.2044 38.6737C24.3029 35.4233 24.4344 33.7318 24.6642 33.6322C24.9926 33.3006 24.9926 32.2724 24.5657 30.813C24.4671 30.1496 24.1059 29.818 23.7775 29.6854C23.4491 29.5859 22.9893 30.017 22.7922 31.0452C22.3324 32.2724 22.1353 33.3006 22.004 34.2956C22.004 34.8594 21.5442 36.0867 20.7888 38.1098L20.2306 42.488C19.0153 39.9009 18.884 37.1148 19.6722 34.1961C20.2306 32.0733 21.0188 30.3818 22.1026 29.022C23.4491 27.5626 24.4344 26.2028 24.9926 25.1081V24.8761C24.9926 24.4117 25.4524 23.5161 26.1093 22.0568L27.6529 19.6024C27.9813 19.1381 28.1128 18.7069 27.9813 18.3752C27.8828 18.0436 27.6529 17.7119 27.3244 17.5792C26.2079 17.3471 25.3211 18.0436 24.4344 19.7018C23.7775 21.3935 22.9893 22.6207 22.3324 23.5161C21.3471 24.8761 20.6575 25.075 20.3289 23.7483C20.7888 22.5211 21.1173 21.0619 21.1173 19.2707C21.1173 18.4747 21.0188 17.9109 20.6575 17.7119C20.1977 17.6124 19.7708 17.7119 19.2124 18.2757L18.9824 18.6074C17.5374 22.1894 16.7492 24.9093 16.8806 26.7002L17.209 28.1596C17.3075 28.7235 17.3075 29.1546 17.3075 29.3868C16.5193 32.77 15.961 34.3287 15.8625 34.3287C15.3041 33.6654 14.9757 32.3056 15.0742 30.5144L14.0889 27.3637C13.5306 25.9043 12.9723 25.2409 12.3155 25.1081C11.6586 25.0087 11.4287 25.3404 11.4287 26.0037C11.4287 29.2541 11.5272 31.9407 11.6586 34.2956C11.8557 35.8213 12.0856 36.9159 12.2169 37.2807ZM42.1037 81.2607C42.5633 81.3602 42.5633 83.2839 41.7751 87.1976C41.3153 83.7483 41.4468 81.8246 42.1037 81.2607ZM41.2497 76.0533L41.4139 75.8876L42.7933 76.2524C42.6948 76.2855 42.6291 76.3187 42.5633 76.385L41.2497 76.0533ZM45.3222 89.5857C45.2237 90.1496 45.0922 90.5807 45.0922 91.045L44.5339 95.5228C43.9757 95.6222 43.6471 95.4231 43.6471 94.5276L43.7457 92.8361C43.7457 92.1728 43.7457 91.6089 43.6471 91.1446C43.4173 90.4813 43.1873 91.045 42.9904 92.8361L42.7604 94.7598C42.432 94.992 42.202 94.5276 41.8737 93.6322C41.9722 93.8643 41.9722 93.3006 42.202 91.8411V90.6139L42.6619 88.9224C42.9904 87.7946 43.1217 86.8991 42.9904 86.3354C42.6619 85.5393 42.9904 83.9804 43.6471 81.6255C43.9757 81.4596 44.1069 82.0567 44.1726 83.5161L44.4355 83.1844L44.4682 83.4498L44.1726 83.7815C44.1726 84.2789 44.2055 84.8759 44.2055 85.5724C43.7457 86.5674 43.7457 87.9274 44.1069 89.3867L44.3369 90.5144C44.5339 90.9455 44.5668 90.9455 44.4682 90.5807C44.5339 90.5476 44.6982 89.8843 44.8951 88.5907L45.2237 85.1081C45.6835 83.317 46.1104 82.6537 46.5702 82.9854L46.2417 88.9224C45.8804 88.7896 45.6506 89.0219 45.3222 89.5857ZM44.5339 85.1081L44.6982 84.8759H44.7309V85.1081L44.6653 85.2407L44.5339 85.1081ZM46.4388 95.6222C46.3402 95.6222 46.3402 95.8544 46.3402 96.0865H45.7819C46.0119 92.7035 46.2417 91.1446 46.6688 91.4763C46.7671 92.3718 46.7671 93.7317 46.7671 95.5228L46.4388 95.6222ZM48.1137 95.4231C48.0153 95.4231 47.8839 95.5228 47.7853 95.6554C47.1284 95.3237 47.1284 93.7317 47.5555 91.045V88.6902C47.3255 86.9987 47.4569 85.8709 47.654 85.4398C48.672 86.8659 48.7706 90.1496 48.1137 95.4231ZM46.9971 81.1611C46.7671 80.4978 47.0957 80.1661 47.8839 80.3652L53.0073 80.4646C53.2371 80.7963 53.2371 81.128 52.6789 81.2607C50.3142 81.5924 48.4422 81.5924 46.9971 81.1611ZM49.8873 90.3485L49.7888 93.3668L49.8873 94.8261C49.7888 95.39 49.6573 95.4894 49.4275 95.2906C49.3289 95.0583 49.0989 94.395 48.9677 93.2672C48.8691 92.4713 48.9677 91.1446 49.0662 89.2209C49.1648 87.5293 49.1648 86.5343 48.9677 86.2026L49.0662 83.6156C49.0662 82.6206 49.3946 83.715 49.9529 86.8659C50.1171 87.662 50.1171 88.8893 49.8873 90.3485ZM53.1059 94.5276L52.7773 94.7598L52.5475 94.0965C52.4489 93.2009 52.3177 91.8411 52.2191 90.2822C52.2191 89.055 52.1206 88.0268 51.8906 87.3635C51.5622 85.9041 51.431 87.3635 51.6608 91.7417L51.5622 94.1959L51.3324 95.0915L50.9053 95.1909L50.6755 94.7267C50.5769 94.395 50.577 93.8311 50.577 92.803L50.9053 90.1165C51.1353 86.6339 51.1353 84.6105 50.6755 84.1794C50.6755 83.8478 50.774 83.6156 51.1353 83.6156C51.4637 83.6156 51.5951 83.9472 51.5951 84.5111C51.5951 85.075 51.825 85.1744 52.055 84.6105C52.2848 84.1463 52.3833 83.8146 52.2848 83.6156C52.2848 83.5161 52.2848 83.5161 52.2848 83.5161L52.5146 83.8478C52.6131 84.312 52.6131 84.8428 52.6131 85.5393C52.5146 86.0037 52.6131 87.0981 52.9417 88.7896L53.27 90.5807L53.4999 93.4L53.1059 94.5276ZM55.766 93.6322L55.3391 92.637L54.5509 87.6952C54.2882 86.07 54.1239 84.8759 54.0582 83.9804L53.5657 83.4167L53.5984 83.1844L54.0255 83.6818C53.9597 82.9191 53.9926 82.5211 54.1239 82.4215C54.4524 82.322 54.5509 82.8859 54.9122 84.2126L56.2588 93.4331L55.766 93.6322ZM57.7366 80.7631L57.5068 80.8294C57.3753 80.2326 57.1782 79.7018 56.9155 79.337L56.5871 78.9722C56.5542 78.9057 56.5871 78.8726 56.7184 78.8394L57.1126 78.8063C57.2768 78.6737 57.3426 78.4415 57.3753 78.0435C57.4739 77.8444 57.5395 78.2093 57.5068 79.2043C57.4409 79.6687 57.5395 80.1661 57.7366 80.7631ZM57.1126 82.6206C56.7842 82.2889 56.7842 81.6255 57.1126 80.5974C57.5395 81.0285 57.671 81.725 57.1126 82.6206ZM55.7004 76.3518L55.5033 76.2193L56.5215 75.9207L56.6857 76.0533L55.7004 76.3518ZM57.5395 90.7133C56.1929 86.9987 55.8646 84.8759 56.4229 84.5443C57.3426 84.5111 57.6709 86.667 57.5395 90.7133ZM57.014 84.2789L57.0797 83.7815C57.4082 83.5161 57.6053 83.0848 57.7366 82.5543C57.7366 82.322 57.7695 81.9904 57.7366 81.5592C57.8351 81.5924 57.9337 81.5261 58.1308 81.4265L58.5248 81.1611C57.8022 79.4365 57.6053 78.143 58.262 77.4796C58.7875 78.6406 58.9189 79.8344 58.6233 81.0948L58.7219 81.0285C58.7219 81.1944 58.492 81.5261 58.0979 82.0898C57.9008 83.2176 57.5395 83.9472 57.014 84.2789ZM60.7909 81.3933L61.6777 83.5161C62.0062 84.1794 62.3346 85.4398 62.663 87.2307C62.9915 89.1546 63.1228 90.4813 62.8929 90.9455L62.663 91.1778H62.5644L62.0062 90.5144C61.9077 90.05 62.0062 89.2872 62.0062 88.06L61.6777 87.8278L61.2179 85.3735C60.8895 85.1413 60.758 84.7102 60.6597 84.2457C60.5611 83.6818 60.3311 83.6818 60.3311 84.0135C60.2984 84.2126 60.2655 84.4448 60.2655 84.6768L60.5282 84.8096V85.0085L60.2655 84.8428C60.2326 85.2076 60.2326 85.5724 60.2326 86.0037V88.1263C59.7728 86.8659 59.4444 85.6056 59.3131 84.2789L58.1964 83.6156L58.262 83.4498L59.2802 84.0468C59.2473 83.5824 59.2146 83.1181 59.2146 82.6206C59.2473 82.488 59.2802 82.3552 59.3459 82.2226L58.9846 82.0898L59.116 81.9241L59.4115 82.0567C59.5429 81.5593 59.6415 81.0948 59.7071 80.6306L59.3131 80.5309V80.3652L59.7071 80.4646L59.74 80.5309C59.8713 79.5691 59.8386 78.6737 59.5759 77.9439L59.116 76.4846C58.886 76.0202 58.886 75.6885 58.7875 75.3568C58.6891 74.4613 58.886 73.002 59.4444 70.9787V72.5376C59.3459 73.1015 59.3459 73.6654 59.4444 74.0965C60.3311 76.6504 60.7909 79.138 60.7909 81.3933ZM12.2169 25.7052C12.6767 25.7052 13.1037 26.5013 13.5635 27.828L14.4502 30.5144L14.6801 32.6372C14.91 33.6322 15.2384 34.3287 15.4683 34.76H16.2566C16.585 34.2956 16.9134 33.5328 17.3732 31.9407L18.0301 29.2541C18.0301 28.9224 18.0301 28.4581 17.9315 28.027C17.4717 26.7998 17.6031 25.1081 18.0301 23.3172L19.5737 18.7068L20.3619 18.2426C20.4604 18.4747 20.4604 18.7069 20.4604 19.1381C20.4604 20.2657 20.3619 21.2607 20.0006 22.2891L19.5408 23.6489C19.7708 24.677 20.1977 25.1081 20.756 25.2078C21.7413 25.3072 22.8579 24.08 24.0731 21.6257L25.6166 19.1713C26.0437 18.5079 26.6019 18.1762 26.9631 18.1762C27.4229 18.2757 27.5215 18.6406 27.0617 18.9722L25.5182 21.7915C24.7299 23.2509 24.3029 24.3785 24.3029 24.8098C23.7446 25.9374 22.8579 27.1646 21.6428 28.6241C20.4275 29.9839 19.5408 31.8744 18.9824 34.2293C18.0957 37.4796 18.4242 40.5311 19.8693 43.3172C19.9677 43.7483 20.2962 43.8809 20.4275 43.5493C20.6575 43.4498 20.756 42.5543 21.0844 40.8628L21.4128 38.1761C21.8726 36.9491 22.2995 35.4896 22.628 34.0302L23.4162 31.2111L23.7446 30.415C23.8431 30.6472 23.9746 31.0783 24.0731 31.6422C24.1717 32.3056 24.1717 32.77 24.0731 33.002C23.7446 33.5659 23.6133 35.4565 23.5148 38.74C23.4162 42.2226 23.5148 44.2459 23.9746 45.0418V45.3735C24.0731 46.9324 25.0911 48.2922 26.9631 49.1878L27.2917 49.2872L27.3902 48.7235L27.2917 47.7283L26.8319 42.3554V42.1231C26.9304 41.8909 26.9304 41.1281 26.7333 39.7681L26.2735 36.8494C27.4888 37.1811 28.5068 39.2044 29.1637 42.7865C29.722 45.9374 30.2802 48.0602 30.7073 48.9556C31.364 50.0833 32.4808 51.0783 34.3857 52.1065C34.4842 52.1065 34.714 52.1065 34.9439 51.8743C35.2724 51.4431 34.9439 47.828 34.0571 41.2276L34.1557 40.8959C34.4842 40.8959 35.0424 41.4598 35.8306 42.687C36.2904 43.3504 36.6189 44.3785 36.9473 45.7052C37.5057 48.9555 37.9326 50.8793 38.1624 51.5426C39.0493 53.4663 40.5928 54.5609 42.9575 55.1248H43.2859L43.3844 55.0252C44.1726 54.5609 44.7309 54.7931 45.3879 55.3568L45.7162 54.8926C45.7162 55.1248 45.7162 55.2243 45.8148 55.2243L48.3766 55.1248L50.8068 55.2243C51.1353 55.6885 52.3504 55.5559 54.6822 54.8926H55.142H56.5871L56.8169 55.1248C58.1635 55.7881 59.4773 55.1248 60.5939 52.8694C61.2508 51.7417 61.8091 50.415 62.2689 48.823C62.4988 45.5726 63.3855 42.8859 64.8306 40.5311L65.3889 40.0667L64.732 44.1131C64.6335 44.9093 64.5022 46.0368 64.5022 47.5957C64.5022 49.0552 64.2722 50.2822 64.1737 50.9789L64.8306 51.2109L64.6008 51.3106H64.8306C65.8159 51.2109 66.604 50.8461 67.261 50.5144C68.706 49.5194 69.6913 47.5957 70.2497 44.677L70.9064 41.1944C71.1364 39.8346 71.5633 38.8396 71.8917 38.1761C72.2202 37.5128 72.5486 37.1811 72.9099 37.1811C73.0084 38.1761 73.0084 40.1 72.8113 42.9191C72.5815 45.7383 72.2529 47.3967 72.0231 47.9606L72.5815 48.2922L72.3515 48.3918H72.8113C74.4862 48.3918 75.7015 45.9374 76.0299 41.095C76.1284 40.1994 76.0299 39.1713 75.8 38.0767L74.8148 34.4946C74.7162 33.1348 74.8148 31.9076 75.3729 30.7798L76.4897 33.7981C77.7048 36.3852 78.4931 39.735 78.8215 43.682C80.3651 41.7583 80.9233 39.5361 80.825 37.1811C80.825 35.2574 80.168 33.0352 79.0513 30.3487L78.0333 29.5526C75.8 27.5294 74.7162 25.5063 74.4862 23.7152C74.3877 22.5876 73.928 21.3604 73.0411 20.0004L71.9246 17.9772C72.1544 17.5129 72.8113 17.6456 74.1579 18.6406C75.3729 19.5361 76.0628 20.6639 76.1613 21.7915C76.2599 22.687 76.7195 23.483 77.3764 24.3785C78.0333 25.3735 78.7229 25.5063 79.1499 25.0419C79.4784 24.8098 79.4784 24.1463 79.3799 23.1181L78.723 20.4317C78.4931 19.3039 78.3946 18.3089 78.3946 17.6124C78.3946 16.8164 78.4931 16.3852 78.8215 16.2525L79.1499 16.153L79.4784 16.9491C79.7082 18.5079 80.1351 19.8678 80.825 20.7633C81.3831 21.6589 81.8102 23.1181 81.8102 25.1415C81.9086 27.0652 81.8102 28.6241 81.4817 29.8511C81.8102 32.2061 82.4999 33.6654 83.4851 34.1298C83.4851 34.4615 83.4851 34.6937 83.5837 34.6937C83.8135 34.6937 83.912 34.4615 84.142 34.0302C84.3719 33.6985 84.4704 33.0352 84.5689 32.2393C84.5689 31.012 84.6675 29.5526 85.0288 27.9606C85.4886 26.0368 85.9155 25.0418 86.4739 24.8098C86.8022 25.0418 86.9335 26.833 86.8022 29.8511L86.4739 34.5609L84.7988 37.3802C83.912 38.74 83.4522 39.6356 83.4522 40.1994C83.4522 40.5311 83.2224 40.9954 82.9924 41.5593L82.4342 42.9191C82.1057 44.0468 81.5475 45.0418 80.7591 45.9374L78.9857 47.9606C78.3288 48.9556 76.9822 50.2159 74.9789 51.5426C72.6471 52.9026 70.972 53.5659 69.9868 53.3337L69.8884 53.997L69.7899 53.6654C69.5599 53.7648 69.0015 54.1298 68.0162 54.4615L66.1115 55.0252L65.8815 55.2574L61.7762 57.7118C59.7728 59.0717 58.6562 59.9672 58.5577 60.6306C58.4591 61.4265 58.5577 62.09 58.7875 62.322C59.116 62.7865 59.6744 62.6537 60.3311 61.8578L61.4479 60.2989C62.5644 58.6074 64.5679 57.4796 67.6549 56.9157L70.7751 56.5841C71.6619 56.5841 72.1217 56.8163 72.2202 57.0485C72.3186 57.5128 72.1217 58.4083 71.5633 59.735C70.9064 61.2939 70.0197 62.7533 69.0015 64.1131C66.0129 68.0269 62.8929 69.6189 59.4444 68.823L59.3459 68.4913C58.886 67.828 58.7875 68.4913 58.7875 70.5144C58.1308 72.4381 57.3426 74.0965 56.3571 75.5559C56.0288 76.0202 55.7004 76.0202 55.3391 75.6554L54.6822 74.7598C54.4524 74.7598 54.4524 74.8594 54.4524 75.0915C55.3391 76.7831 55.4377 78.1098 54.9122 78.8063C54.3539 79.7019 53.3686 79.7019 51.9235 78.9057C51.825 78.8063 51.825 78.6737 51.9235 78.5741C53.0402 78.342 53.3686 77.6785 53.1386 76.5509C53.0402 75.3237 52.5804 75.0915 52.022 75.6554C50.4784 75.8876 48.902 75.987 47.5882 75.7548C47.2599 75.4231 46.9315 75.4231 46.8 75.7548L46.3402 76.982C46.2417 77.7781 46.6688 78.342 47.6868 78.5409V79.2043C44.7966 80.0004 43.8113 78.8726 44.7966 75.7217L44.5668 75.158L44.1069 76.0533C42.8919 75.9539 42.202 74.6935 41.8737 72.4713C41.4139 72.1396 41.0855 72.3718 40.8884 73.3668C40.7899 73.0352 40.8884 74.2624 41.1184 77.0817C41.2826 77.7781 41.3482 78.342 41.2826 78.7731C41.3811 78.7731 41.4795 78.74 41.578 78.7068L41.6109 78.74C41.2497 79.1048 41.0199 79.5359 40.8228 80.0004L40.5271 80.8959C40.4942 80.9954 40.4286 81.0285 40.3629 80.9954L40.2644 80.8959L40.4944 79.6356C40.4286 79.6024 40.3629 79.5028 40.2644 79.4365C40.1659 79.1048 40.0346 78.6405 40.0346 78.0767H39.706C39.3777 78.74 39.3777 79.5359 39.706 80.0998C39.8702 80.4315 40.0346 80.8628 40.1002 81.4265C40.1331 81.4265 40.1659 81.4265 40.1659 81.4265C40.2315 82.6868 40.56 83.5824 41.1184 84.0468L41.2497 84.6105C40.954 84.5774 40.6913 84.3452 40.4944 83.9141C40.4615 83.8478 40.4286 83.7483 40.3629 83.6487C40.4286 84.1794 40.4615 84.7102 40.4615 85.2407C40.6913 88.06 40.6913 90.6139 40.3629 92.637C39.706 92.637 39.3777 92.3054 39.4762 91.642C39.936 88.8228 39.936 86.468 39.3777 84.8096V83.6487L38.4253 84.1794L37.7028 89.7183C37.6042 90.7133 37.2429 91.2772 36.816 91.2772L36.0277 90.7133C35.9291 90.2491 36.1262 89.3535 36.4875 88.0268L37.3086 84.8096L37.1771 84.8759V84.7102L37.3742 84.6105L37.9326 82.3883L37.3415 82.6206L37.3742 82.4215L37.9655 82.1894L38.458 80.2989L37.9655 80.3983L38.0311 80.1992L38.5237 80.0998V80.133L38.9179 78.6072C39.8046 74.5609 40.1331 71.8743 39.9031 70.5144L40.0017 70.415C40.0017 70.0833 40.1002 69.42 40.4615 68.3917C40.4615 67.0318 40.6913 66.3685 41.3482 66.3685C41.3482 67.0318 41.578 67.7283 42.1364 68.1596C42.7933 68.7233 43.5815 68.823 44.3697 68.7233L44.6982 69.055C44.928 69.3867 45.1579 69.7185 45.2564 70.1828L45.4864 70.415L45.9462 70.1828C46.176 69.7185 46.176 68.9556 45.8477 67.7283C45.3879 65.7052 44.8624 64.5774 43.9757 64.1463C43.1873 63.8146 42.432 64.2457 41.6439 65.5061C41.5453 65.2741 41.4139 65.1744 41.3153 65.0418L40.8555 64.9424C41.0855 64.7102 41.0855 64.2789 40.954 63.8146C39.8375 63.483 39.0493 62.9191 38.6222 62.2557C37.4071 60.8959 36.1919 60.0004 34.8453 59.5693C33.6302 59.1048 33.4989 59.4696 34.5169 60.4646C35.1739 60.6968 35.8635 61.2607 36.5204 61.9241C37.0788 62.7202 37.1771 63.0518 36.7502 63.0518L35.5351 62.2557L34.5499 61.1281C33.1048 59.9009 31.6597 59.0054 30.4446 58.5409C29.098 57.9772 28.6709 58.0767 28.9995 58.6405C28.9009 58.8726 29.3279 59.2044 29.9848 59.7681C30.7729 60.332 30.97 60.6637 30.7729 60.8959C29.8862 60.5643 29.5577 60.5643 29.7877 60.9954C30.116 61.327 30.7729 61.8909 32.0209 62.3552C31.0357 62.4548 30.6744 62.6868 31.0357 62.9191C31.364 63.2507 31.9224 63.3835 32.8091 63.483L33.3675 64.2789C31.4626 64.2789 31.594 64.6105 33.8273 65.4067L34.714 65.5061L35.1739 65.8378C34.2871 65.9374 33.9586 66.07 34.1886 66.3022L35.8635 67.1978C36.5204 67.1978 37.21 67.7615 38.0968 68.7565H37.5384L35.8635 68.4248C33.2033 67.7615 31.1999 66.3022 29.7548 64.1463C28.4082 62.3552 27.5215 59.8678 26.9631 56.75C27.0617 56.6504 27.4229 56.5178 28.0799 56.5178C30.0833 56.5178 32.1851 56.9822 34.5169 57.9772C36.8488 58.9722 38.6222 60.2326 39.9688 61.7915C40.1988 61.8909 40.2973 62.0235 40.5271 61.8909C40.8555 61.7915 40.9869 61.5593 40.9869 61.327C41.2168 60.9954 40.8884 60.332 40.0017 59.6356C39.6733 59.3039 39.2135 58.9722 38.6551 58.5078C38.1953 58.5078 37.5384 57.8444 36.6517 56.7168L36.4219 56.4846C35.8635 55.6885 35.5351 55.5891 35.6337 56.153C32.2837 55.3568 30.4117 54.6935 30.0833 54.0302C29.8533 53.6985 29.2949 53.3668 28.4082 53.1346L26.6348 52.803C24.6313 52.4713 22.9564 51.5759 21.8399 50.1165L20.9529 49.2209L19.8364 48.7567C18.9497 48.2922 17.9315 46.833 16.9463 44.0468L15.5012 39.6687C15.2713 39.2044 14.8443 38.7731 14.1546 38.3089C13.4978 37.745 12.9395 37.3139 12.7096 36.9491C12.611 36.6174 12.4797 35.5891 12.2498 34.0302C12.1513 31.7748 12.0199 29.0883 12.0199 25.838L12.2169 25.7052ZM42.7604 65.9043C42.7604 65.5724 43.0889 65.4398 43.7457 65.672L44.0742 66.1363L43.4173 66.3685L42.7604 65.9043ZM37.5384 65.2076L35.9949 65.1081C35.6664 65.0087 35.338 64.7765 35.1082 64.4448C34.3199 63.7815 33.893 63.085 33.7617 62.6537C33.6631 62.09 34.09 62.322 35.1082 63.317C35.338 63.6487 35.7649 64.1131 36.5531 64.5443L37.9982 65.3404L37.6699 65.7715L37.5713 65.672C37.6699 65.4398 37.6699 65.2076 37.5384 65.2076ZM37.8669 59.0385L38.3268 59.2707C39.5419 60.0667 40.2315 60.73 40.33 61.2939C39.6733 60.3983 38.7537 59.6024 37.8669 59.0385Z" fill="#666666"/>
<path d="M38.655 83.8479L38.6221 84.047L39.509 83.5162C39.1804 82.6208 38.8848 82.654 38.655 83.8479Z" fill="#666666"/>
<path d="M59.1163 59.0384C61.6779 57.6785 63.2215 54.7598 63.8785 50.3817C64.1083 48.9223 64.2068 47.5624 63.977 46.5674C63.8785 45.6719 63.6485 45.5724 63.5501 46.3352C62.9917 51.8411 61.2181 55.191 58.2294 56.0865H57.1128L56.8828 56.3187L56.9814 56.4182C56.7843 56.4513 57.4412 57.2474 59.1163 59.0384Z" fill="#666666"/>
<path d="M67.4586 53.765C68.6738 53.2011 69.6918 52.4051 70.4473 51.5096C71.4326 50.3818 71.9909 48.1264 72.2207 45.0088C72.3193 43.7816 72.3193 42.9855 72.1222 42.6538C71.9909 42.4218 71.7938 42.8861 71.4653 44.0138C71.0056 47.5959 69.9218 50.1829 68.0169 51.6422C67.4586 52.1066 66.8016 52.4383 66.0135 52.77L64.8967 53.2342L64.3386 54.362L63.6816 55.589L67.4586 53.765Z" fill="#666666"/>
<path d="M58.5915 81.0618L58.4932 81.1288C58.5259 81.1621 58.5259 81.2292 58.5588 81.2625C58.5588 81.1957 58.5915 81.1288 58.5915 81.0618Z" fill="#666666"/>
<path d="M75.7686 50.2835C77.2137 49.0561 78.002 47.5965 78.1004 45.9046C78.199 42.8859 78.1004 41.2935 77.7721 41.0613C77.6735 41.0613 77.5422 41.1607 77.4437 41.5257C77.3451 41.8574 77.3451 42.1892 77.4437 42.4215C77.2137 45.0089 76.7868 46.8998 75.9986 48.0278C75.2104 49.1557 74.0937 49.9518 72.6815 50.3831L71.335 52.4067C73.1084 51.9754 74.5535 51.1792 75.7686 50.2835Z" fill="#666666"/>
<path d="M62.007 67.0001C63.2221 66.4362 63.6819 66.1046 63.6819 65.8723C63.3533 65.6401 63.2221 65.4079 63.3533 65.3085L63.5833 65.2088C65.3568 64.6449 66.0137 64.2136 65.4882 63.8488C64.9299 63.8488 64.6015 63.7494 64.6999 63.3844L66.145 62.8205C66.8019 62.5883 67.0317 62.2566 67.0317 62.0244C66.145 62.1238 65.8166 62.0244 66.0464 61.6927C66.0464 61.5931 66.375 61.3609 66.9333 61.2283C67.5901 60.8964 68.1484 60.5648 68.4768 60.3325C68.5753 60.1003 68.3782 60.0009 68.1484 60.1003L67.6886 60.0009L68.5753 59.437C69.1337 59.2048 69.4621 58.8731 69.4621 58.309C69.3635 57.9774 68.9039 57.8446 68.1155 58.0768C67.3273 58.1764 66.5721 58.6409 65.6524 59.2048C63.2221 60.7638 61.6457 62.5883 60.9888 64.7112C60.2006 65.0431 59.8721 65.8392 59.8721 67.2988C60.0035 67.5642 60.7917 67.4646 62.007 67.0001ZM65.3239 60.6311C65.6524 60.6311 65.751 60.7307 65.751 61.0955C65.4224 61.3277 64.9628 61.6594 64.6342 61.9912C64.3059 62.4557 64.0759 62.7874 63.9775 62.9864L63.879 62.7542C63.7804 62.6546 63.649 62.6546 63.5504 62.6546C63.5504 62.0907 64.2403 61.394 65.3239 60.6311Z" fill="#666666"/>
<path d="M63.4511 66.8009L63.3525 67.4642C67.0309 65.9051 68.8044 64.3129 68.5745 62.7536C69.2314 62.6542 69.6911 62.2894 69.7896 61.8581L69.5598 61.5262C69.4613 61.4268 69.4613 61.2942 69.6584 61.062C70.4465 60.7301 70.7749 60.3985 70.6764 60.1662C70.5778 60.0668 70.4465 60.0668 70.1182 60.0668C70.1182 59.8346 70.1182 59.7349 70.348 59.6023C70.8078 59.6023 71.1362 59.2705 71.3333 58.7066C71.4318 58.1427 71.3333 57.9105 70.7749 58.0433C69.1 60.7301 67.7864 62.8864 66.7682 64.1138C65.6514 65.4407 64.5676 66.4359 63.4511 66.8009Z" fill="#666666"/>
<path d="M42.0059 62.2891H42.564L43.0239 62.0569C43.1224 61.5927 43.3524 61.261 43.6808 61.261C43.7793 61.261 44.0091 61.5927 44.3377 62.256C44.666 62.7204 44.9944 62.9193 45.1259 62.9193C45.2244 61.9243 45.3557 61.6921 45.6842 62.0238C45.914 62.3554 46.144 63.3838 46.4724 64.7104C46.571 64.9425 46.7022 64.9425 46.7022 64.9425L46.8008 64.4782C47.0308 64.014 47.2606 64.014 47.3591 64.7104L47.4577 67.0653C47.786 67.3969 47.9175 67.7286 47.9175 68.2925C48.4759 68.1928 48.5742 68.5245 48.016 69.4201C48.016 69.5197 48.1146 69.7517 48.2459 69.7517C48.3773 69.7517 48.3444 69.8514 48.3444 70.0834C48.3444 70.4151 48.2459 70.5478 48.016 70.7467C48.1146 71.0784 48.3444 71.4101 48.5742 71.4101C48.8042 71.4101 49.0013 71.0784 49.2311 70.7467L49.4611 67.7286C49.4611 67.1647 49.5597 66.833 49.691 66.833H50.0193C50.1179 67.0653 50.1179 67.1647 50.0193 67.4964L50.2493 70.5147C50.4791 71.0784 50.8077 71.3106 51.136 71.178C51.563 71.178 51.563 71.0784 51.2346 70.3819C51.136 70.1497 51.0046 70.0503 51.136 69.818C51.2346 69.7186 51.3659 69.7186 51.563 69.7186C51.6615 69.7186 51.563 69.3869 51.136 69.0553C51.136 68.4914 51.2346 68.3919 51.6944 68.4914C51.793 67.3638 52.1542 66.7999 52.811 66.9327L53.3693 63.3504C53.4679 63.1184 53.5993 63.1184 53.8291 63.251L54.289 63.7154C54.6173 63.251 54.8473 62.9193 54.9459 62.3554H55.0442C55.1428 61.7917 55.3728 61.6921 55.8326 61.6921C55.8326 61.7917 55.8326 62.0238 55.8326 62.3554H56.9491C57.0477 63.0188 57.2777 63.5827 57.7375 63.9143L57.9673 65.2741C58.0988 65.6058 57.8688 65.3738 57.5075 64.9425C56.8506 64.1466 56.2924 64.0471 55.6026 64.7104C54.9459 65.1747 54.486 65.9375 54.0589 67.0653C53.5993 68.1928 53.4022 69.0884 53.2708 70.0834C53.2708 70.8795 53.3693 71.2112 53.7306 71.0784C53.9606 70.183 54.2889 69.3869 54.8473 68.823C56.0624 68.7236 56.8506 68.4914 57.409 68.1597C57.8688 67.828 58.0659 67.3638 58.3942 66.601L59.281 66.5014C59.281 65.9375 59.2809 65.3738 59.6095 64.7104C59.0511 64.3788 58.6242 64.0471 58.3942 63.3504L58.0659 61.2278L57.5075 60.0006C55.8326 56.7503 53.9606 55.3904 51.6286 56.0869H49.067C47.9502 57.878 47.7204 57.878 48.1802 56.0869H48.0817H47.7533C47.195 57.2147 46.768 57.878 46.4068 58.1101C46.1768 58.2097 46.0782 58.2097 45.947 58.1101C45.947 57.7784 46.1768 57.2147 46.7351 56.5512C46.7351 56.4517 46.6366 56.3191 46.1768 56.3191L45.29 57.1151C45.0602 57.679 44.5019 58.3423 43.7464 59.1382L42.2028 60.6971C42.1042 61.2941 42.0059 61.7253 42.0059 62.2891ZM55.3399 66.1034C55.5699 65.6391 55.9968 65.4401 56.358 65.6391C55.8982 66.3356 55.537 66.5677 55.3399 66.1034ZM49.0013 63.4169C49.0999 63.1847 49.4611 63.1847 49.7895 63.3173C49.5597 63.9806 49.2311 64.3123 48.8042 64.2128C48.6728 63.8812 48.7713 63.649 49.0013 63.4169ZM49.7895 64.8762C50.0193 64.8762 50.0193 65.1084 49.7895 65.5395C49.4611 65.8712 49.3297 66.2028 49.3297 66.4351C49.0013 66.5345 48.6728 66.7667 48.4429 66.6673C48.6728 65.7717 49.0999 65.1084 49.7895 64.8762Z" fill="#666666"/>
<path d="M56.3251 69.8179C56.3251 69.7185 56.2265 69.9174 56.0952 70.7135L55.8652 71.9407L57.6387 70.4813C57.9672 69.8179 58.1971 69.2541 58.0985 68.7898C57.4416 69.2541 56.7849 69.5857 56.3251 69.8179Z" fill="#666666"/>
<path d="M39.3457 80.1332C39.2472 80.0669 39.1816 80.1332 39.1816 80.1997C39.083 80.9956 39.3457 81.5926 39.8712 81.9908L40.1668 82.455C40.2983 83.0189 40.4296 83.4169 40.561 83.7154C40.4954 83.218 40.4296 82.7204 40.331 82.1565C40.331 81.8911 40.2983 81.6591 40.2654 81.46C39.6414 81.3937 39.3457 80.9624 39.3457 80.1332Z" fill="#666666"/>
<path d="M35.6663 55.3234L35.1081 53.2007C31.2327 52.5373 28.9994 49.2868 28.441 43.3166L27.8827 42.6533C27.5543 42.5538 27.4229 42.7527 27.4229 43.5488C27.6529 50.9453 30.4445 54.8922 35.6663 55.3234Z" fill="#666666"/>
<path d="M40.9874 59.3701C41.4472 59.1379 41.7755 58.8062 42.4324 58.3749L43.2206 57.2474C43.549 56.9157 43.6804 56.584 43.4506 56.3518L43.1221 56.1196C42.7937 56.0201 42.6623 56.1196 42.4654 56.4512C40.5604 56.1196 39.2468 55.224 38.4584 54.0964C37.5717 52.8692 36.915 50.7133 36.4552 47.695C36.2252 47.0316 36.0283 46.7 35.8968 46.7L35.667 47.0316C35.667 50.5142 36.1266 53.1014 37.0134 55.1246C37.7688 56.9157 39.2139 58.3749 40.9874 59.3701Z" fill="#666666"/>
<path d="M43.0893 70.1496C42.3012 69.9176 41.7428 69.2542 41.3159 68.2261C41.2173 68.4583 41.0861 68.79 41.2173 69.2211C41.2173 69.6853 41.4473 70.1164 41.6772 70.4481C42.3341 71.4763 43.0237 71.5757 43.6806 70.7798C43.7792 70.1496 43.6477 69.9176 43.0893 70.1496Z" fill="#666666"/>
<path d="M40.7578 78.342H40.692C40.6264 78.7072 40.6593 79.0724 40.7249 79.4044L40.6593 79.7031C40.7578 79.7696 40.8562 79.8028 40.9876 79.7365C41.2175 79.5704 41.3489 79.2717 41.3816 78.84C41.1189 78.8069 40.922 78.6741 40.7578 78.342Z" fill="#666666"/>
<path d="M28.7711 52.6372L27.5558 50.3818C24.7641 50.2822 22.9907 46.9986 22.3338 40.7301C22.104 40.4981 22.0054 40.3985 22.0054 40.6307C20.6589 48.259 22.8921 52.2059 28.7711 52.6372Z" fill="#666666"/>
</svg>
