<svg width="120" height="28" viewBox="0 0 120 28" fill="none" xmlns="http://www.w3.org/2000/svg">
<path d="M3.584 5.3535C5.73725 2.01032 8.3508 0.0192871 10.5539 0.0192871C12.751 0.0192871 15.3634 2.00694 17.5357 5.3535C19.7695 8.81723 21.1102 13.1058 21.1102 16.8298C21.1102 22.2834 17.8452 27.7822 10.5562 27.7822C3.25775 27.7822 0 22.2834 0 16.8298C0 13.108 1.33703 8.81949 3.584 5.3535ZM74.9412 8.19863H67.5538V1.50552H90.2454V8.19863H82.8578V26.2948H74.9412V8.19976V8.19863ZM107.132 8.19863H118.744V1.50552H107.132C96.4643 1.50552 90.7674 6.48816 90.7674 13.9002C90.7674 21.3145 96.4608 26.2948 107.132 26.2948H118.744V19.6018H107.132C102.196 19.6018 98.9497 17.9442 98.9497 13.9002C98.9497 9.85726 102.199 8.19863 107.132 8.19863ZM47.2314 16.3025L51.4514 1.50552H65.4397V26.2948H57.5243V6.11746L51.7705 26.2948H42.6948L36.9409 6.13211V26.2948H29.0255V1.50552H43.0115L47.2314 16.3025Z" fill="#666666"/>
</svg>
