<svg width="240" height="28" viewBox="0 0 240 28" fill="none" xmlns="http://www.w3.org/2000/svg">
<path d="M16.9507 0.294678V7.51602H14.1093C10.5199 7.51602 7.62793 10.3653 7.62793 13.9027C7.62793 17.4387 10.5199 20.2881 14.1079 20.2881H16.9507V27.5093C23.4307 26.2814 28.268 20.6814 28.268 13.9014C28.268 7.17201 23.432 1.57201 16.9507 0.294678Z" fill="#666666"/>
<path d="M14.1093 22.5466C9.27334 22.5466 5.33333 18.6666 5.33333 13.9027C5.33333 9.13867 9.27201 5.25733 14.1067 5.25733H14.656V0H14.108C6.33201 0 0 6.23866 0 13.9013C0 21.6147 6.33201 27.8534 14.1093 27.8534H14.6573V22.5494H14.1093V22.5466ZM48.2093 18.7653C47.067 19.6894 45.6414 20.1923 44.172 20.1893C40.632 20.1893 37.7906 17.3893 37.7906 13.9013C37.7906 10.4147 40.6307 7.61467 44.172 7.61467C45.7128 7.60806 47.2024 8.16692 48.3587 9.18533L50.6027 6.976C48.8382 5.38751 46.5462 4.51169 44.172 4.51867C38.8867 4.51867 34.6493 8.74401 34.6493 13.9013C34.6493 19.0599 38.8867 23.3334 44.172 23.3334C46.6147 23.3334 48.8079 22.4494 50.4533 20.976L48.2093 18.7653ZM149.665 5.256L142.636 13.6067L135.556 5.256L135.507 5.35467V5.256H132.664V22.5481H135.507V9.87333L142.636 18.224L149.665 10.0707V22.5481H152.457V5.256H149.665ZM71.7413 13.9013C71.7413 19.1093 67.4533 23.284 62.2187 23.284C56.9347 23.284 52.6973 19.0599 52.6973 13.9013C52.6973 8.74401 56.9841 4.51867 62.2187 4.51867C67.4533 4.51867 71.7413 8.74401 71.7413 13.9013ZM68.5507 13.9013C68.5507 10.4147 65.7094 7.61467 62.1694 7.61467C58.6294 7.61467 55.788 10.4147 55.788 13.9013C55.788 17.3893 58.6294 20.1893 62.1694 20.1893C65.7094 20.1893 68.5507 17.3893 68.5507 13.9013ZM129.773 13.9013C129.773 19.1093 125.485 23.284 120.251 23.284C114.965 23.284 110.728 19.0599 110.728 13.9013C110.728 8.74401 115.016 4.51867 120.251 4.51867C125.535 4.51867 129.773 8.74401 129.773 13.9013ZM126.632 13.9013C126.632 10.4147 123.791 7.61467 120.251 7.61467C116.711 7.61467 113.869 10.4147 113.869 13.9013C113.869 17.3893 116.711 20.1893 120.251 20.1893C123.74 20.1893 126.632 17.3893 126.632 13.9013ZM110.679 5.256H106.839L99.6107 12.5267H96.6694V5.256H93.8773V22.5481H96.6694V15.3267H99.5601L106.789 22.5481H110.579L102.004 13.9507L110.679 5.256Z" fill="#666666"/>
<path d="M228.934 5.2561H225.146L217.867 12.5268H214.925V5.2561H212.134V22.5481H214.925V15.3268H217.867L225.046 22.5481H228.835L220.31 13.9508L228.934 5.2561ZM187.654 22.5468H190.747L183.018 5.2561H179.827L172.1 22.5481H175.19L176.885 18.8148H185.96L187.654 22.5481V22.5468ZM178.132 16.0628L181.422 8.79344L184.713 16.0628H178.132Z" fill="#666666"/>
<path d="M90.2887 17.5375C90.2887 16.8539 90.147 16.1778 89.8721 15.552C89.5974 14.9261 89.1958 14.3641 88.6927 13.9014C89.6393 12.9681 90.2887 11.6908 90.2887 10.2668C90.2844 8.93477 89.7516 7.65892 88.8074 6.71942C87.8632 5.77993 86.5846 5.25363 85.2526 5.25611H74.9834V22.5961H85.2526C88.0447 22.5481 90.2887 20.288 90.2887 17.5375ZM77.8246 8.05745H85.2033C86.45 8.05745 87.446 9.03878 87.446 10.2668C87.446 11.4948 86.45 12.4774 85.2033 12.4774H77.8246V8.05611V8.05745ZM85.2033 19.7961H77.8246V15.3268H85.2526C86.4993 15.3268 87.4966 16.3574 87.4966 17.5375C87.446 18.7642 86.45 19.7961 85.2033 19.7961Z" fill="#666666"/>
<path d="M205.802 5.30543V12.5268H195.582V5.30543H192.74V22.4987H195.582V15.3254H205.802V22.4987H208.644V5.30543H205.802ZM171.102 17.5375C171.102 14.7854 168.809 12.5268 166.018 12.5268H158.639V8.0561H169.409V5.2561H155.798V22.5961H166.018C168.809 22.5481 171.102 20.2881 171.102 17.5375ZM166.018 19.7961H158.639V15.3268H166.018C167.264 15.3268 168.262 16.3574 168.262 17.5375C168.262 18.764 167.264 19.7961 166.018 19.7961Z" fill="#666666"/>
</svg>
